<svg width="70" height="49" viewBox="0 0 70 49" fill="none" xmlns="http://www.w3.org/2000/svg">
<rect y="0.994141" width="70" height="48" rx="6" fill="#1F72CD"/>
<path fill-rule="evenodd" clip-rule="evenodd" d="M12.5493 17.9941L6 32.4876H13.8405L14.8125 30.1768H17.0342L18.0062 32.4876H26.6364V30.7239L27.4054 32.4876H31.8696L32.6386 30.6866V32.4876H50.587L52.7695 30.2368L54.813 32.4876L64.0317 32.5063L57.4617 25.2813L64.0317 17.9941H54.956L52.8315 20.2034L50.8523 17.9941H31.3268L29.6501 21.735L27.9341 17.9941H20.11V19.6979L19.2396 17.9941H12.5493ZM14.0664 20.0522H17.8883L22.2324 29.8804V20.0522H26.4191L29.7745 27.099L32.8668 20.0522H37.0326V30.4523H34.4978L34.4771 22.3029L30.7817 30.4523H28.5142L24.7981 22.3029V30.4523H19.5836L18.595 28.1207H13.254L12.2675 30.4502H9.47358L14.0664 20.0522ZM49.6584 20.0522H39.3516V30.4461H49.4989L52.7695 27.0014L55.9218 30.4461H59.2172L54.4275 25.2793L59.2172 20.0522H56.0648L52.8108 23.4574L49.6584 20.0522ZM15.9256 21.8119L14.166 25.9653H17.6832L15.9256 21.8119ZM41.8968 24.1041V22.2056V22.2037H48.328L51.1342 25.24L48.2036 28.2928H41.8968V26.2201H47.5197V24.1041H41.8968Z" fill="white"/>
</svg>
