<svg width="48" height="20" viewBox="0 0 48 20" fill="none" xmlns="http://www.w3.org/2000/svg">
<g clip-path="url(#clip0_12549_3946)">
<path d="M8.86228 3.15953C8.30986 3.79004 7.426 4.28734 6.54213 4.2163C6.43165 3.36378 6.86437 2.45797 7.37076 1.89851C7.92317 1.25023 8.8899 0.788451 9.67249 0.75293C9.76455 1.64097 9.40548 2.51126 8.86228 3.15953ZM9.66328 4.38503C8.38352 4.31398 7.28789 5.08658 6.68024 5.08658C6.06337 5.08658 5.13347 4.42055 4.12071 4.43831C2.80412 4.45607 1.5796 5.17538 0.907498 6.32096C-0.47354 8.61211 0.548428 12.0044 1.88343 13.8693C2.53712 14.7929 3.31971 15.8053 4.35089 15.7697C5.32682 15.7342 5.71351 15.157 6.892 15.157C8.07969 15.157 8.42034 15.7697 9.45152 15.752C10.5195 15.7342 11.1916 14.8284 11.8453 13.9048C12.5911 12.857 12.8949 11.8357 12.9133 11.7824C12.8949 11.7647 10.851 11.0098 10.8326 8.73644C10.8141 6.83603 12.4438 5.93022 12.5174 5.87694C11.5967 4.56263 10.1605 4.42055 9.66328 4.38503ZM17.0564 1.8097V15.6543H19.2845V10.921H22.3688C25.1861 10.921 27.1656 9.05613 27.1656 6.35648C27.1656 3.65683 25.223 1.8097 22.4425 1.8097H17.0564ZM19.2845 3.62131H21.8532C23.7867 3.62131 24.8915 4.61592 24.8915 6.36536C24.8915 8.11481 23.7867 9.1183 21.844 9.1183H19.2845V3.62131ZM31.2351 15.7609C32.6345 15.7609 33.9327 15.0771 34.522 13.9937H34.568V15.6543H36.6303V8.76308C36.6303 6.76498 34.9731 5.47732 32.4228 5.47732C30.0566 5.47732 28.3073 6.78274 28.2428 8.57659H30.2499C30.4157 7.72407 31.2351 7.1646 32.3583 7.1646C33.721 7.1646 34.4851 7.77735 34.4851 8.90517V9.66888L31.7046 9.82873C29.1175 9.9797 27.718 11.0009 27.718 12.777C27.718 14.5709 29.1635 15.7609 31.2351 15.7609ZM31.8335 14.118C30.6458 14.118 29.8909 13.5674 29.8909 12.7238C29.8909 11.8535 30.6182 11.3473 32.0085 11.2674L34.4851 11.1164V11.8979C34.4851 13.1944 33.3435 14.118 31.8335 14.118ZM39.3832 19.4196C41.556 19.4196 42.578 18.6204 43.4711 16.196L47.384 5.61053H45.1191L42.4952 13.7894H42.4491L39.8251 5.61053H37.4958L41.2706 15.6898L41.0681 16.3026C40.7274 17.3416 40.175 17.7412 39.1899 17.7412C39.0149 17.7412 38.6743 17.7234 38.5362 17.7057V19.3663C38.6651 19.4018 39.2175 19.4196 39.3832 19.4196Z" fill="black"/>
</g>
<defs>
<clipPath id="clip0_12549_3946">
<rect width="47" height="20" fill="white" transform="translate(0.339844)"/>
</clipPath>
</defs>
</svg>
