<svg width="62" height="26" viewBox="0 0 62 26" fill="none" xmlns="http://www.w3.org/2000/svg">
<g clip-path="url(#clip0_12549_3932)">
<path d="M0.339844 4.66212C0.339844 2.08874 2.46084 0 5.07077 0H56.6151C59.225 0 61.346 2.08874 61.346 4.66212V21.3311C61.346 23.9044 59.2319 25.9932 56.6151 25.9932H5.07077C2.46084 26 0.339844 23.9113 0.339844 21.3379V4.66212Z" fill="#000268"/>
<path d="M2.28125 4.82581V21.1808C2.28125 22.7917 3.60342 24.0954 5.23548 24.0954H32.2368V1.91113H5.23548C3.60342 1.91113 2.28125 3.21489 2.28125 4.82581ZM39.2195 12.9214C39.2195 13.9657 38.703 14.6756 37.8422 14.6756C37.0847 14.6756 36.4512 13.9589 36.4512 13.0033C36.4512 12.0272 37.009 11.2968 37.8422 11.2968C38.7237 11.3036 39.2195 12.0545 39.2195 12.9214ZM34.1649 18.8941H36.4443V15.3446H36.4718C36.9057 16.1227 37.7665 16.4094 38.5584 16.4094C40.521 16.4094 41.5677 14.8053 41.5677 12.8736C41.5677 11.29 40.5692 9.57666 38.7443 9.57666C37.7045 9.57666 36.7473 9.99304 36.2859 10.9077H36.2584V9.72683H34.158V18.8941H34.1649ZM44.6803 14.1842C44.6803 13.5562 45.2863 13.3173 46.0576 13.3173C46.4019 13.3173 46.7256 13.3378 47.0217 13.3514C47.0217 14.1159 46.4777 14.8941 45.6169 14.8941C45.0866 14.9009 44.6803 14.6415 44.6803 14.1842ZM49.2804 16.2593C49.1771 15.7473 49.1564 15.2285 49.1564 14.7166V12.2797C49.1564 10.2866 47.7034 9.56984 46.0163 9.56984C45.0453 9.56984 44.1914 9.70635 43.3857 10.034L43.427 11.563C44.0606 11.2081 44.7905 11.0715 45.5274 11.0715C46.3468 11.0715 47.0217 11.3104 47.0355 12.2046C46.7462 12.1569 46.3399 12.1159 45.975 12.1159C44.763 12.1159 42.5731 12.3548 42.5731 14.348C42.5731 15.7678 43.7369 16.4026 45.0384 16.4026C45.975 16.4026 46.6085 16.0408 47.125 15.2217H47.1525C47.1525 15.563 47.187 15.8975 47.2007 16.2524H49.2804V16.2593ZM50.2996 18.8941C50.7678 18.9965 51.2361 19.0442 51.7182 19.0442C53.8047 19.0442 54.3005 17.447 54.9478 15.8087L57.3649 9.72683H55.0856L53.729 13.993H53.7083L52.2897 9.72683H49.8382L52.5101 16.4163C52.3448 16.9965 51.9179 17.3173 51.3601 17.3173C51.0433 17.3173 50.7678 17.2763 50.458 17.1808L50.2996 18.8941Z" fill="white"/>
<path d="M7.84433 12.9354C7.84433 12.0412 8.28505 11.304 9.13896 11.304C10.165 11.304 10.592 12.1163 10.592 12.8466C10.592 13.85 9.94466 14.5258 9.13896 14.5258C8.45033 14.5258 7.84433 13.9524 7.84433 12.9354ZM12.7956 9.72037H10.7297V10.9013H10.709C10.227 10.0958 9.44196 9.5702 8.47098 9.5702C6.41886 9.5702 5.49609 11.0241 5.49609 12.9695C5.49609 14.9012 6.62545 16.2596 8.42967 16.2596C9.34555 16.2596 10.103 15.9047 10.6471 15.1401H10.6746V15.4951C10.6746 16.7715 9.96532 17.3859 8.65003 17.3859C7.69972 17.3859 7.11438 17.1879 6.41886 16.8466L6.30179 18.6282C6.83204 18.8193 7.73415 19.0446 8.82219 19.0446C11.4803 19.0446 12.7956 18.1777 12.7956 15.4951V9.72037ZM16.645 6.99683H14.3657V8.65552H16.645V6.99683ZM14.3657 16.2596H16.645V9.72037H14.3657V16.2596ZM22.9874 9.64528C22.7601 9.61115 22.4778 9.5702 22.2161 9.5702C21.2313 9.5702 20.6598 10.0958 20.2673 10.9286H20.2397V9.72719H18.1669V16.2664H20.4463V13.5088C20.4463 12.2255 21.0454 11.461 22.1059 11.461C22.3745 11.461 22.6224 11.461 22.8772 11.5361L22.9874 9.64528ZM26.9126 14.8262C25.8589 14.8262 25.432 13.9593 25.432 12.9968C25.432 12.0207 25.8589 11.1538 26.9126 11.1538C27.9662 11.1538 28.3931 12.0207 28.3931 12.9968C28.3931 13.9593 27.9593 14.8262 26.9126 14.8262ZM26.9126 16.4098C29.0886 16.4098 30.7482 15.1538 30.7482 12.9968C30.7482 10.8262 29.0886 9.5702 26.9126 9.5702C24.7365 9.5702 23.0769 10.8262 23.0769 12.9968C23.0769 15.1538 24.7296 16.4098 26.9126 16.4098Z" fill="#FF0007"/>
</g>
<defs>
<clipPath id="clip0_12549_3932">
<rect width="61" height="26" fill="white" transform="translate(0.339844)"/>
</clipPath>
</defs>
</svg>
