<svg width="70" height="49" viewBox="0 0 70 49" fill="none" xmlns="http://www.w3.org/2000/svg">
<rect y="0.994141" width="70" height="48" rx="6" fill="#FEB4C7"/>
<path fill-rule="evenodd" clip-rule="evenodd" d="M10.8483 31.7534H8V18.9941H10.8483V31.7534ZM17.9594 18.9941H15.1729C15.1729 21.3422 14.1228 23.4973 12.292 24.9072L11.188 25.7572L15.4656 31.7539H18.9826L15.0467 26.236C16.9124 24.326 17.9594 21.7564 17.9594 18.9941ZM22.5025 31.7499H19.8126V18.9966H22.5025V31.7499ZM30.6297 22.9279V23.4922C29.9038 22.9832 29.0278 22.6841 28.0829 22.6841C25.5822 22.6841 23.555 24.7682 23.555 27.3391C23.555 29.91 25.5822 31.9941 28.0829 31.9941C29.0278 31.9941 29.9038 31.695 30.6297 31.1861V31.7499H33.1989V22.9279H30.6297ZM30.6219 27.3391C30.6219 28.5927 29.5795 29.609 28.2938 29.609C27.0082 29.609 25.9658 28.5927 25.9658 27.3391C25.9658 26.0856 27.0082 25.0696 28.2938 25.0696C29.5795 25.0696 30.6219 26.0856 30.6219 27.3391ZM57.7342 23.4922V22.9279H60.3033V31.7499H57.7342V31.1861C57.0084 31.695 56.1323 31.9941 55.1873 31.9941C52.6866 31.9941 50.6594 29.91 50.6594 27.3391C50.6594 24.7682 52.6866 22.6841 55.1873 22.6841C56.1323 22.6841 57.0084 22.9832 57.7342 23.4922ZM55.3983 29.609C56.684 29.609 57.7262 28.5927 57.7262 27.3391C57.7262 26.0856 56.684 25.0696 55.3983 25.0696C54.1125 25.0696 53.0703 26.0856 53.0703 27.3391C53.0703 28.5927 54.1125 29.609 55.3983 29.609ZM61.4184 30.2784C61.4184 29.3629 62.1402 28.6209 63.0306 28.6209C63.9209 28.6209 64.6429 29.3629 64.6429 30.2784C64.6429 31.1937 63.9209 31.9359 63.0306 31.9359C62.1402 31.9359 61.4184 31.1937 61.4184 30.2784ZM46.094 22.6906C45.0677 22.6906 44.0964 23.0182 43.447 23.9219V22.9284H40.8889V31.7499H43.4784V27.1139C43.4784 25.7724 44.3535 25.1154 45.4071 25.1154C46.5362 25.1154 47.1853 25.8089 47.1853 27.0956V31.7499H49.7515V26.1398C49.7515 24.0868 48.1637 22.6906 46.094 22.6906ZM37.1733 22.9281V24.0771C37.6883 23.3878 38.6479 22.9286 39.6912 22.9286V25.4956L39.683 25.4954L39.677 25.4951L39.6714 25.4948L39.6607 25.4945C38.6442 25.4945 37.1792 26.2414 37.1792 27.6311V31.7499H34.5429V22.9281H37.1733Z" fill="#17120F"/>
</svg>
