<svg width="44" height="28" viewBox="0 0 44 28" fill="none" xmlns="http://www.w3.org/2000/svg">
<path fill-rule="evenodd" clip-rule="evenodd" d="M30.3951 27.095C37.5444 27.095 43.34 21.2321 43.34 13.9999C43.34 6.76764 37.5444 0.904762 30.3951 0.904762C27.1909 0.904762 24.2586 2.08248 21.9981 4.03335C19.7376 2.08249 16.8053 0.904785 13.6011 0.904785C6.45185 0.904785 0.65625 6.76766 0.65625 13.9999C0.65625 21.2321 6.45185 27.095 13.6011 27.095C16.8053 27.095 19.7376 25.9173 21.9981 23.9664C24.2586 25.9173 27.1909 27.095 30.3951 27.095Z" fill="#ED0006"/>
<path fill-rule="evenodd" clip-rule="evenodd" d="M21.9961 23.9678C24.7801 21.5659 26.5455 17.9914 26.5455 13.9999C26.5455 10.0083 24.7801 6.43388 21.9961 4.03199C24.2564 2.08194 27.1881 0.904785 30.3915 0.904785C37.5408 0.904785 43.3364 6.76766 43.3364 13.9999C43.3364 21.2321 37.5408 27.095 30.3915 27.095C27.1881 27.095 24.2564 25.9178 21.9961 23.9678Z" fill="#F9A000"/>
<path fill-rule="evenodd" clip-rule="evenodd" d="M22.0009 23.9665C24.784 21.5646 26.5487 17.9908 26.5487 14C26.5487 10.0092 24.784 6.43533 22.0009 4.03345C19.2178 6.43533 17.4531 10.0092 17.4531 14C17.4531 17.9908 19.2178 21.5646 22.0009 23.9665Z" fill="#FF5E00"/>
</svg>
