<svg width="73" height="36" viewBox="0 0 73 36" fill="none" xmlns="http://www.w3.org/2000/svg">
<path d="M12.5274 9.93136C11.6249 9.31095 10.4473 9 8.99446 9H3.36997C2.92459 9 2.67854 9.22274 2.6318 9.66779L0.347016 24.0099C0.32327 24.1508 0.358513 24.2796 0.452422 24.3967C0.545795 24.5141 0.663236 24.5724 0.803886 24.5724H3.47548C3.94406 24.5724 4.20162 24.3502 4.24889 23.9046L4.88155 20.038C4.90465 19.8506 4.98707 19.6982 5.12772 19.5809C5.26826 19.4638 5.44404 19.3872 5.65496 19.3522C5.86589 19.3173 6.06477 19.2997 6.25259 19.2997C6.43987 19.2997 6.6624 19.3116 6.9206 19.335C7.17815 19.3583 7.34233 19.3698 7.41271 19.3698C9.42801 19.3698 11.0099 18.8019 12.1584 17.6649C13.3064 16.5285 13.881 14.9527 13.881 12.9368C13.881 11.5541 13.4294 10.5524 12.5274 9.93103V9.93136ZM9.62744 14.2379C9.50989 15.0582 9.20559 15.597 8.71348 15.8548C8.22126 16.113 7.51823 16.2415 6.60438 16.2415L5.44426 16.2766L6.04199 12.5152C6.08863 12.2576 6.24088 12.1287 6.49886 12.1287H7.16698C8.10393 12.1287 8.78397 12.2637 9.20581 12.5328C9.62744 12.8025 9.76809 13.371 9.62744 14.2379Z" fill="#003087"/>
<path d="M71.8822 9H69.2812C69.0227 9 68.8706 9.12894 68.8241 9.38692L66.5391 24.0106L66.5039 24.0808C66.5039 24.1986 66.5508 24.3094 66.6448 24.4149C66.7379 24.5202 66.8557 24.5729 66.9961 24.5729H69.3166C69.7611 24.5729 70.0073 24.3507 70.0549 23.9051L72.3396 9.52757V9.49265C72.3395 9.1644 72.1867 9.00043 71.8822 9.00043V9Z" fill="#009CDE"/>
<path d="M40.4556 14.6601C40.4556 14.5432 40.4086 14.4316 40.3154 14.3265C40.2214 14.221 40.1159 14.168 39.999 14.168H37.2922C37.0339 14.168 36.823 14.2857 36.6592 14.5194L32.9331 20.0035L31.3864 14.7306C31.2686 14.3559 31.0112 14.168 30.6131 14.168H27.9762C27.8587 14.168 27.7533 14.2208 27.6602 14.3265C27.5662 14.4316 27.5195 14.5434 27.5195 14.6601C27.5195 14.7072 27.7481 15.3984 28.2049 16.7341C28.6618 18.0704 29.1539 19.5117 29.6813 21.0585C30.2087 22.605 30.4838 23.4257 30.5074 23.5186C28.5855 26.1438 27.625 27.5498 27.625 27.737C27.625 28.0419 27.7771 28.1941 28.082 28.1941H30.7888C31.0464 28.1941 31.2573 28.0772 31.4216 27.8427L40.3858 14.906C40.4323 14.8596 40.4556 14.7779 40.4556 14.66V14.6601Z" fill="#003087"/>
<path d="M65.6627 14.1682H62.991C62.6626 14.1682 62.4641 14.555 62.3937 15.3285C61.7836 14.3913 60.6712 13.9221 59.0538 13.9221C57.3666 13.9221 55.931 14.555 54.7478 15.8205C53.5642 17.086 52.9727 18.5746 52.9727 20.2852C52.9727 21.6682 53.3769 22.7695 54.1852 23.5895C54.9937 24.4102 56.0774 24.8198 57.4372 24.8198C58.1167 24.8198 58.808 24.679 59.511 24.398C60.2141 24.1168 60.7643 23.742 61.1635 23.2731C61.1635 23.2967 61.1395 23.4017 61.0932 23.5891C61.0458 23.7769 61.0227 23.918 61.0227 24.011C61.0227 24.3864 61.1746 24.5734 61.4798 24.5734H63.9055C64.3502 24.5734 64.6083 24.3512 64.6784 23.9056L66.1199 14.7306C66.143 14.5898 66.108 14.4612 66.0144 14.3439C65.9201 14.2269 65.8032 14.1682 65.6627 14.1682ZM61.0753 21.0936C60.4777 21.6796 59.757 21.9724 58.9134 21.9724C58.2335 21.9724 57.6832 21.7852 57.2612 21.41C56.8391 21.0358 56.6282 20.5202 56.6282 19.8633C56.6282 18.9968 56.9212 18.2638 57.5074 17.6663C58.0924 17.0686 58.8196 16.7699 59.6867 16.7699C60.3423 16.7699 60.8873 16.9632 61.3213 17.3497C61.7544 17.7365 61.9719 18.2697 61.9719 18.9495C61.9717 19.7931 61.6729 20.5081 61.0753 21.0936Z" fill="#009CDE"/>
<path d="M25.7256 14.1682H23.0539C22.7253 14.1682 22.5265 14.555 22.4562 15.3285C21.8234 14.3913 20.7101 13.9221 19.1166 13.9221C17.4292 13.9221 15.9936 14.555 14.8103 15.8205C13.6267 17.086 13.0352 18.5746 13.0352 20.2852C13.0352 21.6682 13.4395 22.7695 14.248 23.5895C15.0566 24.4102 16.1402 24.8198 17.4996 24.8198C18.1555 24.8198 18.8355 24.679 19.5384 24.398C20.2415 24.1168 20.8039 23.742 21.2258 23.2731C21.1318 23.5541 21.0851 23.8003 21.0851 24.011C21.0851 24.3864 21.2374 24.5734 21.5421 24.5734H23.9676C24.4126 24.5734 24.6707 24.3512 24.741 23.9056L26.1822 14.7306C26.2053 14.5898 26.1703 14.4612 26.0768 14.3439C25.983 14.2269 25.866 14.1682 25.7256 14.1682ZM21.1381 21.111C20.5404 21.6859 19.8077 21.9724 18.9411 21.9724C18.2611 21.9724 17.7162 21.7852 17.3064 21.41C16.8961 21.0358 16.6912 20.5202 16.6912 19.8633C16.6912 18.9968 16.984 18.2638 17.5701 17.6663C18.1556 17.0686 18.8821 16.7698 19.7496 16.7698C20.4054 16.7698 20.9503 16.9632 21.3843 17.3497C21.8175 17.7365 22.0345 18.2697 22.0345 18.9495C22.0344 19.8166 21.7357 20.5375 21.1381 21.111Z" fill="#003087"/>
<path d="M52.4611 9.93136C51.5588 9.31095 50.3815 9 48.9283 9H43.3389C42.8701 9 42.6121 9.22274 42.5656 9.66779L40.2806 24.0099C40.2569 24.1508 40.2921 24.2796 40.3861 24.3967C40.4791 24.5141 40.5968 24.5724 40.7375 24.5724H43.6199C43.9011 24.5724 44.0885 24.4202 44.1825 24.1155L44.8152 20.038C44.8386 19.8506 44.9205 19.6982 45.0614 19.5809C45.202 19.4638 45.3776 19.3872 45.5888 19.3522C45.7995 19.3173 45.9983 19.2997 46.1863 19.2997C46.3737 19.2997 46.5961 19.3117 46.8541 19.335C47.1117 19.3583 47.2763 19.3698 47.3462 19.3698C49.3619 19.3698 50.9434 18.8019 52.0919 17.6649C53.2403 16.5285 53.8144 14.9527 53.8144 12.9368C53.8145 11.5541 53.3632 10.5523 52.4611 9.93103V9.93136ZM48.8581 15.7141C48.3424 16.0655 47.5689 16.2412 46.5381 16.2412L45.413 16.2765L46.0106 12.5149C46.057 12.2575 46.2094 12.1283 46.4675 12.1283H47.1C47.6157 12.1283 48.0257 12.1519 48.3308 12.1986C48.6349 12.2457 48.9284 12.3919 49.2095 12.6379C49.4909 12.884 49.6314 13.2416 49.6314 13.7101C49.6314 14.6947 49.3733 15.3623 48.8581 15.7141Z" fill="#009CDE"/>
</svg>
