<svg width="70" height="49" viewBox="0 0 70 49" fill="none" xmlns="http://www.w3.org/2000/svg">
<rect y="0.994141" width="70" height="48" rx="6" fill="#F884A1"/>
<path fill-rule="evenodd" clip-rule="evenodd" d="M40.7322 19.8653L42.6672 10.2303C42.9 9.14943 42.2597 8.0602 41.1872 7.74425C39.9898 7.44492 38.7842 8.14335 38.4766 9.32403L36.7234 15.3266L35.3413 9.4155C35.2332 8.86673 34.9006 8.37616 34.4267 8.06021C33.9528 7.74425 33.3624 7.63616 32.8053 7.75256C31.7078 7.98537 30.9927 9.26583 31.2671 10.4299L32.0826 17.1256C31.3742 16.4195 30.5469 16.2019 29.5881 16.7574L29.4634 16.8405C28.5897 17.4355 28.4119 18.6514 28.9733 19.7589C28.5086 19.785 28.0543 19.9788 27.7089 20.3327L27.6257 20.4241C26.8192 21.2556 26.9772 22.6608 27.9832 23.6668L28.8006 24.4815C28.8925 28.2467 31.9553 30.8839 35.5666 30.8839C35.6093 30.8839 35.6506 30.8781 35.6896 30.8671C40.5812 30.8182 42.7311 27.9048 43.0995 23.4839C43.2159 22.087 42.9581 21.1309 42.4177 20.5571C42.1184 20.2412 41.8024 20.0915 41.5613 20.0583L40.7322 19.8653ZM39.8566 19.6615L41.7858 10.0474C41.9188 9.4155 41.5447 8.7919 40.946 8.60897C40.2476 8.43436 39.5325 8.85841 39.3413 9.56516L37.1047 17.2313C37.0381 17.4724 36.7887 17.6054 36.5476 17.5389C36.3561 17.4861 36.2328 17.3179 36.2234 17.1302L34.46 9.59842C34.3934 9.27415 34.2022 8.99145 33.9278 8.80853C33.6534 8.6256 33.3125 8.5674 32.9883 8.63392C32.4062 8.75864 31.9739 9.54022 32.1485 10.2386L32.1568 10.2885L33.1646 18.5966L33.7985 19.5426C34.0753 19.1583 34.4745 18.9189 34.9511 18.8111C35.3502 18.7279 35.7576 18.7362 36.1484 18.8027C36.2459 18.8167 36.32 18.8364 36.3611 18.8474C36.3691 18.8495 36.3758 18.8513 36.3812 18.8526L39.8566 19.6615ZM33.4 20.5635L32.4075 19.0823C32.3737 19.0465 32.3458 19.0052 32.3254 18.9598L31.858 18.2623C31.2843 17.4225 30.7272 17.1315 30.062 17.514L29.9706 17.5805C29.4551 17.938 29.3886 18.7861 29.9207 19.601L31.883 22.5194C32.2322 23.0349 32.9306 23.168 33.4461 22.8187L33.5459 22.7605C33.6838 22.6704 33.7979 22.5464 33.8798 22.4038C33.387 21.8991 33.265 21.2751 33.4 20.5635ZM34.7875 22.0174C34.7362 21.939 34.6596 21.8764 34.5652 21.8416C34.1903 21.4809 34.1755 21.0306 34.3525 20.4407C34.4855 20.0084 34.7432 19.7839 35.1507 19.6924C35.4167 19.6342 35.7078 19.6425 35.9904 19.6924C36.0222 19.6988 36.0503 19.7039 36.0743 19.7083C36.1132 19.7154 36.1413 19.7205 36.1567 19.7257L41.395 20.9479L41.4948 20.9812C41.5779 21.0144 41.6694 21.081 41.7608 21.1724C42.11 21.5466 42.3096 22.2533 42.2098 23.4174C41.8689 27.4916 39.9732 30.0192 35.4666 29.9777C35.4414 29.9777 35.4166 29.9797 35.3925 29.9836C32.661 29.9108 30.3506 28.1274 29.8139 25.4914L30.486 26.1612C31.2925 26.9345 32.5646 26.9179 33.3462 26.1197L33.4377 26.0282C34.058 25.3809 34.1643 24.4275 33.7612 23.6733C33.8208 23.6412 33.8794 23.6058 33.9367 23.5671L34.0365 23.5005C34.2624 23.3467 34.4523 23.1483 34.5979 22.92C34.9014 23.0782 35.2664 23.2169 35.6994 23.3342L36.955 23.6253C36.0237 24.1491 35.4417 25.1219 35.3752 26.6102C35.3585 26.8597 35.5498 27.0675 35.7992 27.0842C36.0487 27.0925 36.2565 26.9095 36.2731 26.6601C36.3397 25.3131 36.8635 24.5898 37.7033 24.2738C38.1523 24.1075 38.6428 24.0742 39.0752 24.1158L39.1833 24.1324C39.757 24.2405 39.9399 23.3841 39.3662 23.2511L35.9156 22.4778C35.4176 22.3418 35.0496 22.1907 34.7875 22.0174ZM28.3574 20.9646C28.7025 20.6034 29.2645 20.5599 29.6696 20.8414L31.1346 23.0266C31.5365 23.6136 32.1873 23.9248 32.8452 23.9131C33.2041 24.3486 33.1849 24.9928 32.7808 25.4046L32.6977 25.4961C32.2653 25.9367 31.5586 25.9451 31.1179 25.5127L28.6235 23.0432C27.9334 22.3531 27.8419 21.505 28.2743 21.056L28.3574 20.9646ZM25.0315 39.3233C25.0315 40.7119 23.9506 41.6598 22.5371 41.6598C21.5477 41.6598 20.6996 41.2108 20.1758 40.4957L21.1486 39.5229C21.4396 39.897 21.9219 40.3045 22.5538 40.3045C23.1441 40.3045 23.5515 39.9552 23.5515 39.3899C23.5515 38.7912 23.0693 38.6415 22.3127 38.4254C20.9241 38.0179 20.3587 37.2946 20.3587 36.355C20.3587 35.1743 21.2567 34.1599 22.6702 34.1599C23.5598 34.1599 24.383 34.5757 24.7488 35.3822L23.5765 36.1222C23.352 35.7563 23.0443 35.5152 22.6286 35.5152C22.138 35.5152 21.8304 35.8478 21.8304 36.2719C21.8304 36.779 22.2794 36.937 22.9945 37.1449C24.1169 37.4775 25.0315 38.0346 25.0315 39.3233ZM25.5385 39.0074C25.5385 40.4625 26.7524 41.6598 28.2491 41.6598C29.7457 41.6598 30.9596 40.4625 30.9596 39.0074C30.9596 37.5523 29.7457 36.355 28.2491 36.355C26.7524 36.355 25.5385 37.5523 25.5385 39.0074ZM28.2487 40.3294C28.9721 40.3294 29.5458 39.7557 29.5458 39.0074C29.5458 38.2591 28.9721 37.6854 28.2487 37.6854C27.517 37.6854 26.9516 38.2591 26.9516 39.0074C26.9516 39.764 27.5253 40.3294 28.2487 40.3294ZM34.4601 34.2514V35.5818C33.6702 35.5485 33.0965 35.9476 33.0965 36.829V37.3694C33.4124 37.0368 33.8614 36.8705 34.4185 36.8705V38.2175C33.6369 38.2341 33.0965 38.733 33.0965 39.4315V41.5268H31.683V36.7458C31.683 35.3988 32.5311 34.2514 34.2522 34.2514H34.4601ZM37.5448 41.6598C36.0482 41.6598 34.8343 40.4625 34.8343 39.0074C34.8343 37.5523 36.0482 36.355 37.5448 36.355C39.0415 36.355 40.2554 37.5523 40.2554 39.0074C40.2554 40.4625 39.0415 41.6598 37.5448 41.6598ZM38.8418 39.0074C38.8418 39.7557 38.2764 40.3294 37.5447 40.3294C36.8213 40.3294 36.2476 39.764 36.2476 39.0074C36.2476 38.2591 36.8213 37.6854 37.5447 37.6854C38.2681 37.6854 38.8418 38.2591 38.8418 39.0074ZM42.3922 37.0701V36.4964H41.0203V41.5267H42.4338V39.2319C42.4338 38.4004 42.9244 37.9348 43.7725 37.9348V36.4215C43.1322 36.3966 42.6749 36.6128 42.3922 37.0701ZM46.0009 37.727V38.9575C46.0009 39.8389 46.5746 40.2297 47.3645 40.2047V41.5351H47.1566C45.4272 41.5351 44.5874 40.3877 44.5874 39.0407V34.8833H46.0009V35.6732C46.0009 36.355 46.558 36.8706 47.3229 36.8872V38.2258C46.7575 38.2258 46.3169 38.0595 46.0009 37.727ZM49.0524 41.6099C49.5679 41.6099 50.0003 41.1859 50.0003 40.662C50.0003 40.1465 49.5762 39.7142 49.0524 39.7142C48.5286 39.7142 48.1045 40.1382 48.1045 40.662C48.1045 41.1859 48.5286 41.6099 49.0524 41.6099Z" fill="white"/>
</svg>
