<svg width="49" height="16" viewBox="0 0 49 16" fill="none" xmlns="http://www.w3.org/2000/svg">
<path fill-rule="evenodd" clip-rule="evenodd" d="M12.2505 15.6915H8.00987L4.82991 3.55979C4.67897 3.00173 4.3585 2.50838 3.88708 2.27585C2.71062 1.69151 1.41424 1.22646 0 0.991908V0.524836H6.83134C7.77417 0.524836 8.48129 1.22646 8.59914 2.0413L10.2491 10.7923L14.4877 0.524836H18.6104L12.2505 15.6915ZM20.9675 15.6915H16.9626L20.2604 0.524836H24.2653L20.9675 15.6915ZM29.4467 4.72648C29.5646 3.9096 30.2717 3.44253 31.0967 3.44253C32.3931 3.32526 33.8052 3.55981 34.9838 4.14213L35.6909 0.876668C34.5123 0.409596 33.216 0.175049 32.0395 0.175049C28.1524 0.175049 25.3239 2.27586 25.3239 5.19153C25.3239 7.40961 27.3274 8.57426 28.7417 9.27588C30.2717 9.97548 30.861 10.4426 30.7431 11.1421C30.7431 12.1915 29.5646 12.6586 28.3881 12.6586C26.9739 12.6586 25.5596 12.3088 24.2653 11.7245L23.5582 14.992C24.9724 15.5743 26.5025 15.8088 27.9167 15.8088C32.2752 15.9241 34.9838 13.8253 34.9838 10.6751C34.9838 6.70799 29.4467 6.47547 29.4467 4.72648ZM49 15.6915L45.82 0.524836H42.4044C41.6972 0.524836 40.9901 0.991908 40.7544 1.69151L34.8659 15.6915H38.9887L39.8116 13.4755H44.8772L45.3486 15.6915H49ZM42.9936 4.60921L44.1701 10.3253H40.8723L42.9936 4.60921Z" fill="#172B85"/>
</svg>
