<svg width="52" height="52" viewBox="0 0 52 52" fill="none" xmlns="http://www.w3.org/2000/svg">
<circle cx="26" cy="26" r="26" fill="#F4F4F4"/>
<g opacity="0.4">
<path fill-rule="evenodd" clip-rule="evenodd" d="M18.4645 29.4645C19.4021 28.5268 20.6739 28 22 28H30C31.3261 28 32.5979 28.5268 33.5355 29.4645C34.4732 30.4021 35 31.6739 35 33V35C35 35.5523 34.5523 36 34 36C33.4477 36 33 35.5523 33 35V33C33 32.2044 32.6839 31.4413 32.1213 30.8787C31.5587 30.3161 30.7956 30 30 30H22C21.2044 30 20.4413 30.3161 19.8787 30.8787C19.3161 31.4413 19 32.2044 19 33V35C19 35.5523 18.5523 36 18 36C17.4477 36 17 35.5523 17 35V33C17 31.6739 17.5268 30.4021 18.4645 29.4645Z" fill="#244875"/>
<path fill-rule="evenodd" clip-rule="evenodd" d="M26 18C24.3431 18 23 19.3431 23 21C23 22.6569 24.3431 24 26 24C27.6569 24 29 22.6569 29 21C29 19.3431 27.6569 18 26 18ZM21 21C21 18.2386 23.2386 16 26 16C28.7614 16 31 18.2386 31 21C31 23.7614 28.7614 26 26 26C23.2386 26 21 23.7614 21 21Z" fill="#244875"/>
</g>
</svg>
