<svg width="60" height="60" viewBox="0 0 60 60" fill="none" xmlns="http://www.w3.org/2000/svg">
<circle cx="30" cy="30" r="30" fill="#4FBA5D"/>
<path d="M42 27.332C42 36.6654 30 44.6654 30 44.6654C30 44.6654 18 36.6654 18 27.332C18 24.1494 19.2643 21.0972 21.5147 18.8467C23.7652 16.5963 26.8174 15.332 30 15.332C33.1826 15.332 36.2348 16.5963 38.4853 18.8467C40.7357 21.0972 42 24.1494 42 27.332Z" stroke="white" stroke-width="2" stroke-linecap="round" stroke-linejoin="round"/>
<path d="M30 31.332C32.2091 31.332 34 29.5412 34 27.332C34 25.1229 32.2091 23.332 30 23.332C27.7909 23.332 26 25.1229 26 27.332C26 29.5412 27.7909 31.332 30 31.332Z" stroke="white" stroke-width="2" stroke-linecap="round" stroke-linejoin="round"/>
</svg>
