<svg width="60" height="60" viewBox="0 0 60 60" fill="none" xmlns="http://www.w3.org/2000/svg">
<circle cx="30" cy="30" r="30" fill="#244875"/>
<path d="M30 14C21.1643 14 14 21.1643 14 30C14 38.8357 21.1643 46 30 46C38.8357 46 46 38.8357 46 30C46 21.1643 38.8357 14 30 14ZM30 43.2857C22.6643 43.2857 16.7143 37.3357 16.7143 30C16.7143 22.6643 22.6643 16.7143 30 16.7143C37.3357 16.7143 43.2857 22.6643 43.2857 30C43.2857 37.3357 37.3357 43.2857 30 43.2857Z" fill="white"/>
<path d="M28.5716 37.856C28.5716 38.2349 28.7221 38.5983 28.99 38.8662C29.2579 39.1341 29.6213 39.2846 30.0002 39.2846C30.3791 39.2846 30.7424 39.1341 31.0103 38.8662C31.2782 38.5983 31.4287 38.2349 31.4287 37.856C31.4287 37.4771 31.2782 37.1138 31.0103 36.8459C30.7424 36.578 30.3791 36.4275 30.0002 36.4275C29.6213 36.4275 29.2579 36.578 28.99 36.8459C28.7221 37.1138 28.5716 37.4771 28.5716 37.856ZM33.9859 23.0239C32.9145 22.0882 31.5002 21.5703 30.0002 21.5703C28.5002 21.5703 27.0859 22.0846 26.0145 23.0239C24.9002 23.9989 24.2859 25.3096 24.2859 26.7132V26.9846C24.2859 27.1417 24.4145 27.2703 24.5716 27.2703H26.2859C26.443 27.2703 26.5716 27.1417 26.5716 26.9846V26.7132C26.5716 25.1382 28.1109 23.856 30.0002 23.856C31.8895 23.856 33.4287 25.1382 33.4287 26.7132C33.4287 27.8239 32.643 28.8417 31.4287 29.3096C30.6716 29.5989 30.0287 30.106 29.568 30.7703C29.0966 31.4489 28.8573 32.2632 28.8573 33.0882V33.856C28.8573 34.0132 28.9859 34.1417 29.143 34.1417H30.8573C31.0145 34.1417 31.143 34.0132 31.143 33.856V33.0453C31.1449 32.6986 31.2512 32.3605 31.448 32.0751C31.6449 31.7897 31.9232 31.5702 32.2466 31.4453C34.3537 30.6346 35.7145 28.7775 35.7145 26.7132C35.7145 25.3096 35.1002 23.9989 33.9859 23.0239Z" fill="white"/>
</svg>
