<svg width="60" height="60" viewBox="0 0 60 60" fill="none" xmlns="http://www.w3.org/2000/svg">
<circle cx="30" cy="30" r="30" fill="#2CC84D"/>
<path fill-rule="evenodd" clip-rule="evenodd" d="M19.9526 34.6191C21.2029 33.3689 22.8986 32.6665 24.6667 32.6665H35.3333C37.1014 32.6665 38.7971 33.3689 40.0474 34.6191C41.2976 35.8694 42 37.5651 42 39.3332V41.9998C42 42.7362 41.403 43.3332 40.6667 43.3332C39.9303 43.3332 39.3333 42.7362 39.3333 41.9998V39.3332C39.3333 38.2723 38.9119 37.2549 38.1618 36.5047C37.4116 35.7546 36.3942 35.3332 35.3333 35.3332H24.6667C23.6058 35.3332 22.5884 35.7546 21.8382 36.5047C21.0881 37.2549 20.6667 38.2723 20.6667 39.3332V41.9998C20.6667 42.7362 20.0697 43.3332 19.3333 43.3332C18.597 43.3332 18 42.7362 18 41.9998V39.3332C18 37.5651 18.7024 35.8694 19.9526 34.6191Z" fill="white"/>
<path fill-rule="evenodd" clip-rule="evenodd" d="M30 19.3332C27.7909 19.3332 26 21.124 26 23.3332C26 25.5423 27.7909 27.3332 30 27.3332C32.2091 27.3332 34 25.5423 34 23.3332C34 21.124 32.2091 19.3332 30 19.3332ZM23.3333 23.3332C23.3333 19.6513 26.3181 16.6665 30 16.6665C33.6819 16.6665 36.6667 19.6513 36.6667 23.3332C36.6667 27.0151 33.6819 29.9998 30 29.9998C26.3181 29.9998 23.3333 27.0151 23.3333 23.3332Z" fill="white"/>
</svg>
