<svg width="32" height="32" viewBox="0 0 32 32" fill="none" xmlns="http://www.w3.org/2000/svg">
<path d="M31 16C31 24.2843 24.2843 31 16 31C7.71573 31 1 24.2843 1 16C1 7.71573 7.71573 1 16 1C24.2843 1 31 7.71573 31 16Z" stroke="#FF103B" stroke-width="2"/>
<path d="M11.2194 18.752C11.6994 18.752 11.9394 18.956 11.9394 19.364C11.9394 19.788 11.6994 20 11.2194 20H7.16338C6.67538 20 6.43138 19.788 6.43138 19.364C6.43138 18.956 6.67538 18.752 7.16338 18.752H8.41138V13.28L7.25938 13.988C7.14738 14.052 7.04738 14.084 6.95938 14.084C6.79138 14.084 6.64738 14.012 6.52738 13.868C6.41538 13.724 6.35938 13.564 6.35938 13.388C6.35938 13.156 6.46338 12.976 6.67138 12.848L8.53138 11.696C8.77138 11.552 8.99938 11.48 9.21538 11.48C9.43938 11.48 9.61938 11.548 9.75538 11.684C9.89138 11.82 9.95938 12.008 9.95938 12.248V18.752H11.2194Z" fill="#FF103B"/>
<path d="M17.6227 15.656C18.1187 15.792 18.4987 16.04 18.7627 16.4C19.0347 16.76 19.1707 17.2 19.1707 17.72C19.1707 18.464 18.8907 19.048 18.3307 19.472C17.7707 19.888 16.9947 20.096 16.0027 20.096C15.0107 20.096 14.2347 19.888 13.6747 19.472C13.1147 19.048 12.8347 18.464 12.8347 17.72C12.8347 17.2 12.9707 16.76 13.2427 16.4C13.5147 16.032 13.8987 15.784 14.3947 15.656C13.9707 15.496 13.6387 15.248 13.3987 14.912C13.1587 14.568 13.0387 14.168 13.0387 13.712C13.0387 13.008 13.3027 12.452 13.8307 12.044C14.3587 11.636 15.0827 11.432 16.0027 11.432C16.9227 11.432 17.6467 11.636 18.1747 12.044C18.7027 12.452 18.9667 13.008 18.9667 13.712C18.9667 14.176 18.8467 14.58 18.6067 14.924C18.3667 15.268 18.0387 15.512 17.6227 15.656ZM16.0027 12.644C15.0027 12.644 14.5027 13.052 14.5027 13.868C14.5027 14.276 14.6267 14.588 14.8747 14.804C15.1307 15.012 15.5067 15.116 16.0027 15.116C16.4987 15.116 16.8707 15.012 17.1187 14.804C17.3747 14.588 17.5027 14.276 17.5027 13.868C17.5027 13.052 17.0027 12.644 16.0027 12.644ZM16.0027 18.884C17.1467 18.884 17.7187 18.456 17.7187 17.6C17.7187 16.744 17.1467 16.316 16.0027 16.316C14.8587 16.316 14.2867 16.744 14.2867 17.6C14.2867 18.456 14.8587 18.884 16.0027 18.884Z" fill="#FF103B"/>
<path d="M25.598 16.04C25.75 16.04 25.874 16.092 25.97 16.196C26.074 16.292 26.126 16.416 26.126 16.568C26.126 16.72 26.074 16.848 25.97 16.952C25.874 17.048 25.75 17.096 25.598 17.096H23.726V18.956C23.726 19.108 23.674 19.236 23.57 19.34C23.474 19.444 23.35 19.496 23.198 19.496C23.046 19.496 22.918 19.444 22.814 19.34C22.718 19.236 22.67 19.108 22.67 18.956V17.096H20.798C20.646 17.096 20.518 17.048 20.414 16.952C20.318 16.848 20.27 16.72 20.27 16.568C20.27 16.416 20.318 16.292 20.414 16.196C20.518 16.092 20.646 16.04 20.798 16.04H22.67V14.168C22.67 14.016 22.718 13.892 22.814 13.796C22.918 13.692 23.046 13.64 23.198 13.64C23.35 13.64 23.474 13.692 23.57 13.796C23.674 13.892 23.726 14.016 23.726 14.168V16.04H25.598Z" fill="#FF103B"/>
</svg>
