<svg width="80" height="437" viewBox="0 0 80 437" fill="none" xmlns="http://www.w3.org/2000/svg">
<g opacity="0.6">
<path d="M40.675 288.8C45.4717 284.141 51.3971 281.858 58.4511 281.858C65.5051 281.858 71.523 284.234 76.5269 288.991C81.5309 293.748 83.9557 299.45 83.9557 306.013C83.9557 312.575 81.5088 317.805 76.5269 321.8H77.1838C80.8519 321.8 83.4839 324.474 83.4839 328.175C83.4839 331.978 80.8387 334.546 77.1838 334.546H23.4632C19.4204 334.546 16.6914 331.692 16.6914 327.604C16.6696 326.699 16.8299 325.799 17.1626 324.958C17.4952 324.117 17.9932 323.353 18.6264 322.713C19.2596 322.073 20.0148 321.569 20.8463 321.233C21.6777 320.896 22.568 320.734 23.4632 320.756H40.3928C35.7857 316.855 33.4314 311.719 33.4314 305.54C33.4314 298.978 35.8783 293.458 40.675 288.8ZM71.4304 308.487C71.4304 304.872 70.2048 301.827 67.7623 299.45C65.3443 297.067 62.1011 295.733 58.7244 295.733C55.3477 295.733 52.1046 297.067 49.6865 299.45C47.2396 301.827 46.0184 304.872 46.0184 308.487C45.9832 310.183 46.2921 311.868 46.926 313.439C47.5599 315.009 48.5054 316.431 49.7041 317.618C52.1517 319.943 55.3837 321.237 58.742 321.237C62.1003 321.237 65.3324 319.943 67.78 317.618C68.9715 316.428 69.9099 315.004 70.5376 313.434C71.1653 311.864 71.4692 310.18 71.4304 308.487Z" fill="#EAEDF2"/>
<path d="M39.8998 276.763C39.1035 276.79 38.3103 276.651 37.5692 276.355C36.828 276.06 36.1547 275.614 35.5907 275.045C35.0267 274.476 34.5841 273.796 34.2902 273.047C33.9963 272.298 33.8573 271.496 33.8818 270.691C33.8818 266.981 36.4213 264.507 39.8998 264.507L43.8676 264.413C36.9106 261.368 33.4277 256.803 33.4277 250.623C33.4277 246.437 36.3463 243.49 40.3891 243.49C44.6215 243.49 47.4431 246.437 47.4431 250.623C47.4431 258.229 52.2399 262.987 61.5511 262.987H76.5761C80.619 262.987 83.4406 265.742 83.4406 269.835C83.4406 273.928 80.619 276.777 76.5761 276.777L39.8998 276.763Z" fill="#EAEDF2"/>
<path d="M21.0309 241.041C16.5207 241.041 13.1348 237.617 13.1348 232.673C13.1348 227.823 16.5207 224.399 21.0309 224.399C25.6424 224.399 28.9314 227.823 28.9314 232.673C28.9314 237.617 25.6424 241.041 21.0309 241.041ZM40.8703 225.727H76.524C80.5669 225.727 83.4811 228.581 83.4811 232.673C83.4811 236.855 80.5669 239.708 76.524 239.708H40.9012C36.8539 239.708 33.9397 236.855 33.9397 232.673C33.9177 228.581 36.8319 225.727 40.9012 225.727H40.8703Z" fill="#EAEDF2"/>
<path d="M38.7888 177.19C42.2717 173.672 47.1654 171.96 53.3685 171.96H76.5938C80.6366 171.96 83.4582 174.813 83.4582 178.902C83.4582 182.99 80.6366 185.75 76.5938 185.75H57.7905C49.9826 185.75 46.0323 189.651 46.0323 195.353C46.0323 201.443 50.0752 205.723 58.2578 205.723H76.5938C80.6366 205.723 83.4582 208.479 83.4582 212.571C83.4582 216.664 80.641 219.513 76.5938 219.513H40.2966C36.6285 219.513 33.8995 216.838 33.8995 213.044C33.8995 209.335 36.6285 206.673 40.2966 206.673H41.9895C36.3463 203.249 33.4277 197.163 33.4277 190.409C33.4277 184.987 35.2177 180.614 38.7888 177.19Z" fill="#EAEDF2"/>
<path d="M40.3116 114.741H70.8771C79.4344 114.741 86.3076 117.215 91.3776 122.065C96.4476 126.916 98.9958 133.763 98.9958 142.608C98.9958 150.976 97.2323 158.016 93.6348 163.624C92.3122 165.906 90.5487 167.052 88.3708 167.052C85.0775 167.052 82.8203 164.863 82.8203 161.533C82.8203 160.583 83.195 159.344 83.8563 157.824C86.2988 153.072 87.5244 148.408 87.5244 143.75C87.5244 134.24 82.6307 128.628 73.8838 128.628H72.8522C76.82 132.145 78.7775 137.098 78.7775 143.371C78.7775 150.12 76.6143 155.827 72.2879 160.49C67.8792 165.149 62.5887 167.431 56.4166 167.431C49.9269 167.431 44.4719 165.149 40.0514 160.583C35.6427 155.92 33.4648 150.027 33.4648 142.894C33.4648 136.617 35.6295 131.481 39.8619 127.486C36.3834 127.201 33.9366 124.633 33.9366 121.116C33.9145 117.406 36.5465 114.741 40.3116 114.741ZM67.9585 140.896C67.9585 137.281 66.8343 134.24 64.6697 131.86C63.6502 130.682 62.3914 129.741 60.9792 129.101C59.5669 128.461 58.0347 128.137 56.4871 128.151C54.9509 128.127 53.4284 128.447 52.029 129.088C50.6295 129.729 49.3878 130.676 48.3927 131.86C46.1355 134.24 45.0068 137.281 45.0068 140.896C45.0068 144.512 46.1355 147.552 48.3927 150.027C49.406 151.18 50.653 152.1 52.0489 152.723C53.4448 153.346 54.957 153.658 56.4827 153.638C58.0206 153.649 59.5438 153.333 60.9534 152.711C62.363 152.089 63.6276 151.175 64.6652 150.027C66.8617 147.512 68.0379 144.251 67.9585 140.896Z" fill="#EAEDF2"/>
<path d="M58.898 110.379C51.7499 110.379 45.7245 107.811 40.8219 102.676C35.8356 97.5397 33.3887 91.1688 33.3887 83.5586C33.3887 75.9484 35.743 69.6756 40.5398 64.727C45.3321 59.6892 51.262 57.2148 58.4086 57.2148C61.7999 57.1536 65.1667 57.807 68.2947 59.1334C71.4227 60.4597 74.2434 62.4299 76.5773 64.9187C81.4682 70.0546 83.9136 76.4269 83.9136 84.0356C83.9136 91.6459 81.5637 97.9186 76.7669 102.961C71.9745 107.905 66.0491 110.379 58.898 110.379ZM67.7421 74.7134C65.324 72.3301 62.0808 70.9962 58.704 70.9962C55.3273 70.9962 52.0841 72.3301 49.666 74.7134C47.2191 77.0941 45.9979 80.1347 45.9979 83.7503C45.9541 85.4612 46.2587 87.1629 46.8928 88.7497C47.5268 90.3365 48.4768 91.7745 49.6836 92.9744C52.1298 95.3027 55.3624 96.5991 58.7217 96.5991C62.0809 96.5991 65.3136 95.3027 67.7597 92.9744C68.9634 91.773 69.9101 90.3343 70.5411 88.7476C71.1721 87.1608 71.4739 85.4599 71.4278 83.7503C71.4102 80.1347 70.1846 77.0941 67.7597 74.7134H67.7421Z" fill="#EAEDF2"/>
<path d="M58.898 53.1694C51.7499 53.1694 45.7245 50.6015 40.8219 45.4656C35.8356 40.3297 33.3887 33.9588 33.3887 26.3486C33.3887 18.7384 35.743 12.4612 40.5398 7.51701C45.3321 2.47474 51.262 0.004879 58.4086 0.004879C61.7999 -0.0563126 65.1667 0.597038 68.2947 1.92336C71.4227 3.24968 74.2434 5.21995 76.5773 7.70874C81.4682 12.8446 83.9136 19.217 83.9136 26.8257C83.9136 34.4315 81.5637 40.7087 76.7669 45.7509C71.9745 50.6951 66.0491 53.1694 58.898 53.1694ZM67.7421 17.5035C65.324 15.1201 62.0808 13.7863 58.704 13.7863C55.3273 13.7863 52.0841 15.1201 49.666 17.5035C47.2191 19.8797 45.9979 22.9247 45.9979 26.5404C45.9518 28.2499 46.2536 29.9509 46.8846 31.5376C47.5156 33.1243 48.4623 34.5631 49.666 35.7645C52.1121 38.0927 55.3448 39.3891 58.704 39.3891C62.0633 39.3891 65.2959 38.0927 67.7421 35.7645C68.9457 34.5631 69.8924 33.1243 70.5234 31.5376C71.1544 29.9509 71.4563 28.2499 71.4102 26.5404C71.4102 22.9247 70.1846 19.8797 67.7597 17.5035H67.7421Z" fill="#EAEDF2"/>
<path d="M46.8164 398.609C46.8164 400.952 47.5038 403.244 48.7916 405.192C50.0795 407.141 51.9099 408.66 54.0514 409.557C56.1929 410.453 58.5494 410.688 60.8226 410.23C63.0959 409.773 65.1839 408.644 66.8226 406.986C68.4613 405.328 69.577 403.216 70.0287 400.918C70.4803 398.619 70.2477 396.236 69.36 394.071C68.4724 391.906 66.9697 390.055 65.0421 388.754C63.1144 387.452 60.8483 386.758 58.5304 386.759C55.424 386.762 52.4459 388.012 50.2497 390.234C48.0535 392.455 46.8187 395.467 46.8164 398.609Z" fill="#EAEDF2"/>
<path d="M20.5756 397.403H19.5793C14.3865 397.403 9.40645 399.489 5.73463 403.202C2.06281 406.915 0 411.951 0 417.202C0 422.452 2.06281 427.488 5.73463 431.201C9.40645 434.914 14.3865 437 19.5793 437H58.5217C65.9793 437 73.2717 434.778 79.4886 430.613C85.7055 426.448 90.5715 420.524 93.4794 413.58C96.3873 406.636 97.2081 398.979 95.8395 391.566C94.4709 384.153 90.9735 377.312 85.7837 371.897C80.594 366.481 73.9418 362.731 66.6575 361.115C59.3732 359.499 51.7795 360.087 44.8242 362.808C37.8688 365.529 31.86 370.261 27.5476 376.413C23.2352 382.565 20.8103 389.866 20.5756 397.403ZM83.5766 398.611C83.5696 405.329 80.9277 411.769 76.2305 416.518C71.5333 421.268 65.1646 423.94 58.5217 423.947H19.5748C17.8057 423.947 16.1091 423.236 14.8581 421.971C13.6072 420.706 12.9044 418.991 12.9044 417.202C12.9044 415.413 13.6072 413.697 14.8581 412.432C16.1091 411.167 17.8057 410.457 19.5748 410.457H36.381C34.5953 407.057 33.5992 403.291 33.4684 399.444C33.3376 395.597 34.0756 391.77 35.6263 388.255C37.177 384.739 39.4996 381.628 42.4176 379.156C45.3357 376.684 48.7725 374.917 52.467 373.989C56.1614 373.062 60.0164 372.998 63.739 373.802C67.4617 374.606 70.954 376.258 73.9509 378.632C76.9477 381.005 79.3701 384.038 81.0342 387.5C82.6983 390.962 83.5603 394.762 83.5546 398.611H83.5766Z" fill="#EAEDF2"/>
</g>
</svg>
