<svg width="92" height="24" viewBox="0 0 92 24" fill="none" xmlns="http://www.w3.org/2000/svg">
<path d="M12.5745 7.70413C13.2049 8.3632 13.6984 9.14181 14.0261 9.99456C14.3539 10.8473 14.5094 11.7571 14.4836 12.6709C14.5204 14.5483 13.8148 16.3637 12.5216 17.719C11.933 18.377 11.2124 18.9021 10.4072 19.2598C9.60192 19.6174 8.73038 19.7995 7.85001 19.794C7.01412 19.8212 6.18387 19.6471 5.42861 19.2862C4.67335 18.9252 4.01501 18.3878 3.50859 17.719V17.9037C3.50859 18.371 3.32386 18.8191 2.99503 19.1496C2.66621 19.48 2.22023 19.6656 1.7552 19.6656C1.29017 19.6656 0.844191 19.48 0.515367 19.1496C0.186543 18.8191 0.0018122 18.371 0.0018122 17.9037V2.88134C-0.00950998 2.62752 0.0323176 2.37414 0.124591 2.13759C0.216864 1.90104 0.357527 1.68659 0.537479 1.50812C0.71743 1.32964 0.932662 1.19112 1.16925 1.10151C1.40584 1.0119 1.65851 0.973198 1.91092 0.987909C2.15857 0.984485 2.40437 1.03124 2.63364 1.12538C2.86292 1.21952 3.07097 1.35912 3.24538 1.53584C3.41978 1.71256 3.55696 1.92278 3.64874 2.15395C3.74051 2.38513 3.785 2.63251 3.77954 2.88134V7.62589C4.28381 7.00033 4.9243 6.49949 5.65163 6.16199C6.37896 5.82448 7.1737 5.65932 7.97459 5.67925C8.83989 5.6728 9.69682 5.84981 10.4894 6.19872C11.2821 6.54763 11.9925 7.0606 12.5745 7.70413ZM7.15862 16.2981C7.62205 16.3122 8.08326 16.2284 8.51243 16.0521C8.9416 15.8758 9.32918 15.611 9.65011 15.2747C10.3047 14.5992 10.671 13.6936 10.671 12.7507C10.671 11.8078 10.3047 10.9021 9.65011 10.2266C9.32918 9.89038 8.9416 9.62556 8.51243 9.44927C8.08326 9.27299 7.62205 9.18917 7.15862 9.20323C6.69296 9.19338 6.23019 9.27905 5.7986 9.45501C5.367 9.63097 4.97565 9.89353 4.64844 10.2266C4.01018 10.9106 3.65496 11.813 3.65496 12.7507C3.65496 13.6883 4.01018 14.5908 4.64844 15.2747C4.97565 15.6078 5.367 15.8704 5.7986 16.0464C6.23019 16.2223 6.69296 16.308 7.15862 16.2981Z" fill="#2CC84D"/>
<path d="M15.885 7.4944C15.885 7.04452 16.0628 6.61306 16.3794 6.29495C16.696 5.97684 17.1253 5.79813 17.573 5.79813C18.0207 5.79813 18.45 5.97684 18.7666 6.29495C19.0831 6.61306 19.261 7.04452 19.261 7.4944L19.2859 8.59916C20.1237 6.65252 21.3787 5.6792 23.0792 5.6792C23.3352 5.6792 23.5887 5.72988 23.8253 5.82833C24.0618 5.92679 24.2767 6.0711 24.4578 6.25302C24.6388 6.43495 24.7824 6.65092 24.8804 6.88862C24.9784 7.12632 25.0288 7.38108 25.0288 7.63836C25.0288 7.89564 24.9784 8.1504 24.8804 8.3881C24.7824 8.62579 24.6388 8.84177 24.4578 9.02369C24.2767 9.20562 24.0618 9.34993 23.8253 9.44839C23.5887 9.54684 23.3352 9.59752 23.0792 9.59752C20.9863 9.59752 19.6783 10.937 19.6783 13.5409V17.744C19.6928 17.9963 19.6547 18.2488 19.5664 18.4854C19.4782 18.7221 19.3417 18.9376 19.1659 19.1182C18.99 19.2988 18.7785 19.4404 18.5449 19.5342C18.3114 19.6279 18.061 19.6716 17.8097 19.6625C17.5558 19.6745 17.3022 19.6331 17.0651 19.541C16.8281 19.4488 16.6128 19.308 16.4331 19.1273C16.2534 18.9467 16.1132 18.7304 16.0215 18.4922C15.9298 18.254 15.8886 17.9991 15.9006 17.744L15.885 7.4944Z" fill="#2CC84D"/>
<path d="M25.7075 2.21155C25.7075 0.95969 26.6418 0.00201717 28.0121 0.00201717C28.3078 -0.0107401 28.6029 0.0371161 28.8795 0.14267C29.1562 0.248224 29.4085 0.409266 29.6212 0.615986C29.8339 0.822707 30.0025 1.07078 30.1168 1.34509C30.231 1.6194 30.2884 1.9142 30.2856 2.21155C30.2856 3.49783 29.3513 4.4023 28.0121 4.4023C26.673 4.4023 25.7075 3.49783 25.7075 2.21155ZM29.9213 7.75728V17.7189C29.9317 17.9793 29.8897 18.239 29.7977 18.4826C29.7058 18.7263 29.5658 18.9487 29.3862 19.1366C29.2066 19.3245 28.991 19.474 28.7525 19.5761C28.514 19.6782 28.2574 19.7309 27.9981 19.7309C27.7389 19.7309 27.4823 19.6782 27.2437 19.5761C27.0052 19.474 26.7897 19.3245 26.6101 19.1366C26.4305 18.9487 26.2905 18.7263 26.1986 18.4826C26.1066 18.239 26.0646 17.9793 26.075 17.7189V7.75728C26.0646 7.49695 26.1066 7.23719 26.1986 6.99358C26.2905 6.74997 26.4305 6.52755 26.6101 6.33965C26.7897 6.15175 27.0052 6.00225 27.2437 5.90013C27.4823 5.79801 27.7389 5.74537 27.9981 5.74537C28.2574 5.74537 28.514 5.79801 28.7525 5.90013C28.991 6.00225 29.2066 6.15175 29.3862 6.33965C29.5658 6.52755 29.7058 6.74997 29.7977 6.99358C29.8897 7.23719 29.9317 7.49695 29.9213 7.75728Z" fill="#2CC84D"/>
<path d="M43.2696 7.17841C44.2382 8.15173 44.7084 9.51938 44.7084 11.2469V17.7441C44.7204 17.9992 44.6793 18.2541 44.5876 18.4923C44.4959 18.7305 44.3557 18.9468 44.1759 19.1275C43.9962 19.3081 43.7809 19.449 43.5439 19.5411C43.3068 19.6332 43.0532 19.6746 42.7993 19.6626C42.548 19.6717 42.2976 19.628 42.0641 19.5343C41.8306 19.4405 41.6191 19.2989 41.4432 19.1183C41.2673 18.9377 41.1308 18.7222 41.0426 18.4855C40.9544 18.2489 40.9163 17.9964 40.9307 17.7441V12.4894C40.9307 10.2987 39.8594 9.20329 38.2897 9.20329C36.6173 9.20329 35.4401 10.3331 35.4401 12.6209V17.7441C35.4546 17.9964 35.4165 18.2489 35.3282 18.4855C35.24 18.7222 35.1035 18.9377 34.9276 19.1183C34.7517 19.2989 34.5403 19.4405 34.3067 19.5343C34.0732 19.628 33.8228 19.6717 33.5715 19.6626C33.3161 19.6773 33.0604 19.638 32.8211 19.547C32.5818 19.4561 32.3642 19.3156 32.1824 19.1347C32.0007 18.9538 31.8588 18.7365 31.7659 18.497C31.6731 18.2574 31.6315 18.0009 31.6437 17.7441V7.59778C31.6437 7.12715 31.8297 6.6758 32.1609 6.34301C32.492 6.01023 32.9412 5.82327 33.4095 5.82327C33.8779 5.82327 34.327 6.01023 34.6582 6.34301C34.9893 6.6758 35.1754 7.12715 35.1754 7.59778V8.07349C36.1097 6.50866 37.7914 5.6793 39.6476 5.6793C40.3225 5.65718 40.9945 5.77938 41.6189 6.03782C42.2433 6.29626 42.806 6.68503 43.2696 7.17841Z" fill="#2CC84D"/>
<path d="M60.4456 7.59761V16.1415C60.4456 18.5326 59.7636 20.4511 58.4306 21.8719C57.0977 23.2928 55.2135 24.0001 52.7812 24.0001C50.4796 24.0001 48.5456 23.4993 47.0009 22.501C46.7248 22.367 46.4912 22.1584 46.3262 21.8987C46.1612 21.6389 46.0713 21.3382 46.0666 21.0301C46.0509 20.824 46.079 20.6169 46.1491 20.4227C46.2192 20.2284 46.3296 20.0513 46.4731 19.9033C46.6166 19.7552 46.7898 19.6396 46.9812 19.5641C47.1727 19.4885 47.3779 19.4548 47.5833 19.4652C47.9381 19.4938 48.2841 19.5916 48.6017 19.7532C49.7902 20.4053 51.1189 20.7565 52.4728 20.7766C55.0889 20.7766 56.6336 19.412 56.6336 16.9678V16.7018C55.6651 17.8065 54.3041 18.3573 52.585 18.3573C50.8391 18.4001 49.147 17.7489 47.876 16.5453C47.2639 15.9806 46.7776 15.2921 46.4491 14.5251C46.1206 13.7581 45.9573 12.9299 45.9701 12.0949C45.9496 11.2438 46.1051 10.3977 46.4267 9.61016C46.7484 8.82257 47.2292 8.11063 47.8387 7.51937C49.1187 6.28629 50.7413 5.67913 52.7033 5.67913C53.4953 5.65589 54.2831 5.80336 55.0137 6.1116C55.7443 6.41984 56.4007 6.88172 56.9388 7.46616C56.9567 7.01428 57.1505 6.58753 57.4784 6.27786C57.8064 5.96819 58.2423 5.80037 58.6922 5.81058C58.9268 5.80252 59.1604 5.84342 59.3785 5.9307C59.5965 6.01799 59.7941 6.14976 59.9589 6.3177C60.1237 6.48563 60.252 6.68608 60.3358 6.90638C60.4195 7.12668 60.4569 7.36204 60.4456 7.59761ZM53.2514 15.3278C54.169 15.3557 55.0617 15.026 55.7429 14.4077C56.067 14.1227 56.326 13.7707 56.5023 13.3759C56.6785 12.9811 56.768 12.5527 56.7644 12.1199C56.7706 11.6909 56.6823 11.2658 56.5057 10.8751C56.329 10.4844 56.0686 10.1379 55.7429 9.86034C55.41 9.54607 55.0184 9.30126 54.5908 9.1401C54.1631 8.97894 53.7079 8.90462 53.2514 8.92145C52.3249 8.89375 51.4243 9.23063 50.7413 9.86034C50.4237 10.143 50.1705 10.4912 49.9991 10.8812C49.8276 11.2711 49.7419 11.6937 49.7478 12.1199C49.7445 12.55 49.8313 12.9759 50.0024 13.37C50.1736 13.7641 50.4253 14.1177 50.7413 14.4077C51.4328 15.0211 52.3293 15.3497 53.2514 15.3278Z" fill="#2CC84D"/>
<path d="M61.6445 12.8021C61.6263 11.8591 61.8054 10.9227 62.1702 10.0536C62.535 9.18453 63.0774 8.40215 63.7623 7.75714C64.4536 7.07304 65.2754 6.53635 66.1782 6.17925C67.081 5.82216 68.0463 5.65202 69.0162 5.67905C71.1091 5.67905 72.8375 6.33628 74.1954 7.6789C74.8721 8.31971 75.4063 9.09718 75.7627 9.96021C76.1191 10.8232 76.2897 11.7523 76.2633 12.6863C76.2797 13.6336 76.0996 14.5739 75.7344 15.4473C75.3693 16.3208 74.8271 17.1082 74.1425 17.7595C73.446 18.4355 72.6223 18.9651 71.7196 19.3171C70.8169 19.6691 69.8533 19.8365 68.8854 19.8094C66.7926 19.8094 65.0672 19.1522 63.6813 17.8127C63.0134 17.166 62.4873 16.3863 62.1365 15.5235C61.7858 14.6607 61.6182 13.7338 61.6445 12.8021ZM71.4517 15.2746C72.1063 14.599 72.4726 13.6934 72.4726 12.7505C72.4726 11.8076 72.1063 10.9019 71.4517 10.2264C71.1308 9.89003 70.7433 9.6251 70.3141 9.4488C69.8849 9.27251 69.4236 9.18878 68.9602 9.20304C68.4898 9.18931 68.0217 9.27309 67.585 9.44916C67.1483 9.62524 66.7524 9.88982 66.422 10.2264C65.7837 10.9104 65.4285 11.8128 65.4285 12.7505C65.4285 13.6881 65.7837 14.5906 66.422 15.2746C66.7524 15.6112 67.1483 15.8757 67.585 16.0518C68.0217 16.2279 68.4898 16.3117 68.9602 16.2979C69.4236 16.3122 69.8849 16.2285 70.3141 16.0522C70.7433 15.8759 71.1308 15.611 71.4517 15.2746Z" fill="#2CC84D"/>
<path d="M77.3753 12.8023C77.3569 11.8589 77.5362 10.9222 77.9016 10.053C78.267 9.18385 78.8103 8.40166 79.4962 7.7573C80.1877 7.07252 81.0099 6.53541 81.9134 6.17828C82.8168 5.82115 83.7828 5.65139 84.7532 5.67921C86.8461 5.67921 88.5715 6.33644 89.9324 7.67906C90.6088 8.32002 91.1424 9.09759 91.4983 9.96065C91.8542 10.8237 92.0242 11.7527 91.9973 12.6865C92.0117 13.6306 91.8312 14.5674 91.4673 15.4379C91.1033 16.3084 90.5637 17.0936 89.8826 17.744C89.186 18.4198 88.3622 18.9491 87.4596 19.3011C86.5569 19.6531 85.5934 19.8206 84.6256 19.7939C82.5327 19.7939 80.8073 19.1367 79.4183 17.7972C78.7517 17.1525 78.2259 16.3755 77.8742 15.5156C77.5224 14.6557 77.3526 13.7317 77.3753 12.8023ZM87.1856 15.2747C87.8387 14.5984 88.204 13.6931 88.204 12.7506C88.204 11.8082 87.8387 10.9029 87.1856 10.2266C86.8645 9.8905 86.4769 9.62578 86.0478 9.44951C85.6186 9.27323 85.1575 9.18933 84.6941 9.20319C84.2237 9.18947 83.7556 9.27325 83.3189 9.44932C82.8822 9.6254 82.4863 9.88998 82.1559 10.2266C81.5176 10.9105 81.1624 11.813 81.1624 12.7506C81.1624 13.6883 81.5176 14.5908 82.1559 15.2747C82.4863 15.6113 82.8822 15.8759 83.3189 16.052C83.7556 16.228 84.2237 16.3118 84.6941 16.2981C85.1575 16.312 85.6186 16.2281 86.0478 16.0518C86.4769 15.8755 86.8645 15.6108 87.1856 15.2747Z" fill="#2CC84D"/>
</svg>
