<svg width="132" height="583" viewBox="0 0 132 583" fill="none" xmlns="http://www.w3.org/2000/svg">
<path d="M54.2346 385.286C60.6303 379.071 68.5307 376.026 77.9361 376.026C87.3414 376.026 95.3653 379.196 102.037 385.542C108.709 391.888 111.942 399.495 111.942 408.25C111.942 417.006 108.68 423.982 102.037 429.311H102.913C107.804 429.311 111.313 432.88 111.313 437.817C111.313 442.89 107.786 446.316 102.913 446.316H31.2856C25.8952 446.316 22.2565 442.509 22.2565 437.055C22.2275 435.848 22.4412 434.646 22.8847 433.525C23.3282 432.403 23.9922 431.384 24.8365 430.53C25.6808 429.676 26.6877 429.004 27.7963 428.555C28.9049 428.107 30.092 427.89 31.2856 427.92H53.8584C47.7156 422.715 44.5765 415.864 44.5765 407.62C44.5765 398.865 47.839 391.502 54.2346 385.286ZM95.2419 411.551C95.2419 406.728 93.6077 402.666 90.3511 399.495C87.127 396.316 82.8028 394.536 78.3005 394.536C73.7982 394.536 69.4741 396.316 66.2499 399.495C62.9875 402.666 61.3592 406.728 61.3592 411.551C61.3122 413.814 61.7241 416.062 62.5693 418.157C63.4145 420.252 64.6752 422.15 66.2734 423.732C69.5369 426.835 73.8463 428.561 78.324 428.561C82.8018 428.561 87.1111 426.835 90.3746 423.732C91.9633 422.145 93.2145 420.245 94.0515 418.15C94.8884 416.056 95.2935 413.81 95.2419 411.551Z" fill="#EAEDF2"/>
<path d="M53.1997 369.229C52.138 369.264 51.0804 369.079 50.0922 368.685C49.104 368.29 48.2062 367.695 47.4543 366.936C46.7023 366.177 46.1121 365.27 45.7203 364.271C45.3284 363.272 45.1431 362.202 45.1758 361.128C45.1758 356.179 48.5617 352.878 53.1997 352.878L58.4902 352.753C49.2142 348.69 44.5703 342.599 44.5703 334.355C44.5703 328.77 48.4618 324.838 53.8522 324.838C59.4954 324.838 63.2575 328.77 63.2575 334.355C63.2575 344.503 69.6531 350.849 82.0682 350.849H102.102C107.492 350.849 111.254 354.525 111.254 359.985C111.254 365.446 107.492 369.247 102.102 369.247L53.1997 369.229Z" fill="#EAEDF2"/>
<path d="M28.0418 321.572C22.0283 321.572 17.5137 317.004 17.5137 310.408C17.5137 303.937 22.0283 299.369 28.0418 299.369C34.1906 299.369 38.5758 303.937 38.5758 310.408C38.5758 317.004 34.1906 321.572 28.0418 321.572ZM54.4944 301.142H102.033C107.423 301.142 111.309 304.948 111.309 310.408C111.309 315.987 107.423 319.793 102.033 319.793H54.5356C49.1392 319.793 45.2537 315.987 45.2537 310.408C45.2243 304.948 49.1099 301.142 54.5356 301.142H54.4944Z" fill="#EAEDF2"/>
<path d="M51.7184 236.388C56.3622 231.695 62.8872 229.411 71.158 229.411H102.125C107.515 229.411 111.278 233.218 111.278 238.672C111.278 244.126 107.515 247.808 102.125 247.808H77.054C66.6434 247.808 61.3765 253.012 61.3765 260.62C61.3765 268.745 66.7669 274.455 77.6771 274.455H102.125C107.515 274.455 111.278 278.13 111.278 283.591C111.278 289.051 107.521 292.852 102.125 292.852H53.7288C48.838 292.852 45.1993 289.283 45.1993 284.221C45.1993 279.272 48.838 275.722 53.7288 275.722H55.986C48.4618 271.154 44.5703 263.035 44.5703 254.024C44.5703 246.791 46.9569 240.956 51.7184 236.388Z" fill="#EAEDF2"/>
<path d="M53.7481 153.075H94.5022C105.912 153.075 115.076 156.376 121.836 162.847C128.596 169.318 131.994 178.453 131.994 190.253C131.994 201.417 129.642 210.808 124.846 218.29C123.082 221.335 120.731 222.864 117.827 222.864C113.436 222.864 110.426 219.943 110.426 215.501C110.426 214.234 110.926 212.58 111.808 210.552C115.064 204.212 116.699 197.991 116.699 191.776C116.699 179.089 110.174 171.601 98.5111 171.601H97.1356C102.426 176.294 105.036 182.902 105.036 191.27C105.036 200.275 102.152 207.888 96.3832 214.109C90.5049 220.324 83.451 223.369 75.2214 223.369C66.5686 223.369 59.2952 220.324 53.4013 214.234C47.523 208.013 44.6191 200.15 44.6191 190.634C44.6191 182.26 47.5054 175.408 53.1485 170.079C48.5106 169.698 45.2481 166.272 45.2481 161.58C45.2187 156.631 48.7281 153.075 53.7481 153.075ZM90.6107 187.969C90.6107 183.146 89.1118 179.089 86.2255 175.913C84.8663 174.343 83.1879 173.087 81.3049 172.233C79.4219 171.379 77.3789 170.947 75.3155 170.965C73.2672 170.933 71.2372 171.36 69.3713 172.216C67.5054 173.071 65.8497 174.334 64.523 175.913C61.5133 179.089 60.0085 183.146 60.0085 187.969C60.0085 192.793 61.5133 196.849 64.523 200.15C65.8741 201.689 67.5367 202.916 69.3979 203.747C71.2591 204.578 73.2753 204.994 75.3096 204.967C77.3602 204.982 79.3911 204.561 81.2705 203.731C83.15 202.902 84.8362 201.681 86.2197 200.15C89.1482 196.795 90.7166 192.444 90.6107 187.969Z" fill="#EAEDF2"/>
<path d="M78.532 147.257C69.0011 147.257 60.9673 143.831 54.4305 136.979C47.782 130.127 44.5195 121.628 44.5195 111.475C44.5195 101.323 47.6586 92.9541 54.0543 86.3522C60.4441 79.6312 68.3506 76.3302 77.8795 76.3302C82.4012 76.2486 86.8903 77.1203 91.0609 78.8897C95.2316 80.6591 98.9925 83.2876 102.104 86.6079C108.626 93.4597 111.886 101.961 111.886 112.112C111.886 122.265 108.753 130.633 102.357 137.36C95.9673 143.956 88.0668 147.257 78.532 147.257ZM90.3241 99.675C87.0999 96.4954 82.7757 94.7159 78.2733 94.7159C73.771 94.7159 69.4468 96.4954 66.2226 99.675C62.9601 102.851 61.3318 106.907 61.3318 111.731C61.2734 114.014 61.6796 116.284 62.525 118.401C63.3704 120.518 64.637 122.436 66.2461 124.037C69.5077 127.143 73.8178 128.873 78.2969 128.873C82.7759 128.873 87.0861 127.143 90.3476 124.037C91.9525 122.434 93.2147 120.515 94.0561 118.398C94.8974 116.281 95.2998 114.012 95.2384 111.731C95.2149 106.907 93.5807 102.851 90.3476 99.675H90.3241Z" fill="#EAEDF2"/>
<path d="M78.532 70.9331C69.0011 70.9331 60.9673 67.5072 54.4305 60.6555C47.782 53.8037 44.5195 45.3043 44.5195 35.1516C44.5195 24.9988 47.6586 16.6244 54.0543 10.0284C60.4441 3.30149 68.3506 0.00646973 77.8795 0.00646973C82.4012 -0.0751648 86.8903 0.796463 91.0609 2.56591C95.2316 4.33535 98.9925 6.96387 102.104 10.2842C108.626 17.1359 111.886 25.6372 111.886 35.788C111.886 45.9348 108.753 54.3092 102.357 61.0361C95.9673 67.6321 88.0668 70.9331 78.532 70.9331ZM90.3241 23.3513C87.0999 20.1716 82.7757 18.3921 78.2733 18.3921C73.771 18.3921 69.4468 20.1716 66.2226 23.3513C62.9601 26.5214 61.3318 30.5837 61.3318 35.4073C61.2704 37.6881 61.6728 39.9573 62.5141 42.0741C63.3555 44.191 64.6177 46.1104 66.2226 47.7132C69.4841 50.8193 73.7943 52.5488 78.2733 52.5488C82.7524 52.5488 87.0626 50.8193 90.3241 47.7132C91.929 46.1104 93.1912 44.191 94.0325 42.0741C94.8739 39.9573 95.2763 37.6881 95.2149 35.4073C95.2149 30.5837 93.5807 26.5214 90.3476 23.3513H90.3241Z" fill="#EAEDF2"/>
<path d="M62.4219 531.782C62.4219 534.909 63.3384 537.966 65.0555 540.566C66.7726 543.165 69.2132 545.192 72.0686 546.388C74.9239 547.584 78.0658 547.897 81.0969 547.287C84.1279 546.676 86.9119 545.17 89.0968 542.958C91.2817 540.747 92.7694 537.93 93.3716 534.863C93.9738 531.796 93.6635 528.617 92.48 525.728C91.2965 522.84 89.293 520.371 86.7228 518.635C84.1525 516.898 81.1311 515.972 78.0406 515.973C73.8987 515.978 69.9278 517.645 66.9996 520.609C64.0713 523.573 62.425 527.591 62.4219 531.782Z" fill="#EAEDF2"/>
<path d="M27.4342 530.174H26.1057C19.182 530.174 12.5419 532.957 7.64617 537.91C2.75041 542.864 0 549.582 0 556.587C0 563.592 2.75041 570.31 7.64617 575.264C12.5419 580.217 19.182 583 26.1057 583H78.029C87.9724 583 97.6956 580.036 105.985 574.48C114.274 568.923 120.762 561.019 124.639 551.755C128.516 542.491 129.611 532.277 127.786 522.387C125.961 512.497 121.298 503.371 114.378 496.146C107.459 488.921 98.5891 483.918 88.8767 481.762C79.1643 479.606 69.0394 480.391 59.7656 484.021C50.4918 487.65 42.4799 493.963 36.7301 502.171C30.9803 510.379 27.7471 520.119 27.4342 530.174ZM111.436 531.786C111.426 540.747 107.904 549.339 101.641 555.675C95.3777 562.012 86.8861 565.576 78.029 565.586H26.0998C23.741 565.586 21.4788 564.638 19.8108 562.95C18.1429 561.262 17.2059 558.974 17.2059 556.587C17.2059 554.2 18.1429 551.912 19.8108 550.224C21.4788 548.537 23.741 547.588 26.0998 547.588H48.508C46.127 543.053 44.7989 538.029 44.6245 532.896C44.4502 527.764 45.4341 522.659 47.5017 517.969C49.5693 513.279 52.6661 509.128 56.5569 505.83C60.4476 502.532 65.03 500.175 69.956 498.938C74.8819 497.7 80.0219 497.615 84.9854 498.688C89.9489 499.761 94.6054 501.964 98.6011 505.131C102.597 508.298 105.827 512.344 108.046 516.962C110.264 521.581 111.414 526.651 111.406 531.786H111.436Z" fill="#EAEDF2"/>
</svg>
