<svg width="16" height="16" viewBox="0 0 16 16" fill="none" xmlns="http://www.w3.org/2000/svg">
<path fill-rule="evenodd" clip-rule="evenodd" d="M8.00132 1.6665C8.2083 1.6665 8.40354 1.76264 8.52974 1.9267L11.5009 5.78927L14.325 4.09484C14.5455 3.96252 14.8225 3.96886 15.0368 4.11111C15.251 4.25337 15.3643 4.50619 15.328 4.76078L13.9946 14.0941C13.9477 14.4226 13.6664 14.6665 13.3347 14.6665H2.66799C2.33622 14.6665 2.05494 14.4226 2.00802 14.0941L0.674687 4.76078C0.638316 4.50619 0.751634 4.25337 0.965889 4.11111C1.18014 3.96886 1.45712 3.96252 1.67765 4.09484L4.50169 5.78927L7.4729 1.9267C7.5991 1.76264 7.79434 1.6665 8.00132 1.6665ZM8.00132 3.42658L5.1964 7.07298C4.99 7.3413 4.61527 7.41233 4.32499 7.23817L2.1927 5.95879L3.24618 13.3332H12.7565L13.8099 5.95879L11.6777 7.23817C11.3874 7.41233 11.0126 7.3413 10.8062 7.07298L8.00132 3.42658Z" fill="#FFD42C"/>
<path fill-rule="evenodd" clip-rule="evenodd" d="M8 10.6667C8.36819 10.6667 8.66667 10.3682 8.66667 10C8.66667 9.63181 8.36819 9.33333 8 9.33333C7.63181 9.33333 7.33333 9.63181 7.33333 10C7.33333 10.3682 7.63181 10.6667 8 10.6667ZM8 12C9.10457 12 10 11.1046 10 10C10 8.89543 9.10457 8 8 8C6.89543 8 6 8.89543 6 10C6 11.1046 6.89543 12 8 12Z" fill="#FFD42C"/>
</svg>
