<svg width="52" height="13" viewBox="0 0 52 13" fill="none" xmlns="http://www.w3.org/2000/svg">
<path d="M0.848 10C0.428 10 0.218 9.79 0.218 9.37V0.76C0.218 0.339999 0.428 0.129999 0.848 0.129999H3.55C5.146 0.129999 6.378 0.554666 7.246 1.404C8.114 2.244 8.548 3.462 8.548 5.058C8.548 6.654 8.114 7.87667 7.246 8.726C6.378 9.57533 5.146 10 3.55 10H0.848ZM1.366 9.02H3.466C6.042 9.02 7.33 7.69933 7.33 5.058C7.33 2.426 6.042 1.11 3.466 1.11H1.366V9.02ZM13.5206 10.126C12.4473 10.126 11.598 9.81333 10.9726 9.188C10.3473 8.55333 10.0346 7.69467 10.0346 6.612C10.0346 5.912 10.1746 5.296 10.4546 4.764C10.7346 4.22267 11.1173 3.80733 11.6026 3.518C12.0973 3.21933 12.6666 3.07 13.3106 3.07C14.2346 3.07 14.958 3.36867 15.4806 3.966C16.0033 4.554 16.2646 5.366 16.2646 6.402C16.2646 6.69133 16.1013 6.836 15.7746 6.836H11.1406C11.178 7.61067 11.402 8.20333 11.8126 8.614C12.2233 9.01533 12.7926 9.216 13.5206 9.216C13.8286 9.216 14.1413 9.17867 14.4586 9.104C14.776 9.02 15.084 8.87533 15.3826 8.67C15.5973 8.53 15.7746 8.502 15.9146 8.586C16.064 8.67 16.1386 8.80067 16.1386 8.978C16.148 9.146 16.0546 9.29533 15.8586 9.426C15.5506 9.65 15.182 9.82267 14.7526 9.944C14.3326 10.0653 13.922 10.126 13.5206 10.126ZM13.3386 3.91C12.6946 3.91 12.186 4.11067 11.8126 4.512C11.4393 4.91333 11.22 5.44067 11.1546 6.094H15.2846C15.2566 5.40333 15.0746 4.86667 14.7386 4.484C14.412 4.10133 13.9453 3.91 13.3386 3.91ZM19.9778 10.126C19.3058 10.126 18.7925 9.92533 18.4378 9.524C18.0831 9.11333 17.9058 8.52067 17.9058 7.746V0.606C17.9058 0.223333 18.0925 0.0319998 18.4658 0.0319998C18.8485 0.0319998 19.0398 0.223333 19.0398 0.606V7.662C19.0398 8.66067 19.4365 9.16 20.2298 9.16C20.3138 9.16 20.3885 9.15533 20.4538 9.146C20.5191 9.13667 20.5845 9.132 20.6498 9.132C20.7525 9.12267 20.8225 9.146 20.8598 9.202C20.9065 9.258 20.9298 9.37 20.9298 9.538C20.9298 9.85533 20.7711 10.0373 20.4538 10.084C20.3791 10.1027 20.2998 10.112 20.2158 10.112C20.1318 10.1213 20.0525 10.126 19.9778 10.126ZM22.6084 1.558C22.1137 1.558 21.8664 1.32467 21.8664 0.857999C21.8664 0.400666 22.1137 0.172 22.6084 0.172C23.103 0.172 23.3504 0.400666 23.3504 0.857999C23.3504 1.32467 23.103 1.558 22.6084 1.558ZM22.6084 10.07C22.235 10.07 22.0484 9.86467 22.0484 9.454V3.728C22.0484 3.32667 22.235 3.126 22.6084 3.126C22.991 3.126 23.1824 3.32667 23.1824 3.728V9.454C23.1824 9.86467 22.991 10.07 22.6084 10.07ZM27.8363 10.098C27.5096 10.098 27.2669 9.916 27.1083 9.552L24.6863 3.896C24.5929 3.68133 24.5883 3.49467 24.6723 3.336C24.7563 3.17733 24.9243 3.098 25.1763 3.098C25.4376 3.098 25.6289 3.24733 25.7503 3.546L27.8643 8.712L30.0063 3.546C30.0716 3.378 30.1463 3.26133 30.2303 3.196C30.3143 3.13067 30.4356 3.098 30.5943 3.098C30.8089 3.098 30.9536 3.17733 31.0283 3.336C31.1029 3.49467 31.0983 3.67667 31.0143 3.882L28.5643 9.552C28.4149 9.916 28.1723 10.098 27.8363 10.098ZM35.4777 10.126C34.4043 10.126 33.555 9.81333 32.9297 9.188C32.3043 8.55333 31.9917 7.69467 31.9917 6.612C31.9917 5.912 32.1317 5.296 32.4117 4.764C32.6917 4.22267 33.0743 3.80733 33.5597 3.518C34.0543 3.21933 34.6237 3.07 35.2677 3.07C36.1917 3.07 36.915 3.36867 37.4377 3.966C37.9603 4.554 38.2217 5.366 38.2217 6.402C38.2217 6.69133 38.0583 6.836 37.7317 6.836H33.0977C33.135 7.61067 33.359 8.20333 33.7697 8.614C34.1803 9.01533 34.7497 9.216 35.4777 9.216C35.7857 9.216 36.0983 9.17867 36.4157 9.104C36.733 9.02 37.041 8.87533 37.3397 8.67C37.5543 8.53 37.7317 8.502 37.8717 8.586C38.021 8.67 38.0957 8.80067 38.0957 8.978C38.105 9.146 38.0117 9.29533 37.8157 9.426C37.5077 9.65 37.139 9.82267 36.7097 9.944C36.2897 10.0653 35.879 10.126 35.4777 10.126ZM35.2957 3.91C34.6517 3.91 34.143 4.11067 33.7697 4.512C33.3963 4.91333 33.177 5.44067 33.1117 6.094H37.2417C37.2137 5.40333 37.0317 4.86667 36.6957 4.484C36.369 4.10133 35.9023 3.91 35.2957 3.91ZM40.4368 10.098C40.0542 10.098 39.8628 9.902 39.8628 9.51V3.672C39.8628 3.28933 40.0448 3.098 40.4088 3.098C40.7822 3.098 40.9688 3.28933 40.9688 3.672V4.414C41.1555 3.98467 41.4448 3.658 41.8368 3.434C42.2288 3.20067 42.6955 3.07467 43.2368 3.056C43.5355 3.028 43.6942 3.17733 43.7128 3.504C43.7408 3.83067 43.5728 4.01267 43.2088 4.05L42.9848 4.078C42.3408 4.134 41.8508 4.33933 41.5148 4.694C41.1788 5.03933 41.0108 5.51533 41.0108 6.122V9.51C41.0108 9.902 40.8195 10.098 40.4368 10.098ZM46.8162 12.618C46.6016 12.618 46.4569 12.534 46.3822 12.366C46.3076 12.2073 46.3122 12.0253 46.3962 11.82L47.2502 9.888L44.6742 3.896C44.5809 3.68133 44.5762 3.49467 44.6602 3.336C44.7536 3.17733 44.9262 3.098 45.1782 3.098C45.4396 3.098 45.6309 3.24733 45.7522 3.546L47.8662 8.712L49.9942 3.546C50.0689 3.378 50.1482 3.26133 50.2322 3.196C50.3162 3.13067 50.4376 3.098 50.5962 3.098C50.8109 3.098 50.9556 3.17733 51.0302 3.336C51.1049 3.49467 51.1002 3.67667 51.0162 3.882L47.4322 12.17C47.3576 12.338 47.2736 12.4547 47.1802 12.52C47.0962 12.5853 46.9749 12.618 46.8162 12.618Z" fill="#2CC84D"/>
</svg>
