<svg width="14" height="14" viewBox="0 0 14 14" fill="none" xmlns="http://www.w3.org/2000/svg">
<path fill-rule="evenodd" clip-rule="evenodd" d="M11.1974 2C10.9845 2 10.7803 2.08457 10.6298 2.23509L2.75276 10.1121L2.37439 11.6256L3.88789 11.2473L11.7649 3.37021C11.9155 3.21969 12 3.01553 12 2.80265C12 2.58978 11.9155 2.38562 11.7649 2.23509C11.6144 2.08457 11.4102 2 11.1974 2ZM9.21559 0.820878C9.74119 0.295279 10.4541 0 11.1974 0C11.9407 0 12.6535 0.295279 13.1791 0.820878C13.7047 1.34648 14 2.05934 14 2.80265C14 3.54596 13.7047 4.25883 13.1791 4.78443L5.10624 12.8573C4.97808 12.9855 4.8175 13.0764 4.64167 13.1204L1.24256 13.9701C0.901782 14.0553 0.541295 13.9555 0.292914 13.7071C0.0445341 13.4587 -0.055315 13.0982 0.0298787 12.7575L0.879658 9.35835C0.923616 9.18252 1.01453 9.02194 1.14269 8.89378L9.21559 0.820878Z" fill="#2B2D3A"/>
</svg>
