<svg width="24" height="22" viewBox="0 0 24 22" fill="none" xmlns="http://www.w3.org/2000/svg">
<path d="M23.01 4.88202C22.651 4.05069 22.1333 3.29735 21.4859 2.66417C20.8381 2.02909 20.0742 1.52441 19.2359 1.17756C18.3667 0.816468 17.4344 0.631641 16.4931 0.633808C15.1725 0.633808 13.8842 0.995415 12.7645 1.67845C12.4967 1.84184 12.2422 2.02131 12.0011 2.21684C11.76 2.02131 11.5056 1.84184 11.2377 1.67845C10.1181 0.995415 8.82969 0.633808 7.50915 0.633808C6.55826 0.633808 5.63683 0.815951 4.76629 1.17756C3.92522 1.52577 3.16719 2.02667 2.51629 2.66417C1.86807 3.29664 1.35025 4.05016 0.992187 4.88202C0.619866 5.7472 0.429688 6.66595 0.429688 7.61149C0.429688 8.50345 0.61183 9.43292 0.973438 10.3785C1.27612 11.1686 1.71004 11.9883 2.26451 12.816C3.14308 14.1258 4.35112 15.4918 5.85112 16.8767C8.33683 19.1722 10.7984 20.7579 10.9029 20.8222L11.5377 21.2293C11.819 21.4088 12.1806 21.4088 12.4618 21.2293L13.0967 20.8222C13.2011 20.7552 15.66 19.1722 18.1484 16.8767C19.6484 15.4918 20.8565 14.1258 21.735 12.816C22.2895 11.9883 22.7261 11.1686 23.0261 10.3785C23.3877 9.43292 23.5699 8.50345 23.5699 7.61149C23.5725 6.66595 23.3824 5.7472 23.01 4.88202ZM12.0011 19.1106C12.0011 19.1106 2.4654 13.0008 2.4654 7.61149C2.4654 4.88202 4.72344 2.66952 7.50915 2.66952C9.46719 2.66952 11.1654 3.76238 12.0011 5.35881C12.8368 3.76238 14.535 2.66952 16.4931 2.66952C19.2788 2.66952 21.5368 4.88202 21.5368 7.61149C21.5368 13.0008 12.0011 19.1106 12.0011 19.1106Z" fill="white"/>
</svg>
