<svg width="19" height="19" viewBox="0 0 19 19" fill="none" xmlns="http://www.w3.org/2000/svg">
<path fill-rule="evenodd" clip-rule="evenodd" d="M17.9239 1.0776C18.1729 1.32662 18.2385 1.70532 18.0878 2.02359L10.5878 17.8569C10.4371 18.175 10.1028 18.3641 9.75254 18.3295C9.40228 18.2948 9.11157 18.0438 9.0262 17.7023L7.48081 11.5207L1.29921 9.9753C0.95774 9.88994 0.706728 9.59923 0.672045 9.24897C0.637362 8.8987 0.826488 8.56442 1.14458 8.41374L16.9779 0.913738C17.2962 0.762976 17.6749 0.82857 17.9239 1.0776ZM3.96245 8.92315L8.3701 10.0251C8.66867 10.0997 8.9018 10.3328 8.97644 10.6314L10.0784 15.0391L15.5827 3.41884L3.96245 8.92315Z" fill="white"/>
</svg>
