<svg width="105" height="24" viewBox="0 0 105 24" fill="none" xmlns="http://www.w3.org/2000/svg">
<path d="M35.5158 9.86155C36.6323 11.0244 37.1793 12.4608 37.1793 14.1709C37.1793 15.881 36.6099 17.3399 35.4699 18.5529C34.3298 19.766 32.9633 20.3538 31.3906 20.3538C29.8179 20.3538 28.5647 19.7607 27.6073 18.5529V18.7122C27.6073 19.6014 26.9663 20.2395 26.0795 20.2395C25.1681 20.2395 24.5527 19.5982 24.5527 18.7122V5.68901C24.5527 4.70893 25.2365 4.04735 26.2163 4.04735C26.4332 4.04207 26.649 4.08093 26.8505 4.16157C27.052 4.2422 27.235 4.36293 27.3884 4.51644C27.5419 4.66994 27.6626 4.85302 27.7432 5.05458C27.8238 5.25614 27.8626 5.47198 27.8574 5.68901V9.79315C28.7922 8.67627 30.023 8.10553 31.5039 8.10553C33.0766 8.10553 34.3993 8.69871 35.5158 9.86155ZM30.7976 17.3174C31.6641 17.3174 32.3939 17.0203 32.9633 16.4282C33.5345 15.842 33.8542 15.0558 33.8542 14.2372C33.8542 13.4186 33.5345 12.6324 32.9633 12.0462C32.3939 11.453 31.6641 11.1569 30.7976 11.1569C30.3912 11.1484 29.9874 11.2233 29.6111 11.3769C29.2347 11.5306 28.8939 11.7598 28.6095 12.0504C28.0523 12.6438 27.7421 13.4273 27.7421 14.2414C27.7421 15.0556 28.0523 15.8391 28.6095 16.4325C28.8947 16.7213 29.236 16.9488 29.6122 17.101C29.9885 17.2532 30.3919 17.3268 30.7976 17.3174Z" fill="#2CC84D"/>
<path d="M38.3997 9.67347C38.3933 9.48044 38.4266 9.28815 38.4974 9.10847C38.5683 8.9288 38.6752 8.76557 38.8115 8.62885C38.9479 8.49213 39.1109 8.38483 39.2903 8.31357C39.4698 8.24232 39.662 8.20863 39.855 8.21458C40.7439 8.21458 41.3369 8.8302 41.3369 9.67347L41.3594 10.6354C42.0891 8.94883 43.1833 8.10449 44.6642 8.10449C45.6675 8.10449 46.3737 8.81203 46.3737 9.79211C46.3737 10.8181 45.6675 11.5022 44.6642 11.5022C42.8414 11.5022 41.7013 12.665 41.7013 14.9223V18.5647C41.7013 19.5448 41.041 20.2288 40.0601 20.2288C39.0792 20.2288 38.3965 19.5448 38.3965 18.5647L38.3997 9.67347Z" fill="#2CC84D"/>
<path d="M46.9609 5.0978C46.9609 4.00443 47.7815 3.18359 48.9663 3.18359C50.1287 3.18359 50.9493 4.00443 50.9493 5.0978C50.9493 6.21576 50.1287 7.01308 48.9663 7.01308C47.7815 7.01308 46.9609 6.21576 46.9609 5.0978ZM50.6309 9.90737V18.5507C50.6309 19.5308 49.9471 20.2372 48.9663 20.2372C47.9642 20.2372 47.2804 19.5308 47.2804 18.5507V9.91485C47.2804 8.9337 47.9642 8.22723 48.9663 8.22723C49.9471 8.22188 50.6309 8.92835 50.6309 9.91485V9.90737Z" fill="#2CC84D"/>
<path d="M62.2639 9.40316C63.1069 10.2475 63.5172 11.4339 63.5172 12.9376V18.568C63.5172 19.5481 62.8334 20.2321 61.8536 20.2321C60.8739 20.2321 60.2125 19.5481 60.2125 18.568V14.0096C60.2125 12.1168 59.2776 11.1592 57.911 11.1592C56.4515 11.1592 55.4258 12.1393 55.4258 14.1229V18.568C55.4258 19.5481 54.7655 20.2321 53.7847 20.2321C52.8038 20.2321 52.1211 19.5492 52.1211 18.568V9.76869C52.1211 8.87946 52.7622 8.21788 53.6714 8.21788C54.5604 8.21788 55.1982 8.87946 55.1982 9.76869V10.1791C56.0188 8.81105 57.4773 8.10352 59.096 8.10352C60.3952 8.10352 61.4434 8.53744 62.2639 9.40316Z" fill="#2CC84D"/>
<path d="M77.2289 9.77309V17.1829C77.2289 19.2574 76.6359 20.9236 75.4735 22.1527C74.3111 23.3818 72.6701 23.9996 70.5504 23.9996C68.545 23.9996 66.858 23.5721 65.514 22.6999C64.967 22.3793 64.6924 21.9518 64.6924 21.4238C64.6924 20.6254 65.217 20.0782 66.015 20.0782C66.2426 20.0782 66.5396 20.1691 66.9039 20.3294C68.0429 20.9215 69.1604 21.2186 70.2769 21.2186C72.5557 21.2186 73.9009 20.0323 73.9009 17.9118V17.6617C73.0579 18.6236 71.8709 19.0982 70.3677 19.0982C68.7501 19.0982 67.3826 18.5738 66.2651 17.5249C65.1486 16.4562 64.6016 15.1736 64.6016 13.6773C64.6016 12.1041 65.1486 10.7817 66.2426 9.71003C67.3602 8.64126 68.7726 8.11328 70.482 8.11328C71.9863 8.11328 73.2171 8.63805 74.1744 9.66408C74.2427 8.82081 74.8581 8.22764 75.7011 8.22764C76.59 8.2223 77.2289 8.86036 77.2289 9.77309ZM70.9606 16.4754C71.8271 16.4754 72.5557 16.2029 73.1263 15.6781C73.4085 15.431 73.634 15.1258 73.7874 14.7834C73.9408 14.4411 74.0185 14.0696 74.0152 13.6944C74.0209 13.322 73.9442 12.9529 73.7905 12.6137C73.6368 12.2744 73.41 11.9734 73.1263 11.7322C72.5557 11.1849 71.8271 10.9113 70.9606 10.9113C70.0942 10.9113 69.3655 11.1849 68.7726 11.7322C68.4961 11.9778 68.2757 12.2801 68.1264 12.6185C67.9771 12.9569 67.9023 13.3235 67.9072 13.6934C67.9045 14.0662 67.9801 14.4354 68.1292 14.7772C68.2783 15.1189 68.4975 15.4255 68.7726 15.677C69.3753 16.2095 70.1568 16.4946 70.9606 16.4754Z" fill="#2CC84D"/>
<path d="M78.2754 14.2778C78.2754 12.545 78.8908 11.0843 80.1216 9.89575C81.3524 8.68693 82.8792 8.09375 84.703 8.09375C86.5268 8.09375 88.0301 8.66449 89.216 9.82735C90.4233 10.9891 91.0163 12.4267 91.0163 14.1592C91.031 14.9813 90.8744 15.7975 90.5565 16.5558C90.2387 17.3141 89.7665 17.9979 89.1701 18.5637C87.9393 19.7494 86.4121 20.3422 84.5887 20.3422C82.7649 20.3422 81.2616 19.7725 80.0532 18.6097C78.8684 17.4479 78.2754 16.0114 78.2754 14.2778ZM86.8228 16.4218C87.3939 15.8356 87.7136 15.0494 87.7136 14.2308C87.7136 13.4122 87.3939 12.626 86.8228 12.0398C86.2522 11.4466 85.5236 11.1505 84.6571 11.1505C84.2471 11.1399 83.8392 11.2138 83.459 11.3675C83.0787 11.5212 82.7341 11.7515 82.4465 12.044C81.8885 12.637 81.5779 13.4207 81.5779 14.2351C81.5779 15.0495 81.8885 15.8331 82.4465 16.4261C82.7344 16.7179 83.0792 16.9474 83.4595 17.1004C83.8397 17.2534 84.2474 17.3265 84.6571 17.3154C85.5236 17.3111 86.2522 17.014 86.8228 16.4261V16.4218Z" fill="#2CC84D"/>
<path d="M91.9863 14.2778C91.9863 12.545 92.6017 11.0843 93.8326 9.89575C95.0634 8.68693 96.5902 8.09375 98.414 8.09375C100.238 8.09375 101.742 8.66449 102.927 9.82735C104.135 10.9891 104.727 12.4267 104.727 14.1592C104.742 14.9813 104.585 15.7975 104.267 16.5558C103.95 17.3141 103.477 17.9979 102.881 18.5637C101.65 19.7494 100.123 20.3422 98.2996 20.3422C96.4769 20.3422 94.9726 19.7725 93.7642 18.6097C92.5793 17.4479 91.9863 16.0114 91.9863 14.2778ZM100.534 16.4218C101.105 15.8356 101.425 15.0494 101.425 14.2308C101.425 13.4122 101.105 12.626 100.534 12.0398C99.9642 11.4466 99.2345 11.1505 98.368 11.1505C97.9583 11.1394 97.5507 11.2125 97.1704 11.3655C96.7901 11.5185 96.4454 11.748 96.1574 12.0398C95.5995 12.6328 95.2888 13.4164 95.2888 14.2308C95.2888 15.0452 95.5995 15.8288 96.1574 16.4218C96.4454 16.7136 96.7901 16.9431 97.1704 17.0961C97.5507 17.2491 97.9583 17.3223 98.368 17.3111C99.2345 17.3111 99.9642 17.014 100.534 16.4261V16.4218Z" fill="#2CC84D"/>
<path d="M9.20112 11.3496C8.63942 11.3496 8.09033 11.5162 7.62331 11.8285C7.15628 12.1407 6.7923 12.5844 6.57739 13.1036C6.36249 13.6227 6.30631 14.194 6.41597 14.7451C6.52563 15.2962 6.7962 15.8023 7.19346 16.1996C7.59072 16.5969 8.09682 16.8673 8.64776 16.9768C9.1987 17.0863 9.76972 17.0299 10.2886 16.8147C10.8075 16.5995 11.2509 16.2353 11.5628 15.768C11.8748 15.3006 12.0411 14.7513 12.0409 14.1894C12.0401 13.4363 11.7406 12.7143 11.2082 12.1819C10.6757 11.6495 9.95392 11.3502 9.20112 11.3496Z" fill="#2CC84D"/>
<path d="M9.48939 4.98803V4.74649C9.48939 3.48764 8.9895 2.28035 8.0997 1.39021C7.2099 0.500075 6.00307 0 4.74469 0C3.48632 0 2.27949 0.500075 1.38969 1.39021C0.499886 2.28035 2.65182e-08 3.48764 0 4.74649V14.1871C5.57062e-05 15.995 0.532384 17.7628 1.53054 19.27C2.5287 20.7771 3.94847 21.9567 5.61264 22.6617C7.27682 23.3666 9.11168 23.5656 10.8882 23.2338C12.6647 22.902 14.3042 22.0542 15.6021 20.7961C16.8999 19.5379 17.7986 17.9253 18.1859 16.1594C18.5733 14.3935 18.4321 12.5526 17.7801 10.8665C17.1281 9.18032 15.9941 7.72363 14.5197 6.6782C13.0453 5.63278 11.2957 5.04493 9.48939 4.98803ZM9.19986 20.261C7.59008 20.2593 6.04672 19.6188 4.90844 18.4801C3.77016 17.3414 3.12993 15.7975 3.12823 14.1871V4.74542C3.12823 4.31654 3.29853 3.90523 3.60168 3.60197C3.90483 3.29871 4.31598 3.12834 4.74469 3.12834C5.17341 3.12834 5.58456 3.29871 5.88771 3.60197C6.19085 3.90523 6.36116 4.31654 6.36116 4.74542V8.81964C7.17584 8.38673 8.07843 8.14525 9.00036 8.11355C9.9223 8.08185 10.8393 8.26075 11.6818 8.63668C12.5243 9.0126 13.27 9.57565 13.8624 10.2831C14.4548 10.9905 14.8782 11.8236 15.1005 12.7193C15.3229 13.6149 15.3382 14.5494 15.1454 15.4519C14.9527 16.3543 14.5568 17.201 13.988 17.9275C13.4192 18.654 12.6923 19.2412 11.8627 19.6447C11.033 20.0481 10.1223 20.257 9.19986 20.2557V20.261Z" fill="#2CC84D"/>
</svg>
