<svg width="86" height="48" viewBox="0 0 86 48" fill="none" xmlns="http://www.w3.org/2000/svg">
<g opacity="0.4">
<path d="M41.847 28.0649C42.3803 28.0649 42.9019 28.0649 43.4003 28.0649C43.5279 28.0649 43.5742 28.0997 43.6322 28.2039C44.7914 30.1035 46.5881 30.5784 48.6862 30.4626C49.6135 30.4162 50.4945 30.1962 51.2943 29.6981C52.2217 29.1306 52.7897 28.3313 52.9635 27.2657C53.091 26.5013 53.1026 25.7136 53.1026 24.9608C53.1026 24.926 53.091 24.8797 53.0679 24.8334C52.8013 25.0882 52.5694 25.3314 52.3144 25.5515C50.564 26.9993 48.5703 27.4163 46.3678 26.8603C43.2033 26.0611 41.2095 22.9917 41.7311 19.7717C42.2644 16.5053 45.0696 14.2235 48.3848 14.3162C50.2047 14.3625 51.7232 15.0691 53.091 16.2042C53.659 16.6791 53.9372 17.3393 54.227 17.9995C54.6096 18.8798 54.7718 19.7948 54.7603 20.7678C54.7023 22.3662 54.7255 23.9878 54.7023 25.5978C54.6907 26.397 54.6212 27.1962 54.4009 27.9839C53.9025 29.8024 52.6969 31.007 50.935 31.5514C48.5587 32.2927 46.2287 32.1537 44.0263 30.8448C42.9714 30.2078 42.3803 29.2001 41.847 28.0649ZM48.7673 25.5862C49.5208 25.5862 50.6684 25.3082 51.6189 24.4743C52.7781 23.5013 53.207 22.1925 53.1954 20.7215C53.1838 19.2968 52.7085 18.0458 51.6189 17.0961C49.4628 15.2312 46.1012 15.5208 44.3509 17.8142C43.1221 19.3895 42.9019 21.1964 43.7829 23.0033C44.6638 24.8334 46.2983 25.5978 48.7673 25.5862Z" fill="#677798"/>
<path d="M1.58874 16.7953C2.02923 16.2625 2.43494 15.8571 2.92179 15.5097C4.0346 14.6873 5.28651 14.3282 6.65434 14.3282C8.54379 14.3398 10.0391 15.1158 11.3142 16.471C13.0298 18.3127 13.3428 20.4323 12.7748 22.772C12.5082 23.8724 11.859 24.7527 11.0476 25.5519C9.58705 26.965 7.83669 27.5441 5.8545 27.3704C4.0346 27.2083 2.50449 26.4322 1.31054 25.0654C0.835277 24.5326 0.603442 23.8377 0.383199 23.1774C0.12818 22.4593 -0.010921 21.718 0.000670745 20.942C0.0122625 17.3397 0.0122625 13.7722 0.000670745 10.17C0.000670745 9.93834 0.0470378 9.82252 0.313648 9.84568C0.638217 9.88043 0.98597 9.85727 1.32213 9.84568C1.55397 9.8341 1.60033 9.9036 1.60033 10.1237C1.58874 12.058 1.60033 14.0039 1.60033 15.9382C1.58874 16.1815 1.58874 16.4363 1.58874 16.7953ZM1.49601 20.7914C1.41486 23.606 3.71003 25.9341 6.51523 25.8531C9.29726 25.772 11.407 23.5481 11.3722 20.6524C11.3374 17.9999 9.03065 15.7181 6.39932 15.7529C3.58252 15.8224 1.44964 18.0115 1.49601 20.7914Z" fill="#677798"/>
<path d="M61.0547 3.12749C63.0253 3.12749 64.9263 3.12749 66.7926 3.12749C67.0708 3.12749 67.1751 3.1854 67.1751 3.48655C67.1635 5.79152 67.1635 8.11965 67.1635 10.4362C67.1635 11.3049 67.604 11.7219 68.4502 11.7219C70.6874 11.7219 72.9015 11.7103 75.1387 11.7335C75.8574 11.7451 76.4485 11.2586 76.4254 10.4594C76.3906 7.93433 76.3906 5.40929 76.4254 2.87266C76.4254 2.0387 75.8921 1.56381 75.1039 1.58698C73.8404 1.59856 72.5769 1.58698 71.3018 1.59856C71.0004 1.59856 70.9425 1.5059 70.954 1.23949C70.9656 0.915175 70.9656 0.590858 70.954 0.266541C70.954 0.0927995 71.0004 0.0117188 71.1859 0.0117188C72.6464 0.0233015 74.107 0.000136691 75.556 0.0233022C76.9354 0.0580505 77.9786 1.12366 77.9786 2.50201C77.9786 5.28188 77.9786 8.05016 77.9786 10.83C77.9786 12.2084 76.9586 13.2972 75.556 13.3087C73.029 13.3435 70.4904 13.3435 67.9634 13.3087C66.5955 13.274 65.4596 12.2895 65.4827 10.7489C65.4943 8.86095 65.4827 6.99613 65.4827 5.11972C65.4827 4.7259 65.4827 4.72591 65.077 4.72591C64.3699 4.72591 63.6628 4.72591 62.9557 4.72591C62.8514 4.72591 62.7355 4.73749 62.6428 4.64482C62.1675 4.14677 61.6227 3.66029 61.0547 3.12749Z" fill="#677798"/>
<path d="M79.4502 14.3279C83.0321 14.27 86.0228 17.3626 85.9996 20.9417C85.9648 24.3702 83.0553 27.4281 79.4386 27.4165C75.509 27.3817 72.9589 24.2544 72.9473 20.8954C72.9473 17.2236 75.822 14.3164 79.4502 14.3279ZM79.4502 25.8876C82.2207 25.8876 84.2492 23.7795 84.2956 20.9533C84.3304 18.185 82.0816 15.88 79.4386 15.8916C76.8073 15.8916 74.5006 18.1734 74.5933 21.0575C74.6744 23.6868 76.5755 25.8991 79.4502 25.8876Z" fill="#677798"/>
<path d="M64.0097 27.4048C59.9874 27.4164 57.4488 24.0574 57.5415 20.71C57.6458 17.0846 60.5901 14.2699 64.1024 14.2931C68.0668 14.351 70.7909 17.6058 70.5707 21.2775C70.3968 24.4859 67.893 27.4395 64.0097 27.4048ZM64.0561 25.8875C66.9656 25.8759 68.9362 23.7446 68.9594 20.9532C68.9942 18.1386 66.7686 15.8799 64.0329 15.8915C61.3552 15.8915 59.1875 18.1502 59.1875 20.9648C59.1991 23.7562 61.2972 25.899 64.0561 25.8875Z" fill="#677798"/>
<path d="M27.9374 23.2463C27.9374 21.9838 27.891 20.7213 27.9953 19.4588C28.0533 18.6943 28.1576 17.9298 28.4474 17.2233C28.8879 16.1693 29.6761 15.509 30.6846 15.0226C31.4265 14.6751 32.1915 14.5245 32.9914 14.5361C33.5594 14.5477 34.139 14.5014 34.707 14.5824C36.5732 14.8141 38.4163 16.0766 38.7293 18.4047C38.8568 19.2734 38.9032 20.1537 38.9032 21.0109C38.9032 23.0378 38.9032 25.0648 38.9032 27.0918C38.9032 27.3235 38.8452 27.4046 38.6018 27.393C38.254 27.3814 37.9063 27.3814 37.5585 27.393C37.3499 27.4046 37.2919 27.3351 37.2919 27.1266C37.2919 24.9722 37.2919 22.8178 37.2919 20.6865C37.2919 20.0263 37.2803 19.3661 37.1296 18.7059C36.8282 17.177 36.1443 16.5168 34.6026 16.3198C33.6405 16.1809 32.6784 16.1809 31.7047 16.4241C30.9165 16.6094 30.3716 17.0496 30.0007 17.7909C29.6877 18.4163 29.5718 19.0765 29.5602 19.7599C29.4675 22.1923 29.5254 24.6363 29.5254 27.0687C29.5254 27.3351 29.4675 27.4509 29.1777 27.4161C28.8531 27.3814 28.5286 27.4046 28.204 27.4161C27.9837 27.4277 27.9258 27.3698 27.9258 27.1381C27.9606 25.8409 27.9374 24.5436 27.9374 23.2463Z" fill="#677798"/>
<path d="M15.6728 23.6866C15.6728 22.841 15.7075 22.0186 15.6612 21.1731C15.6032 20.0264 15.8698 18.9724 16.3567 17.9531C17.0522 16.4589 18.1186 15.3933 19.6487 14.7794C20.4138 14.4783 21.1325 14.5709 21.8396 14.9416C21.9787 15.0227 21.9671 15.0806 21.8975 15.1617C21.6773 15.5091 21.457 15.8566 21.2484 16.2041C21.202 16.2968 21.1556 16.3663 21.0281 16.3315C20.2863 16.0999 19.7183 16.4242 19.1851 16.8643C17.9447 17.9531 17.4231 19.343 17.3767 20.9878C17.3188 23.0032 17.3304 25.0302 17.3304 27.034C17.3304 27.2888 17.2724 27.3583 17.0174 27.3467C16.6696 27.312 16.3219 27.3351 15.9741 27.3467C15.7655 27.3583 15.7075 27.2888 15.7075 27.0803C15.6728 25.9568 15.6728 24.8333 15.6728 23.6866Z" fill="#677798"/>
<path d="M23.0801 21.1383C23.0801 19.1692 23.0801 17.1886 23.0801 15.2311C23.0801 14.9994 23.1612 14.9183 23.3815 14.9299C23.7292 14.9415 24.077 14.9415 24.4247 14.9299C24.645 14.9183 24.6913 14.9878 24.6913 15.1963C24.6797 16.8758 24.6913 18.5553 24.6913 20.2464C24.6913 22.5051 24.6913 24.81 24.6913 27.0687C24.6913 27.3235 24.6102 27.393 24.3668 27.3814C24.0422 27.3698 23.6944 27.3467 23.3583 27.3814C23.1264 27.393 23.0801 27.3003 23.0801 27.1034C23.0801 25.1343 23.0801 23.1305 23.0801 21.1383Z" fill="#677798"/>
<path d="M57.542 0C57.7159 0 57.8202 0 57.9477 0C60.9036 0 63.8943 0 66.8502 0C67.0704 0 67.1747 0.0463282 67.1631 0.301149C67.1284 0.613884 67.1284 0.926619 67.1631 1.23935C67.1747 1.49417 67.1168 1.58684 66.8386 1.58684C65.1578 1.57525 63.477 1.57525 61.7846 1.57525C61.0311 1.57525 60.2776 1.57525 59.5242 1.57525C59.4314 1.57525 59.3503 1.61 59.2576 1.52892C58.7128 1.03086 58.1448 0.54439 57.542 0Z" fill="#677798"/>
<path d="M23.845 12.4633C23.1032 12.4633 22.5352 11.8841 22.5352 11.1428C22.5352 10.4247 23.1379 9.83398 23.8566 9.83398C24.5985 9.83398 25.1665 10.4363 25.1665 11.166C25.1897 11.8841 24.5869 12.4633 23.845 12.4633Z" fill="#677798"/>
</g>
<path opacity="0.4" d="M11.52 35.948C11.576 35.788 11.664 35.668 11.784 35.588C11.912 35.508 12.052 35.468 12.204 35.468C12.396 35.468 12.56 35.528 12.696 35.648C12.84 35.768 12.912 35.928 12.912 36.128C12.912 36.2 12.892 36.304 12.852 36.44L10.272 43.58C10.208 43.74 10.1 43.864 9.948 43.952C9.804 44.04 9.644 44.084 9.468 44.084C9.292 44.084 9.128 44.04 8.976 43.952C8.824 43.864 8.72 43.74 8.664 43.58L6.672 37.928L4.644 43.58C4.58 43.74 4.472 43.864 4.32 43.952C4.176 44.04 4.016 44.084 3.84 44.084C3.664 44.084 3.5 44.04 3.348 43.952C3.204 43.864 3.104 43.74 3.048 43.58L0.468 36.44C0.428 36.32 0.408 36.216 0.408 36.128C0.408 35.928 0.48 35.768 0.624 35.648C0.776 35.528 0.952 35.468 1.152 35.468C1.312 35.468 1.456 35.508 1.584 35.588C1.712 35.668 1.804 35.788 1.86 35.948L3.9 41.816L6 35.984C6.056 35.824 6.148 35.7 6.276 35.612C6.404 35.516 6.544 35.468 6.696 35.468C6.848 35.468 6.988 35.516 7.116 35.612C7.252 35.7 7.348 35.828 7.404 35.996L9.444 41.888L11.52 35.948ZM15.399 44.072C15.183 44.072 15.003 44.012 14.859 43.892C14.723 43.764 14.655 43.584 14.655 43.352V38.72C14.655 38.488 14.723 38.312 14.859 38.192C15.003 38.072 15.183 38.012 15.399 38.012C15.615 38.012 15.795 38.072 15.939 38.192C16.083 38.312 16.155 38.488 16.155 38.72V43.352C16.155 43.584 16.083 43.764 15.939 43.892C15.795 44.012 15.615 44.072 15.399 44.072ZM15.399 36.944C15.127 36.944 14.911 36.872 14.751 36.728C14.591 36.576 14.511 36.38 14.511 36.14C14.511 35.9 14.591 35.708 14.751 35.564C14.911 35.42 15.127 35.348 15.399 35.348C15.663 35.348 15.875 35.42 16.035 35.564C16.203 35.708 16.287 35.9 16.287 36.14C16.287 36.38 16.207 36.576 16.047 36.728C15.887 36.872 15.671 36.944 15.399 36.944ZM20.9779 38.012C21.1859 37.996 21.3499 38.04 21.4699 38.144C21.5899 38.248 21.6499 38.404 21.6499 38.612C21.6499 38.828 21.5979 38.988 21.4939 39.092C21.3899 39.196 21.2019 39.264 20.9299 39.296L20.5699 39.332C20.0979 39.38 19.7499 39.54 19.5259 39.812C19.3099 40.084 19.2019 40.424 19.2019 40.832V43.352C19.2019 43.584 19.1299 43.764 18.9859 43.892C18.8419 44.012 18.6619 44.072 18.4459 44.072C18.2299 44.072 18.0499 44.012 17.9059 43.892C17.7699 43.764 17.7019 43.584 17.7019 43.352V38.708C17.7019 38.484 17.7699 38.312 17.9059 38.192C18.0499 38.072 18.2259 38.012 18.4339 38.012C18.6419 38.012 18.8099 38.072 18.9379 38.192C19.0659 38.304 19.1299 38.468 19.1299 38.684V39.164C19.2819 38.812 19.5059 38.54 19.8019 38.348C20.1059 38.156 20.4419 38.048 20.8099 38.024L20.9779 38.012ZM28.9254 37.988C29.4374 37.988 29.8894 38.112 30.2814 38.36C30.6734 38.608 30.9774 38.96 31.1934 39.416C31.4174 39.872 31.5294 40.404 31.5294 41.012C31.5294 41.62 31.4174 42.16 31.1934 42.632C30.9774 43.096 30.6694 43.456 30.2694 43.712C29.8774 43.968 29.4294 44.096 28.9254 44.096C28.5014 44.096 28.1214 44.004 27.7854 43.82C27.4574 43.636 27.2054 43.38 27.0294 43.052V43.352C27.0294 43.568 26.9614 43.74 26.8254 43.868C26.6894 43.996 26.5094 44.06 26.2854 44.06C26.0614 44.06 25.8814 43.996 25.7454 43.868C25.6174 43.74 25.5534 43.568 25.5534 43.352V36.176C25.5534 35.968 25.6214 35.8 25.7574 35.672C25.9014 35.544 26.0854 35.48 26.3094 35.48C26.5334 35.48 26.7134 35.54 26.8494 35.66C26.9854 35.78 27.0534 35.944 27.0534 36.152V38.984C27.2294 38.664 27.4814 38.42 27.8094 38.252C28.1374 38.076 28.5094 37.988 28.9254 37.988ZM28.5294 42.932C29.0014 42.932 29.3694 42.764 29.6334 42.428C29.8974 42.092 30.0294 41.62 30.0294 41.012C30.0294 40.412 29.8974 39.952 29.6334 39.632C29.3774 39.312 29.0094 39.152 28.5294 39.152C28.0494 39.152 27.6774 39.316 27.4134 39.644C27.1574 39.964 27.0294 40.428 27.0294 41.036C27.0294 41.644 27.1574 42.112 27.4134 42.44C27.6774 42.768 28.0494 42.932 28.5294 42.932ZM36.0365 38.012C36.2445 37.996 36.4085 38.04 36.5285 38.144C36.6485 38.248 36.7085 38.404 36.7085 38.612C36.7085 38.828 36.6565 38.988 36.5525 39.092C36.4485 39.196 36.2605 39.264 35.9885 39.296L35.6285 39.332C35.1565 39.38 34.8085 39.54 34.5845 39.812C34.3685 40.084 34.2605 40.424 34.2605 40.832V43.352C34.2605 43.584 34.1885 43.764 34.0445 43.892C33.9005 44.012 33.7205 44.072 33.5045 44.072C33.2885 44.072 33.1085 44.012 32.9645 43.892C32.8285 43.764 32.7605 43.584 32.7605 43.352V38.708C32.7605 38.484 32.8285 38.312 32.9645 38.192C33.1085 38.072 33.2845 38.012 33.4925 38.012C33.7005 38.012 33.8685 38.072 33.9965 38.192C34.1245 38.304 34.1885 38.468 34.1885 38.684V39.164C34.3405 38.812 34.5645 38.54 34.8605 38.348C35.1645 38.156 35.5005 38.048 35.8685 38.024L36.0365 38.012ZM38.0982 44.072C37.8822 44.072 37.7022 44.012 37.5582 43.892C37.4222 43.764 37.3542 43.584 37.3542 43.352V38.72C37.3542 38.488 37.4222 38.312 37.5582 38.192C37.7022 38.072 37.8822 38.012 38.0982 38.012C38.3142 38.012 38.4942 38.072 38.6382 38.192C38.7822 38.312 38.8542 38.488 38.8542 38.72V43.352C38.8542 43.584 38.7822 43.764 38.6382 43.892C38.4942 44.012 38.3142 44.072 38.0982 44.072ZM38.0982 36.944C37.8262 36.944 37.6102 36.872 37.4502 36.728C37.2902 36.576 37.2102 36.38 37.2102 36.14C37.2102 35.9 37.2902 35.708 37.4502 35.564C37.6102 35.42 37.8262 35.348 38.0982 35.348C38.3622 35.348 38.5742 35.42 38.7342 35.564C38.9022 35.708 38.9862 35.9 38.9862 36.14C38.9862 36.38 38.9062 36.576 38.7462 36.728C38.5862 36.872 38.3702 36.944 38.0982 36.944ZM43.8091 37.988C44.5131 37.988 45.0371 38.188 45.3811 38.588C45.7251 38.988 45.8971 39.592 45.8971 40.4V43.352C45.8971 43.576 45.8291 43.752 45.6931 43.88C45.5651 44.008 45.3851 44.072 45.1531 44.072C44.9211 44.072 44.7371 44.008 44.6011 43.88C44.4651 43.752 44.3971 43.576 44.3971 43.352V40.484C44.3971 40.028 44.3091 39.696 44.1331 39.488C43.9651 39.28 43.6971 39.176 43.3291 39.176C42.8971 39.176 42.5491 39.312 42.2851 39.584C42.0291 39.856 41.9011 40.22 41.9011 40.676V43.352C41.9011 43.576 41.8331 43.752 41.6971 43.88C41.5611 44.008 41.3771 44.072 41.1451 44.072C40.9131 44.072 40.7291 44.008 40.5931 43.88C40.4651 43.752 40.4011 43.576 40.4011 43.352V38.708C40.4011 38.5 40.4691 38.332 40.6051 38.204C40.7411 38.076 40.9251 38.012 41.1571 38.012C41.3651 38.012 41.5331 38.076 41.6611 38.204C41.7971 38.324 41.8651 38.484 41.8651 38.684V39.008C42.0651 38.68 42.3331 38.428 42.6691 38.252C43.0051 38.076 43.3851 37.988 43.8091 37.988ZM52.3886 38.012C52.6126 38.012 52.7926 38.076 52.9286 38.204C53.0646 38.332 53.1326 38.504 53.1326 38.72V43.46C53.1326 44.38 52.8766 45.076 52.3646 45.548C51.8526 46.02 51.0966 46.256 50.0966 46.256C49.2246 46.256 48.4966 46.092 47.9126 45.764C47.6166 45.588 47.4686 45.376 47.4686 45.128C47.4686 44.952 47.5086 44.812 47.5886 44.708C47.6766 44.604 47.7886 44.552 47.9246 44.552C47.9966 44.552 48.0846 44.568 48.1886 44.6C48.2926 44.64 48.4006 44.684 48.5126 44.732C48.8006 44.852 49.0566 44.944 49.2806 45.008C49.5126 45.072 49.7766 45.104 50.0726 45.104C51.1206 45.104 51.6446 44.592 51.6446 43.568V42.8C51.4686 43.128 51.2126 43.384 50.8766 43.568C50.5406 43.744 50.1566 43.832 49.7246 43.832C49.2126 43.832 48.7566 43.712 48.3566 43.472C47.9646 43.224 47.6566 42.88 47.4326 42.44C47.2086 42 47.0966 41.492 47.0966 40.916C47.0966 40.34 47.2046 39.832 47.4206 39.392C47.6446 38.944 47.9566 38.6 48.3566 38.36C48.7566 38.112 49.2126 37.988 49.7246 37.988C50.1566 37.988 50.5406 38.08 50.8766 38.264C51.2126 38.44 51.4686 38.692 51.6446 39.02V38.708C51.6446 38.5 51.7126 38.332 51.8486 38.204C51.9846 38.076 52.1646 38.012 52.3886 38.012ZM50.1206 42.668C50.6006 42.668 50.9726 42.512 51.2366 42.2C51.5086 41.888 51.6446 41.46 51.6446 40.916C51.6446 40.364 51.5086 39.932 51.2366 39.62C50.9726 39.308 50.6006 39.152 50.1206 39.152C49.6486 39.152 49.2766 39.308 49.0046 39.62C48.7326 39.932 48.5966 40.364 48.5966 40.916C48.5966 41.46 48.7326 41.888 49.0046 42.2C49.2766 42.512 49.6486 42.668 50.1206 42.668ZM59.3303 42.392C59.4663 42.392 59.5743 42.444 59.6543 42.548C59.7423 42.652 59.7863 42.792 59.7863 42.968C59.7863 43.216 59.6383 43.424 59.3423 43.592C59.0703 43.744 58.7623 43.868 58.4183 43.964C58.0743 44.052 57.7463 44.096 57.4342 44.096C56.4903 44.096 55.7423 43.824 55.1903 43.28C54.6383 42.736 54.3623 41.992 54.3623 41.048C54.3623 40.448 54.4823 39.916 54.7223 39.452C54.9623 38.988 55.2983 38.628 55.7303 38.372C56.1703 38.116 56.6663 37.988 57.2183 37.988C57.7463 37.988 58.2063 38.104 58.5983 38.336C58.9903 38.568 59.2943 38.896 59.5103 39.32C59.7263 39.744 59.8343 40.244 59.8343 40.82C59.8343 41.164 59.6823 41.336 59.3783 41.336H55.8383C55.8863 41.888 56.0423 42.296 56.3063 42.56C56.5703 42.816 56.9543 42.944 57.4583 42.944C57.7143 42.944 57.9383 42.912 58.1303 42.848C58.3303 42.784 58.5543 42.696 58.8023 42.584C59.0423 42.456 59.2183 42.392 59.3303 42.392ZM57.2543 39.044C56.8463 39.044 56.5183 39.172 56.2703 39.428C56.0303 39.684 55.8863 40.052 55.8383 40.532H58.5503C58.5343 40.044 58.4143 39.676 58.1903 39.428C57.9663 39.172 57.6543 39.044 57.2543 39.044ZM64.4693 37.988C65.1733 37.988 65.6973 38.188 66.0413 38.588C66.3853 38.988 66.5573 39.592 66.5573 40.4V43.352C66.5573 43.576 66.4893 43.752 66.3533 43.88C66.2253 44.008 66.0453 44.072 65.8133 44.072C65.5813 44.072 65.3973 44.008 65.2613 43.88C65.1253 43.752 65.0573 43.576 65.0573 43.352V40.484C65.0573 40.028 64.9693 39.696 64.7933 39.488C64.6253 39.28 64.3573 39.176 63.9893 39.176C63.5573 39.176 63.2093 39.312 62.9453 39.584C62.6893 39.856 62.5613 40.22 62.5613 40.676V43.352C62.5613 43.576 62.4933 43.752 62.3573 43.88C62.2213 44.008 62.0373 44.072 61.8053 44.072C61.5733 44.072 61.3893 44.008 61.2533 43.88C61.1253 43.752 61.0613 43.576 61.0613 43.352V38.708C61.0613 38.5 61.1293 38.332 61.2653 38.204C61.4013 38.076 61.5853 38.012 61.8173 38.012C62.0253 38.012 62.1933 38.076 62.3213 38.204C62.4573 38.324 62.5253 38.484 62.5253 38.684V39.008C62.7253 38.68 62.9933 38.428 63.3293 38.252C63.6653 38.076 64.0453 37.988 64.4693 37.988ZM75.9826 42.392C76.1186 42.392 76.2266 42.444 76.3066 42.548C76.3946 42.652 76.4386 42.792 76.4386 42.968C76.4386 43.216 76.2906 43.424 75.9946 43.592C75.7226 43.744 75.4146 43.868 75.0706 43.964C74.7266 44.052 74.3986 44.096 74.0866 44.096C73.1426 44.096 72.3946 43.824 71.8426 43.28C71.2906 42.736 71.0146 41.992 71.0146 41.048C71.0146 40.448 71.1346 39.916 71.3746 39.452C71.6146 38.988 71.9506 38.628 72.3826 38.372C72.8226 38.116 73.3186 37.988 73.8706 37.988C74.3986 37.988 74.8586 38.104 75.2506 38.336C75.6426 38.568 75.9466 38.896 76.1626 39.32C76.3786 39.744 76.4866 40.244 76.4866 40.82C76.4866 41.164 76.3346 41.336 76.0306 41.336H72.4906C72.5386 41.888 72.6946 42.296 72.9586 42.56C73.2226 42.816 73.6066 42.944 74.1106 42.944C74.3666 42.944 74.5906 42.912 74.7826 42.848C74.9826 42.784 75.2066 42.696 75.4546 42.584C75.6946 42.456 75.8706 42.392 75.9826 42.392ZM73.9066 39.044C73.4986 39.044 73.1706 39.172 72.9226 39.428C72.6826 39.684 72.5386 40.052 72.4906 40.532H75.2026C75.1866 40.044 75.0666 39.676 74.8426 39.428C74.6186 39.172 74.3066 39.044 73.9066 39.044ZM79.8376 44.096C78.9656 44.096 78.2616 43.924 77.7256 43.58C77.4696 43.428 77.3416 43.212 77.3416 42.932C77.3416 42.772 77.3856 42.644 77.4736 42.548C77.5616 42.444 77.6696 42.392 77.7976 42.392C77.9336 42.392 78.1216 42.456 78.3616 42.584C78.6176 42.704 78.8496 42.796 79.0576 42.86C79.2736 42.924 79.5456 42.956 79.8736 42.956C80.2096 42.956 80.4696 42.9 80.6536 42.788C80.8456 42.676 80.9416 42.52 80.9416 42.32C80.9416 42.184 80.9016 42.076 80.8216 41.996C80.7496 41.916 80.6136 41.844 80.4136 41.78C80.2216 41.708 79.9256 41.628 79.5256 41.54C78.8136 41.396 78.3016 41.192 77.9896 40.928C77.6856 40.664 77.5336 40.3 77.5336 39.836C77.5336 39.484 77.6376 39.168 77.8456 38.888C78.0536 38.6 78.3376 38.38 78.6976 38.228C79.0656 38.068 79.4816 37.988 79.9456 37.988C80.2816 37.988 80.6056 38.032 80.9176 38.12C81.2296 38.2 81.5096 38.32 81.7576 38.48C82.0136 38.64 82.1416 38.852 82.1416 39.116C82.1416 39.276 82.0976 39.412 82.0096 39.524C81.9216 39.628 81.8136 39.68 81.6856 39.68C81.5976 39.68 81.5096 39.664 81.4216 39.632C81.3416 39.592 81.2376 39.536 81.1096 39.464C80.8776 39.344 80.6776 39.256 80.5096 39.2C80.3416 39.136 80.1336 39.104 79.8856 39.104C79.5896 39.104 79.3536 39.164 79.1776 39.284C79.0096 39.404 78.9256 39.568 78.9256 39.776C78.9256 39.976 79.0136 40.128 79.1896 40.232C79.3656 40.336 79.7056 40.44 80.2096 40.544C80.7456 40.656 81.1656 40.784 81.4696 40.928C81.7736 41.072 81.9896 41.252 82.1176 41.468C82.2536 41.684 82.3216 41.96 82.3216 42.296C82.3216 42.84 82.0936 43.276 81.6376 43.604C81.1896 43.932 80.5896 44.096 79.8376 44.096ZM84.1872 44.072C83.9312 44.072 83.7192 43.988 83.5512 43.82C83.3832 43.644 83.2992 43.428 83.2992 43.172C83.2992 42.916 83.3832 42.704 83.5512 42.536C83.7192 42.36 83.9312 42.272 84.1872 42.272C84.4432 42.272 84.6552 42.36 84.8232 42.536C84.9912 42.704 85.0752 42.916 85.0752 43.172C85.0752 43.428 84.9912 43.644 84.8232 43.82C84.6552 43.988 84.4432 44.072 84.1872 44.072Z" fill="#677798"/>
</svg>
