<svg width="123" height="28" viewBox="0 0 123 28" fill="none" xmlns="http://www.w3.org/2000/svg">
<path d="M41.4357 11.5048C42.7383 12.8614 43.3765 14.5373 43.3765 16.5324C43.3765 18.5274 42.7122 20.2295 41.3821 21.6447C40.0521 23.06 38.4579 23.7458 36.623 23.7458C34.7882 23.7458 33.3261 23.0538 32.2092 21.6447V21.8305C32.2092 22.868 31.4613 23.6124 30.4267 23.6124C29.3635 23.6124 28.6455 22.8642 28.6455 21.8305V6.63683C28.6455 5.4934 29.4433 4.72156 30.5863 4.72156C30.8394 4.71541 31.0911 4.76074 31.3262 4.85481C31.5613 4.94889 31.7748 5.08974 31.9538 5.26883C32.1328 5.44792 32.2737 5.66152 32.3677 5.89667C32.4617 6.13182 32.5071 6.38363 32.5009 6.63683V11.425C33.5916 10.122 35.0275 9.45611 36.7552 9.45611C38.59 9.45611 40.1332 10.1482 41.4357 11.5048ZM35.9312 20.2033C36.9421 20.2033 37.7935 19.8567 38.4579 19.1659C39.1243 18.482 39.4972 17.5647 39.4972 16.6097C39.4972 15.6547 39.1243 14.7374 38.4579 14.0535C37.7935 13.3615 36.9421 13.0161 35.9312 13.0161C35.4571 13.0061 34.986 13.0935 34.5469 13.2728C34.1078 13.452 33.7102 13.7195 33.3784 14.0585C32.7283 14.7507 32.3664 15.6648 32.3664 16.6147C32.3664 17.5645 32.7283 18.4786 33.3784 19.1709C33.7112 19.5078 34.1093 19.7732 34.5483 19.9508C34.9872 20.1283 35.4579 20.2143 35.9312 20.2033Z" fill="#4FBA5D"/>
<path d="M44.8006 11.2854C44.7932 11.0602 44.832 10.8358 44.9146 10.6262C44.9973 10.4166 45.122 10.2261 45.2811 10.0666C45.4402 9.90713 45.6303 9.78195 45.8397 9.69882C46.0491 9.61569 46.2733 9.57639 46.4984 9.58333C47.5356 9.58333 48.2274 10.3016 48.2274 11.2854L48.2536 12.4076C49.105 10.44 50.3815 9.4549 52.1092 9.4549C53.2797 9.4549 54.1037 10.2804 54.1037 11.4238C54.1037 12.6208 53.2797 13.4188 52.1092 13.4188C49.9826 13.4188 48.6525 14.7755 48.6525 17.409V21.6585C48.6525 22.8019 47.8821 23.5999 46.7378 23.5999C45.5934 23.5999 44.7969 22.8019 44.7969 21.6585L44.8006 11.2854Z" fill="#4FBA5D"/>
<path d="M54.7891 5.94754C54.7891 4.67193 55.7463 3.71429 57.1287 3.71429C58.4848 3.71429 59.4421 4.67193 59.4421 5.94754C59.4421 7.25182 58.4848 8.18203 57.1287 8.18203C55.7463 8.18203 54.7891 7.25182 54.7891 5.94754ZM59.0706 11.5587V21.6426C59.0706 22.786 58.2729 23.6102 57.1287 23.6102C55.9595 23.6102 55.1618 22.786 55.1618 21.6426V11.5674C55.1618 10.4227 55.9595 9.59853 57.1287 9.59853C58.2729 9.5923 59.0706 10.4165 59.0706 11.5674V11.5587Z" fill="#4FBA5D"/>
<path d="M72.6409 10.9704C73.6244 11.9555 74.1031 13.3396 74.1031 15.094V21.6627C74.1031 22.8062 73.3053 23.6042 72.1623 23.6042C71.0192 23.6042 70.2476 22.8062 70.2476 21.6627V16.3446C70.2476 14.1363 69.1569 13.0191 67.5626 13.0191C65.8598 13.0191 64.6631 14.1625 64.6631 16.4768V21.6627C64.6631 22.8062 63.8928 23.6042 62.7485 23.6042C61.6042 23.6042 60.8076 22.8074 60.8076 21.6627V11.3969C60.8076 10.3594 61.5555 9.58758 62.6163 9.58758C63.6534 9.58758 64.3976 10.3594 64.3976 11.3969V11.8757C65.355 10.2796 67.0565 9.45416 68.945 9.45416C70.4607 9.45416 71.6836 9.96041 72.6409 10.9704Z" fill="#4FBA5D"/>
<path d="M90.101 11.4024V20.0472C90.101 22.4675 89.4093 24.4114 88.0531 25.8454C86.697 27.2793 84.7824 28 82.3094 28C79.9698 28 78.0017 27.5013 76.4336 26.4838C75.7954 26.1097 75.4751 25.6109 75.4751 24.995C75.4751 24.0635 76.0871 23.4251 77.0182 23.4251C77.2837 23.4251 77.6302 23.5311 78.0553 23.7181C79.384 24.4089 80.6878 24.7556 81.9903 24.7556C84.649 24.7556 86.2183 23.3715 86.2183 20.8976V20.6059C85.2349 21.7281 83.85 22.2817 82.0963 22.2817C80.2091 22.2817 78.6137 21.6699 77.3099 20.4463C76.0073 19.1994 75.3691 17.7031 75.3691 15.9574C75.3691 14.122 76.0073 12.5791 77.2837 11.3289C78.5875 10.082 80.2353 9.466 82.2296 9.466C83.9847 9.466 85.4206 10.0782 86.5374 11.2753C86.6172 10.2915 87.3351 9.59942 88.3186 9.59942C89.3557 9.59319 90.101 10.3376 90.101 11.4024ZM82.7881 19.2218C83.7989 19.2218 84.649 18.9038 85.3146 18.2916C85.6439 18.0033 85.907 17.6472 86.0859 17.2478C86.2649 16.8484 86.3556 16.415 86.3517 15.9773C86.3584 15.5429 86.2688 15.1123 86.0895 14.7165C85.9102 14.3207 85.6456 13.9695 85.3146 13.688C84.649 13.0496 83.7989 12.7304 82.7881 12.7304C81.7772 12.7304 80.9271 13.0496 80.2353 13.688C79.9128 13.9746 79.6557 14.3273 79.4815 14.7221C79.3073 15.1169 79.22 15.5446 79.2257 15.9761C79.2225 16.4111 79.3108 16.8419 79.4847 17.2405C79.6586 17.6392 79.9144 17.9969 80.2353 18.2904C80.9385 18.9116 81.8502 19.2442 82.7881 19.2218Z" fill="#4FBA5D"/>
<path d="M91.3203 16.6572C91.3203 14.6355 92.0383 12.9314 93.4742 11.5448C94.9102 10.1345 96.6914 9.44244 98.8192 9.44244C100.947 9.44244 102.701 10.1083 104.084 11.465C105.493 12.8204 106.185 14.4975 106.185 16.5188C106.202 17.478 106.019 18.4302 105.648 19.3149C105.277 20.1995 104.727 20.9973 104.031 21.6574C102.595 23.0407 100.813 23.7323 98.6858 23.7323C96.5581 23.7323 94.8043 23.0677 93.3945 21.711C92.0121 20.3556 91.3203 18.6797 91.3203 16.6572ZM101.292 19.1586C101.959 18.4746 102.332 17.5574 102.332 16.6023C102.332 15.6473 101.959 14.73 101.292 14.0461C100.627 13.3541 99.7765 13.0087 98.7656 13.0087C98.2873 12.9963 97.8115 13.0825 97.3678 13.2618C96.9242 13.4411 96.5221 13.7098 96.1866 14.0511C95.5357 14.743 95.1732 15.6572 95.1732 16.6073C95.1732 17.5574 95.5357 18.4717 96.1866 19.1635C96.5225 19.504 96.9248 19.7717 97.3684 19.9502C97.812 20.1287 98.2876 20.214 98.7656 20.201C99.7765 20.196 100.627 19.8494 101.292 19.1635V19.1586Z" fill="#4FBA5D"/>
<path d="M107.316 16.6572C107.316 14.6355 108.034 12.9314 109.47 11.5448C110.906 10.1345 112.688 9.44244 114.815 9.44244C116.943 9.44244 118.698 10.1083 120.08 11.465C121.49 12.8204 122.181 14.4975 122.181 16.5188C122.198 17.478 122.015 18.4302 121.644 19.3149C121.274 20.1995 120.723 20.9973 120.027 21.6574C118.591 23.0407 116.809 23.7323 114.682 23.7323C112.555 23.7323 110.8 23.0677 109.391 21.711C108.008 20.3556 107.316 18.6797 107.316 16.6572ZM117.288 19.1586C117.955 18.4746 118.328 17.5574 118.328 16.6023C118.328 15.6473 117.955 14.73 117.288 14.0461C116.624 13.3541 115.773 13.0087 114.762 13.0087C114.284 12.9957 113.808 13.081 113.365 13.2595C112.921 13.4379 112.519 13.7057 112.183 14.0461C111.532 14.738 111.169 15.6522 111.169 16.6023C111.169 17.5524 111.532 18.4667 112.183 19.1586C112.519 19.499 112.921 19.7667 113.365 19.9452C113.808 20.1237 114.284 20.209 114.762 20.196C115.773 20.196 116.624 19.8494 117.288 19.1635V19.1586Z" fill="#4FBA5D"/>
<path d="M10.734 13.2408C10.0787 13.2408 9.43807 13.4352 8.89321 13.7994C8.34834 14.1637 7.9237 14.6814 7.67297 15.2871C7.42225 15.8927 7.35671 16.5592 7.48465 17.2021C7.61259 17.8451 7.92825 18.4356 8.39172 18.8991C8.85519 19.3626 9.44564 19.6781 10.0884 19.8059C10.7312 19.9336 11.3974 19.8678 12.0027 19.6168C12.6081 19.3657 13.1254 18.9407 13.4893 18.3955C13.8532 17.8503 14.0473 17.2094 14.0471 16.5538C14.0461 15.6753 13.6967 14.833 13.0755 14.2118C12.4544 13.5907 11.6123 13.2414 10.734 13.2408Z" fill="#4FBA5D"/>
<path d="M11.071 5.81937V5.53757C11.071 4.06891 10.4878 2.66041 9.44965 1.62192C8.41154 0.58342 7.00358 0 5.53548 0C4.06738 0 2.65941 0.58342 1.6213 1.62192C0.5832 2.66041 3.09379e-08 4.06891 0 5.53757V16.5516C6.49905e-05 18.6608 0.621115 20.7233 1.78563 22.4816C2.95015 24.2399 4.60655 25.6162 6.54808 26.4386C8.48962 27.261 10.6303 27.4932 12.7029 27.1061C14.7755 26.719 16.6883 25.7299 18.2024 24.2621C19.7165 22.7943 20.765 20.9128 21.2169 18.8526C21.6688 16.7924 21.5041 14.6447 20.7435 12.6775C19.9828 10.7104 18.6598 9.0109 16.9397 7.79124C15.2195 6.57157 13.1783 5.88575 11.071 5.81937ZM10.7332 23.6378C8.85509 23.6359 7.05451 22.8886 5.72651 21.5601C4.39852 20.2316 3.65158 18.4304 3.6496 16.5516V5.53632C3.6496 5.03597 3.84829 4.5561 4.20196 4.2023C4.55563 3.8485 5.03531 3.64973 5.53548 3.64973C6.03564 3.64973 6.51532 3.8485 6.86899 4.2023C7.22266 4.5561 7.42135 5.03597 7.42135 5.53632V10.2896C8.37181 9.78452 9.42483 9.5028 10.5004 9.46581C11.576 9.42883 12.6459 9.63755 13.6288 10.0761C14.6117 10.5147 15.4817 11.1716 16.1728 11.9969C16.8639 12.8222 17.3579 13.7942 17.6173 14.8391C17.8767 15.884 17.8946 16.9743 17.6697 18.0272C17.4448 19.0801 16.983 20.0678 16.3193 20.9154C15.6557 21.763 14.8077 22.4481 13.8398 22.9188C12.8718 23.3894 11.8094 23.6332 10.7332 23.6316V23.6378Z" fill="#4FBA5D"/>
</svg>
