<svg width="86" height="32" viewBox="0 0 86 32" fill="none" xmlns="http://www.w3.org/2000/svg">
<g opacity="0.4">
<path d="M41.847 28.0649C42.3803 28.0649 42.9019 28.0649 43.4003 28.0649C43.5279 28.0649 43.5742 28.0997 43.6322 28.2039C44.7914 30.1035 46.5881 30.5784 48.6862 30.4626C49.6135 30.4162 50.4945 30.1962 51.2943 29.6981C52.2217 29.1306 52.7897 28.3313 52.9635 27.2657C53.091 26.5013 53.1026 25.7136 53.1026 24.9608C53.1026 24.926 53.091 24.8797 53.0679 24.8334C52.8013 25.0882 52.5694 25.3314 52.3144 25.5515C50.564 26.9993 48.5703 27.4163 46.3678 26.8603C43.2033 26.0611 41.2095 22.9917 41.7311 19.7717C42.2644 16.5053 45.0696 14.2235 48.3848 14.3162C50.2047 14.3625 51.7232 15.0691 53.091 16.2042C53.659 16.6791 53.9372 17.3393 54.227 17.9995C54.6096 18.8798 54.7718 19.7948 54.7603 20.7678C54.7023 22.3662 54.7255 23.9878 54.7023 25.5978C54.6907 26.397 54.6212 27.1962 54.4009 27.9839C53.9025 29.8024 52.6969 31.007 50.935 31.5514C48.5587 32.2927 46.2287 32.1537 44.0263 30.8448C42.9714 30.2078 42.3803 29.2001 41.847 28.0649ZM48.7673 25.5862C49.5208 25.5862 50.6684 25.3082 51.6189 24.4743C52.7781 23.5013 53.207 22.1925 53.1954 20.7215C53.1838 19.2968 52.7085 18.0458 51.6189 17.0961C49.4628 15.2312 46.1012 15.5208 44.3509 17.8142C43.1221 19.3895 42.9019 21.1964 43.7829 23.0033C44.6638 24.8334 46.2983 25.5978 48.7673 25.5862Z" fill="#677798"/>
<path d="M1.58874 16.7949C2.02923 16.262 2.43494 15.8566 2.92179 15.5092C4.0346 14.6868 5.28651 14.3277 6.65434 14.3277C8.54379 14.3393 10.0391 15.1154 11.3142 16.4705C13.0298 18.3122 13.3428 20.4318 12.7748 22.7716C12.5082 23.8719 11.859 24.7522 11.0476 25.5514C9.58705 26.9645 7.83669 27.5437 5.8545 27.3699C4.0346 27.2078 2.50449 26.4317 1.31054 25.0649C0.835277 24.5321 0.603442 23.8372 0.383199 23.177C0.12818 22.4588 -0.010921 21.7175 0.000670745 20.9415C0.0122625 17.3392 0.0122625 13.7718 0.000670745 10.1695C0.000670745 9.93786 0.0470378 9.82203 0.313648 9.84519C0.638217 9.87994 0.98597 9.85678 1.32213 9.84519C1.55397 9.83361 1.60033 9.90311 1.60033 10.1232C1.58874 12.0575 1.60033 14.0034 1.60033 15.9377C1.58874 16.181 1.58874 16.4358 1.58874 16.7949ZM1.49601 20.7909C1.41486 23.6055 3.71003 25.9337 6.51523 25.8526C9.29726 25.7715 11.407 23.5476 11.3722 20.6519C11.3374 17.9995 9.03065 15.7177 6.39932 15.7524C3.58252 15.8219 1.44964 18.011 1.49601 20.7909Z" fill="#677798"/>
<path d="M61.0547 3.12749C63.0253 3.12749 64.9263 3.12749 66.7926 3.12749C67.0708 3.12749 67.1751 3.1854 67.1751 3.48655C67.1635 5.79152 67.1635 8.11965 67.1635 10.4362C67.1635 11.3049 67.604 11.7219 68.4502 11.7219C70.6874 11.7219 72.9015 11.7103 75.1387 11.7335C75.8574 11.7451 76.4485 11.2586 76.4254 10.4594C76.3906 7.93433 76.3906 5.40929 76.4254 2.87266C76.4254 2.0387 75.8921 1.56381 75.1039 1.58698C73.8404 1.59856 72.5769 1.58698 71.3018 1.59856C71.0004 1.59856 70.9425 1.5059 70.954 1.23949C70.9656 0.915175 70.9656 0.590858 70.954 0.266541C70.954 0.0927995 71.0004 0.0117188 71.1859 0.0117188C72.6464 0.0233015 74.107 0.000136691 75.556 0.0233022C76.9354 0.0580505 77.9786 1.12366 77.9786 2.50201C77.9786 5.28188 77.9786 8.05016 77.9786 10.83C77.9786 12.2084 76.9586 13.2972 75.556 13.3087C73.029 13.3435 70.4904 13.3435 67.9634 13.3087C66.5955 13.274 65.4596 12.2895 65.4827 10.7489C65.4943 8.86095 65.4827 6.99613 65.4827 5.11972C65.4827 4.7259 65.4827 4.72591 65.077 4.72591C64.3699 4.72591 63.6628 4.72591 62.9557 4.72591C62.8514 4.72591 62.7355 4.73749 62.6428 4.64482C62.1675 4.14677 61.6227 3.66029 61.0547 3.12749Z" fill="#677798"/>
<path d="M79.4502 14.3279C83.0321 14.27 86.0228 17.3626 85.9996 20.9417C85.9648 24.3702 83.0553 27.4281 79.4386 27.4165C75.509 27.3817 72.9589 24.2544 72.9473 20.8954C72.9473 17.2236 75.822 14.3164 79.4502 14.3279ZM79.4502 25.8876C82.2207 25.8876 84.2492 23.7795 84.2956 20.9533C84.3304 18.185 82.0816 15.88 79.4386 15.8916C76.8073 15.8916 74.5006 18.1734 74.5933 21.0575C74.6744 23.6868 76.5755 25.8991 79.4502 25.8876Z" fill="#677798"/>
<path d="M64.0097 27.4048C59.9874 27.4164 57.4488 24.0574 57.5415 20.71C57.6458 17.0846 60.5901 14.2699 64.1024 14.2931C68.0668 14.351 70.7909 17.6058 70.5707 21.2775C70.3968 24.4859 67.893 27.4395 64.0097 27.4048ZM64.0561 25.8875C66.9656 25.8759 68.9362 23.7446 68.9594 20.9532C68.9942 18.1386 66.7686 15.8799 64.0329 15.8915C61.3552 15.8915 59.1875 18.1502 59.1875 20.9648C59.1991 23.7562 61.2972 25.899 64.0561 25.8875Z" fill="#677798"/>
<path d="M27.9374 23.2468C27.9374 21.9843 27.891 20.7218 27.9953 19.4593C28.0533 18.6948 28.1576 17.9303 28.4474 17.2238C28.8879 16.1698 29.6761 15.5095 30.6846 15.0231C31.4265 14.6756 32.1915 14.525 32.9914 14.5366C33.5594 14.5482 34.139 14.5018 34.707 14.5829C36.5732 14.8146 38.4163 16.0771 38.7293 18.4052C38.8568 19.2739 38.9032 20.1542 38.9032 21.0114C38.9032 23.0383 38.9032 25.0653 38.9032 27.0923C38.9032 27.324 38.8452 27.405 38.6018 27.3935C38.254 27.3819 37.9063 27.3819 37.5585 27.3935C37.3499 27.405 37.2919 27.3355 37.2919 27.1271C37.2919 24.9727 37.2919 22.8183 37.2919 20.687C37.2919 20.0268 37.2803 19.3666 37.1296 18.7064C36.8282 17.1775 36.1443 16.5172 34.6026 16.3203C33.6405 16.1813 32.6784 16.1813 31.7047 16.4246C30.9165 16.6099 30.3716 17.05 30.0007 17.7913C29.6877 18.4168 29.5718 19.077 29.5602 19.7604C29.4675 22.1928 29.5254 24.6368 29.5254 27.0691C29.5254 27.3355 29.4675 27.4514 29.1777 27.4166C28.8531 27.3819 28.5286 27.405 28.204 27.4166C27.9837 27.4282 27.9258 27.3703 27.9258 27.1386C27.9606 25.8414 27.9374 24.5441 27.9374 23.2468Z" fill="#677798"/>
<path d="M15.6718 23.6866C15.6718 22.841 15.7065 22.0186 15.6602 21.1731C15.6022 20.0264 15.8688 18.9724 16.3557 17.9531C17.0512 16.4589 18.1176 15.3933 19.6477 14.7794C20.4128 14.4783 21.1315 14.5709 21.8386 14.9416C21.9777 15.0227 21.9661 15.0806 21.8965 15.1617C21.6763 15.5091 21.4561 15.8566 21.2474 16.2041C21.201 16.2968 21.1547 16.3663 21.0272 16.3315C20.2853 16.0999 19.7173 16.4242 19.1841 16.8643C17.9438 17.9531 17.4221 19.343 17.3758 20.9878C17.3178 23.0032 17.3294 25.0302 17.3294 27.034C17.3294 27.2888 17.2714 27.3583 17.0164 27.3467C16.6687 27.312 16.3209 27.3351 15.9732 27.3467C15.7645 27.3583 15.7066 27.2888 15.7066 27.0803C15.6718 25.9568 15.6718 24.8333 15.6718 23.6866Z" fill="#677798"/>
<path d="M23.0801 21.1388C23.0801 19.1697 23.0801 17.1891 23.0801 15.2316C23.0801 14.9999 23.1612 14.9188 23.3815 14.9304C23.7292 14.942 24.077 14.942 24.4247 14.9304C24.645 14.9188 24.6913 14.9883 24.6913 15.1968C24.6797 16.8763 24.6913 18.5558 24.6913 20.2469C24.6913 22.5055 24.6913 24.8105 24.6913 27.0692C24.6913 27.324 24.6102 27.3935 24.3668 27.3819C24.0422 27.3703 23.6944 27.3471 23.3583 27.3819C23.1264 27.3935 23.0801 27.3008 23.0801 27.1039C23.0801 25.1348 23.0801 23.131 23.0801 21.1388Z" fill="#677798"/>
<path d="M57.543 0C57.7168 0 57.8212 0 57.9487 0C60.9046 0 63.8952 0 66.8511 0C67.0714 0 67.1757 0.0463282 67.1641 0.301149C67.1293 0.613884 67.1293 0.926619 67.1641 1.23935C67.1757 1.49417 67.1178 1.58684 66.8396 1.58684C65.1588 1.57525 63.4779 1.57525 61.7855 1.57525C61.0321 1.57525 60.2786 1.57525 59.5252 1.57525C59.4324 1.57525 59.3513 1.61 59.2585 1.52892C58.7137 1.03086 58.1457 0.54439 57.543 0Z" fill="#677798"/>
<path d="M23.845 12.4633C23.1032 12.4633 22.5352 11.8841 22.5352 11.1428C22.5352 10.4247 23.1379 9.83398 23.8566 9.83398C24.5985 9.83398 25.1665 10.4363 25.1665 11.166C25.1897 11.8841 24.5869 12.4633 23.845 12.4633Z" fill="#677798"/>
</g>
</svg>
