<svg width="144" height="32" viewBox="0 0 144 32" fill="none" xmlns="http://www.w3.org/2000/svg">
<g opacity="0.16">
<path d="M48.8349 13.1484C50.3701 14.6989 51.1223 16.6141 51.1223 18.8942C51.1223 21.1743 50.3393 23.1195 48.7718 24.7369C47.2043 26.3543 45.3253 27.1381 43.1628 27.1381C41.0004 27.1381 39.2771 26.3472 37.9608 24.7369V24.9492C37.9608 26.1349 37.0794 26.9856 35.8601 26.9856C34.6069 26.9856 33.7607 26.1306 33.7607 24.9492V7.58502C33.7607 6.27824 34.7009 5.39614 36.0481 5.39614C36.3464 5.38911 36.6431 5.44092 36.9201 5.54843C37.1972 5.65594 37.4488 5.81691 37.6598 6.02159C37.8708 6.22626 38.0368 6.47037 38.1476 6.73912C38.2584 7.00787 38.3118 7.29565 38.3046 7.58502V13.0572C39.59 11.568 41.2824 10.8071 43.3186 10.8071C45.481 10.8071 47.2998 11.598 48.8349 13.1484ZM42.3475 23.0896C43.5389 23.0896 44.5423 22.6934 45.3253 21.9039C46.1107 21.1223 46.5502 20.074 46.5502 18.9826C46.5502 17.8911 46.1107 16.8428 45.3253 16.0612C44.5423 15.2703 43.5389 14.8756 42.3475 14.8756C41.7887 14.8642 41.2334 14.964 40.7159 15.1689C40.1985 15.3738 39.7298 15.6795 39.3388 16.0669C38.5726 16.8581 38.1461 17.9028 38.1461 18.9883C38.1461 20.0738 38.5726 21.1185 39.3388 21.9096C39.731 22.2947 40.2002 22.5981 40.7176 22.801C41.2349 23.0039 41.7896 23.1021 42.3475 23.0896Z" fill="#677798"/>
<path d="M52.8008 12.8976C52.792 12.6403 52.8378 12.3839 52.9352 12.1443C53.0326 11.9047 53.1796 11.6871 53.3671 11.5048C53.5546 11.3225 53.7787 11.1794 54.0254 11.0844C54.2722 10.9894 54.5364 10.9445 54.8018 10.9524C56.0241 10.9524 56.8395 11.7733 56.8395 12.8976L56.8704 14.1802C57.8738 11.9315 59.3782 10.8057 61.4145 10.8057C62.794 10.8057 63.7651 11.749 63.7651 13.0558C63.7651 14.4239 62.794 15.3359 61.4145 15.3359C58.9081 15.3359 57.3405 16.8864 57.3405 19.8961V24.7526C57.3405 26.0594 56.4326 26.9714 55.0839 26.9714C53.7352 26.9714 52.7964 26.0594 52.7964 24.7526L52.8008 12.8976Z" fill="#677798"/>
<path d="M64.5723 6.79715C64.5723 5.33932 65.7005 4.24487 67.3297 4.24487C68.928 4.24487 70.0562 5.33932 70.0562 6.79715C70.0562 8.28776 68.928 9.35085 67.3297 9.35085C65.7005 9.35085 64.5723 8.28776 64.5723 6.79715ZM69.6184 13.2099V24.7343C69.6184 26.0411 68.6782 26.9831 67.3297 26.9831C65.9517 26.9831 65.0115 26.0411 65.0115 24.7343V13.2199C65.0115 11.9117 65.9517 10.9697 67.3297 10.9697C68.6782 10.9626 69.6184 11.9046 69.6184 13.2199V13.2099Z" fill="#677798"/>
<path d="M85.6129 12.5375C86.772 13.6633 87.3362 15.2451 87.3362 17.2502V24.7573C87.3362 26.0641 86.3959 26.9762 85.0488 26.9762C83.7016 26.9762 82.7922 26.0641 82.7922 24.7573V18.6795C82.7922 16.1558 81.5067 14.8789 79.6277 14.8789C77.6209 14.8789 76.2105 16.1857 76.2105 18.8306V24.7573C76.2105 26.0641 75.3026 26.9762 73.9539 26.9762C72.6053 26.9762 71.6665 26.0655 71.6665 24.7573V13.0249C71.6665 11.8393 72.548 10.9572 73.7982 10.9572C75.0205 10.9572 75.8976 11.8393 75.8976 13.0249V13.5721C77.0259 11.7481 79.0312 10.8047 81.2569 10.8047C83.0434 10.8047 84.4846 11.3833 85.6129 12.5375Z" fill="#677798"/>
<path d="M106.191 13.0314V22.9112C106.191 25.6772 105.375 27.8988 103.777 29.5376C102.179 31.1764 99.9223 32.0001 97.0077 32.0001C94.2504 32.0001 91.9307 31.4301 90.0827 30.2672C89.3305 29.8397 88.953 29.2697 88.953 28.5658C88.953 27.5012 89.6743 26.7716 90.7717 26.7716C91.0846 26.7716 91.493 26.8928 91.9939 27.1065C93.5599 27.896 95.0965 28.2921 96.6317 28.2921C99.7651 28.2921 101.615 26.7104 101.615 23.8831V23.5496C100.456 24.8322 98.8235 25.4649 96.7565 25.4649C94.5324 25.4649 92.652 24.7657 91.1154 23.3672C89.5803 21.9422 88.8281 20.2321 88.8281 18.2371C88.8281 16.1394 89.5803 14.3762 91.0846 12.9474C92.6212 11.5223 94.5633 10.8184 96.9137 10.8184C98.9821 10.8184 100.674 11.5181 101.991 12.8861C102.085 11.7617 102.931 10.9708 104.09 10.9708C105.312 10.9637 106.191 11.8145 106.191 13.0314ZM97.5719 21.9678C98.7632 21.9678 99.7651 21.6045 100.55 20.9048C100.938 20.5753 101.248 20.1684 101.459 19.7119C101.67 19.2554 101.776 18.7601 101.772 18.2599C101.78 17.7633 101.674 17.2712 101.463 16.8189C101.252 16.3665 100.94 15.9652 100.55 15.6435C99.7651 14.9139 98.7632 14.5491 97.5719 14.5491C96.3805 14.5491 95.3786 14.9139 94.5633 15.6435C94.1831 15.9711 93.8801 16.3741 93.6748 16.8253C93.4695 17.2765 93.3667 17.7653 93.3733 18.2585C93.3696 18.7556 93.4736 19.2479 93.6786 19.7035C93.8836 20.1592 94.185 20.5679 94.5633 20.9033C95.392 21.6133 96.4665 21.9935 97.5719 21.9678Z" fill="#677798"/>
<path d="M107.627 19.0369C107.627 16.7264 108.474 14.7788 110.166 13.1942C111.858 11.5824 113.958 10.7915 116.465 10.7915C118.973 10.7915 121.04 11.5525 122.671 13.103C124.331 14.652 125.146 16.5687 125.146 18.8788C125.166 19.9749 124.951 21.0632 124.514 22.0743C124.077 23.0853 123.428 23.9971 122.608 24.7515C120.915 26.3323 118.815 27.1228 116.308 27.1228C113.801 27.1228 111.734 26.3632 110.072 24.8127C108.443 23.2637 107.627 21.3484 107.627 19.0369ZM119.38 21.8956C120.165 21.114 120.605 20.0657 120.605 18.9742C120.605 17.8828 120.165 16.8345 119.38 16.0529C118.596 15.2619 117.594 14.8672 116.402 14.8672C115.838 14.8531 115.278 14.9515 114.755 15.1565C114.232 15.3614 113.758 15.6685 113.363 16.0586C112.596 16.8492 112.168 17.8941 112.168 18.9799C112.168 20.0658 112.596 21.1107 113.363 21.9013C113.759 22.2904 114.233 22.5964 114.756 22.8004C115.278 23.0043 115.839 23.1019 116.402 23.087C117.594 23.0813 118.596 22.6851 119.38 21.9013V21.8956Z" fill="#677798"/>
<path d="M126.48 19.0369C126.48 16.7264 127.326 14.7788 129.019 13.1942C130.711 11.5824 132.81 10.7915 135.318 10.7915C137.826 10.7915 139.894 11.5525 141.523 13.103C143.185 14.652 143.999 16.5687 143.999 18.8788C144.019 19.9749 143.804 21.0632 143.367 22.0743C142.93 23.0853 142.28 23.9971 141.46 24.7515C139.768 26.3323 137.668 27.1228 135.161 27.1228C132.655 27.1228 130.586 26.3632 128.925 24.8127C127.295 23.2637 126.48 21.3484 126.48 19.0369ZM138.233 21.8956C139.018 21.114 139.458 20.0657 139.458 18.9742C139.458 17.8828 139.018 16.8345 138.233 16.0529C137.45 15.2619 136.446 14.8672 135.255 14.8672C134.691 14.8523 134.131 14.9499 133.608 15.1538C133.085 15.3578 132.611 15.6638 132.215 16.0529C131.448 16.8435 131.021 17.8884 131.021 18.9742C131.021 20.0601 131.448 21.105 132.215 21.8956C132.611 22.2847 133.085 22.5907 133.608 22.7947C134.131 22.9986 134.691 23.0962 135.255 23.0813C136.446 23.0813 137.45 22.6851 138.233 21.9013V21.8956Z" fill="#677798"/>
<path d="M12.6508 15.1323C11.8785 15.1323 11.1235 15.3545 10.4813 15.7708C9.83915 16.187 9.33868 16.7787 9.04318 17.4709C8.74769 18.1631 8.67045 18.9248 8.82123 19.6596C8.97201 20.3944 9.34405 21.0693 9.89028 21.599C10.4365 22.1287 11.1324 22.4893 11.8899 22.6353C12.6475 22.7813 13.4326 22.7061 14.1461 22.4192C14.8596 22.1322 15.4693 21.6465 15.8982 21.0234C16.327 20.4004 16.5558 19.6679 16.5555 18.9187C16.5544 17.9146 16.1425 16.9519 15.4105 16.2421C14.6784 15.5322 13.6859 15.1331 12.6508 15.1323Z" fill="#677798"/>
<path d="M13.0479 6.65071V6.32865C13.0479 4.65019 12.3606 3.04047 11.1371 1.85362C9.91361 0.666766 8.25421 0 6.52395 0C4.79369 0 3.1343 0.666766 1.91082 1.85362C0.687343 3.04047 3.64625e-08 4.65019 0 6.32865V18.9161C7.6596e-05 21.3267 0.732028 23.6838 2.10449 25.6933C3.47696 27.7028 5.42915 29.2757 7.71739 30.2156C10.0056 31.1555 12.5286 31.4208 14.9713 30.9784C17.414 30.5361 19.6683 29.4056 21.4528 27.7281C23.2373 26.0506 24.473 23.9004 25.0056 21.5459C25.5382 19.1914 25.3442 16.7368 24.4477 14.4886C23.5512 12.2404 21.9919 10.2982 19.9646 8.90427C17.9373 7.51037 15.5316 6.72657 13.0479 6.65071ZM12.6498 27.0147C10.4364 27.0124 8.31425 26.1584 6.74911 24.6402C5.18397 23.1219 4.30365 21.0633 4.30131 18.9161V6.32722C4.30131 5.75539 4.53548 5.20698 4.95231 4.80263C5.36914 4.39828 5.93447 4.17112 6.52395 4.17112C7.11344 4.17112 7.67877 4.39828 8.0956 4.80263C8.51242 5.20698 8.74659 5.75539 8.74659 6.32722V11.7595C9.86678 11.1823 11.1078 10.8603 12.3755 10.8181C13.6432 10.7758 14.9041 11.0143 16.0625 11.5156C17.2209 12.0168 18.2463 12.7675 19.0608 13.7108C19.8753 14.654 20.4576 15.7649 20.7632 16.959C21.0689 18.1532 21.09 19.3992 20.825 20.6025C20.5599 21.8058 20.0156 22.9346 19.2335 23.9033C18.4514 24.872 17.452 25.655 16.3112 26.1929C15.1704 26.7308 13.9182 27.0094 12.6498 27.0076V27.0147Z" fill="#677798"/>
</g>
</svg>
