<svg width="140" height="140" viewBox="0 0 140 140" fill="none" xmlns="http://www.w3.org/2000/svg">
<path d="M70 140C108.66 140 140 108.66 140 70C140 31.3401 108.66 0 70 0C31.3401 0 0 31.3401 0 70C0 108.66 31.3401 140 70 140Z" fill="#2CC84D"/>
<path d="M81.3173 93.8C79.9173 93.8 78.5173 92.9833 77.9339 91.5833L65.2173 62.0666H30.3339C28.2339 62.0666 26.6006 60.4333 26.6006 58.3333C26.6006 56.2333 28.2339 54.6 30.3339 54.6H67.6673C69.1839 54.6 70.4673 55.5333 71.0506 56.8166L84.8173 88.6666C85.6339 90.5333 84.8173 92.75 82.8339 93.5666C82.3673 93.6833 81.9006 93.8 81.3173 93.8Z" fill="#1A3D63"/>
<path d="M103.133 84.4667H1.5166C2.33327 88.3167 3.49993 92.05 4.89993 95.6667H103.133C104.183 95.6667 105 94.85 105 93.8V86.3333C105 85.2833 104.183 84.4667 103.133 84.4667Z" fill="#3C8F7C"/>
<path d="M69.9994 140C77.3494 140 84.3494 138.833 90.9994 136.85L99.3994 95.6666H4.89941C15.1661 121.683 40.3661 140 69.9994 140Z" fill="#3C8F7C"/>
<path d="M76.9999 84.4667H1.5166C2.33327 88.3167 3.49993 92.05 4.89994 95.6667H76.9999C78.0499 95.6667 78.8666 94.85 78.8666 93.8V86.3333C78.8666 85.2833 78.0499 84.4667 76.9999 84.4667Z" fill="white"/>
<path d="M67.4332 103.133H8.2832C19.2499 123.433 39.8999 137.667 64.0499 139.65C64.2832 139.183 64.3999 138.717 64.5165 138.133L70.8165 107.333C71.2832 105.233 69.6499 103.133 67.4332 103.133Z" fill="#A7DCAE"/>
<path d="M52.7338 119H49.0005C47.9505 119 47.1338 118.183 47.1338 117.133V109.667C47.1338 108.617 47.9505 107.8 49.0005 107.8H52.7338C53.7838 107.8 54.6005 108.617 54.6005 109.667V117.133C54.6005 118.183 53.7838 119 52.7338 119Z" fill="#2CC84D"/>
<path d="M37.8002 119H34.0669C33.0169 119 32.2002 118.183 32.2002 117.133V109.667C32.2002 108.617 33.0169 107.8 34.0669 107.8H37.8002C38.8502 107.8 39.6669 108.617 39.6669 109.667V117.133C39.6669 118.183 38.8502 119 37.8002 119Z" fill="#2CC84D"/>
<path d="M52.7338 133H49.0005C47.9505 133 47.1338 132.183 47.1338 131.133V123.667C47.1338 122.617 47.9505 121.8 49.0005 121.8H52.7338C53.7838 121.8 54.6005 122.617 54.6005 123.667V131.133C54.6005 132.183 53.7838 133 52.7338 133Z" fill="#2CC84D"/>
<path d="M16.6829 93.8C16.2162 93.8 15.6329 93.6833 15.1662 93.45C13.2996 92.6333 12.3662 90.4166 13.1829 88.55L26.8329 56.8166C27.6496 54.95 29.8662 54.0166 31.7329 54.8333C33.5996 55.65 34.5329 57.8666 33.7162 59.7333L20.0662 91.5833C19.4829 92.9833 18.0829 93.8 16.6829 93.8Z" fill="#244875"/>
<path d="M55.1832 93.8C53.7832 93.8 52.3832 92.9833 51.7999 91.5833L38.1499 59.8499C37.3332 57.9833 38.1499 55.7666 40.1332 54.9499C42.1166 54.1333 44.2166 54.9499 45.0332 56.9333L58.6832 88.6666C59.4999 90.5333 58.6832 92.75 56.6999 93.5666C56.2332 93.6833 55.7666 93.8 55.1832 93.8Z" fill="#244875"/>
<path d="M106.05 18.6666H62.0665C57.3998 18.6666 53.5498 22.5166 53.5498 27.1833V62.0666C53.5498 66.7333 57.3998 70.5833 62.0665 70.5833C63.2331 70.5833 63.9331 71.9833 63.2331 72.9166C62.4165 73.9666 61.5998 74.9 60.6665 75.7166C58.9165 77.35 59.8498 80.6166 62.1831 80.6166C68.0165 80.6166 73.4998 77.7 77.2331 72.8C78.2831 71.4 79.9165 70.5833 81.5498 70.5833H106.166C110.833 70.5833 114.683 66.7333 114.683 62.0666V27.1833C114.45 22.5166 110.716 18.6666 106.05 18.6666Z" fill="white"/>
<path d="M80.4997 57.75C79.5663 57.75 78.633 57.4 78.0497 56.7L64.633 43.4C63.233 42 63.233 39.7834 64.633 38.5C66.033 37.1 68.2497 37.1 69.533 38.5L80.383 49.35L98.3497 31.3834C99.7497 29.9834 101.966 29.9834 103.25 31.3834C104.65 32.7834 104.65 35 103.25 36.2834L82.9497 56.8167C82.2497 57.4 81.433 57.75 80.4997 57.75Z" fill="#2CC84D"/>
<path d="M37.8002 121.8H34.0669C33.0169 121.8 32.2002 122.617 32.2002 123.667V128.917C34.3002 130.317 36.5169 131.6 38.8502 132.65C39.3169 132.3 39.6669 131.717 39.6669 131.133V123.667C39.6669 122.617 38.8502 121.8 37.8002 121.8Z" fill="#2CC84D"/>
<path d="M22.8666 107.8H19.1333C18.0833 107.8 17.2666 108.617 17.2666 109.667V115.967C18.1999 117.017 19.1333 117.95 20.0666 119H22.8666C23.9166 119 24.7333 118.183 24.7333 117.133V109.667C24.7333 108.617 23.9166 107.8 22.8666 107.8Z" fill="#2CC84D"/>
</svg>
