<svg width="88" height="32" viewBox="0 0 88 32" fill="none" xmlns="http://www.w3.org/2000/svg">
<path d="M83.9854 0H4.0146C1.7974 0 0 1.7974 0 4.0146V27.9854C0 30.2026 1.7974 32 4.0146 32H83.9854C86.2026 32 88 30.2026 88 27.9854V4.0146C88 1.7974 86.2026 0 83.9854 0Z" fill="#0046AA"/>
<path fill-rule="evenodd" clip-rule="evenodd" d="M62.9488 11.8629C64.6782 11.8629 66.0802 10.4732 66.0802 8.75887C66.0802 7.04453 64.6782 5.65479 62.9488 5.65479C61.2194 5.65479 59.8174 7.04453 59.8174 8.75887C59.8174 10.4732 61.2194 11.8629 62.9488 11.8629ZM62.9488 11.2262C64.3234 11.2262 65.4378 10.1215 65.4378 8.75887C65.4378 7.39619 64.3234 6.29152 62.9488 6.29152C61.5741 6.29152 60.4597 7.39619 60.4597 8.75887C60.4597 10.1215 61.5741 11.2262 62.9488 11.2262Z" fill="white"/>
<path fill-rule="evenodd" clip-rule="evenodd" d="M70.7373 11.8629C72.4668 11.8629 73.8687 10.4732 73.8687 8.75887C73.8687 7.04453 72.4668 5.65479 70.7373 5.65479C69.0079 5.65479 67.606 7.04453 67.606 8.75887C67.606 10.4732 69.0079 11.8629 70.7373 11.8629ZM70.7373 11.2262C72.112 11.2262 73.2264 10.1215 73.2264 8.75887C73.2264 7.39619 72.112 6.29152 70.7373 6.29152C69.3627 6.29152 68.2483 7.39619 68.2483 8.75887C68.2483 10.1215 69.3627 11.2262 70.7373 11.2262Z" fill="white"/>
<path d="M78.5254 11.8629C80.2548 11.8629 81.6568 10.4732 81.6568 8.75887C81.6568 7.04453 80.2548 5.65479 78.5254 5.65479C76.796 5.65479 75.394 7.04453 75.394 8.75887C75.394 10.4732 76.796 11.8629 78.5254 11.8629Z" fill="white"/>
<path fill-rule="evenodd" clip-rule="evenodd" d="M62.9488 19.5832C64.6782 19.5832 66.0802 18.1934 66.0802 16.4791C66.0802 14.7647 64.6782 13.375 62.9488 13.375C61.2194 13.375 59.8174 14.7647 59.8174 16.4791C59.8174 18.1934 61.2194 19.5832 62.9488 19.5832ZM62.9488 18.9464C64.3234 18.9464 65.4378 17.8418 65.4378 16.4791C65.4378 15.1164 64.3234 14.0117 62.9488 14.0117C61.5741 14.0117 60.4597 15.1164 60.4597 16.4791C60.4597 17.8418 61.5741 18.9464 62.9488 18.9464Z" fill="white"/>
<path d="M70.7373 19.5832C72.4668 19.5832 73.8687 18.1934 73.8687 16.4791C73.8687 14.7647 72.4668 13.375 70.7373 13.375C69.0079 13.375 67.606 14.7647 67.606 16.4791C67.606 18.1934 69.0079 19.5832 70.7373 19.5832Z" fill="white"/>
<path d="M78.5254 19.5832C80.2548 19.5832 81.6568 18.1934 81.6568 16.4791C81.6568 14.7647 80.2548 13.375 78.5254 13.375C76.796 13.375 75.394 14.7647 75.394 16.4791C75.394 18.1934 76.796 19.5832 78.5254 19.5832Z" fill="white"/>
<path fill-rule="evenodd" clip-rule="evenodd" d="M62.9488 27.3039C64.6782 27.3039 66.0802 25.9141 66.0802 24.1998C66.0802 22.4854 64.6782 21.0957 62.9488 21.0957C61.2194 21.0957 59.8174 22.4854 59.8174 24.1998C59.8174 25.9141 61.2194 27.3039 62.9488 27.3039ZM62.9488 26.6671C64.3234 26.6671 65.4378 25.5625 65.4378 24.1998C65.4378 22.8371 64.3234 21.7324 62.9488 21.7324C61.5741 21.7324 60.4597 22.8371 60.4597 24.1998C60.4597 25.5625 61.5741 26.6671 62.9488 26.6671Z" fill="white"/>
<path fill-rule="evenodd" clip-rule="evenodd" d="M70.7373 27.3039C72.4668 27.3039 73.8687 25.9141 73.8687 24.1998C73.8687 22.4854 72.4668 21.0957 70.7373 21.0957C69.0079 21.0957 67.606 22.4854 67.606 24.1998C67.606 25.9141 69.0079 27.3039 70.7373 27.3039ZM70.7373 26.6671C72.112 26.6671 73.2264 25.5625 73.2264 24.1998C73.2264 22.8371 72.112 21.7324 70.7373 21.7324C69.3627 21.7324 68.2483 22.8371 68.2483 24.1998C68.2483 25.5625 69.3627 26.6671 70.7373 26.6671Z" fill="white"/>
<path d="M78.5254 27.3039C80.2548 27.3039 81.6568 25.9141 81.6568 24.1998C81.6568 22.4854 80.2548 21.0957 78.5254 21.0957C76.796 21.0957 75.394 22.4854 75.394 24.1998C75.394 25.9141 76.796 27.3039 78.5254 27.3039Z" fill="white"/>
<path fill-rule="evenodd" clip-rule="evenodd" d="M7.4672 13.9329C8.66449 13.9329 9.63508 12.9708 9.63508 11.7839C9.63508 10.5969 8.66449 9.63477 7.4672 9.63477C6.26991 9.63477 5.29932 10.5969 5.29932 11.7839C5.29932 12.9708 6.26991 13.9329 7.4672 13.9329ZM7.4672 13.296C8.30974 13.296 8.99275 12.6189 8.99275 11.7837C8.99275 10.9486 8.30974 10.2715 7.4672 10.2715C6.62466 10.2715 5.94165 10.9486 5.94165 11.7837C5.94165 12.6189 6.62466 13.296 7.4672 13.296Z" fill="white"/>
<path fill-rule="evenodd" clip-rule="evenodd" d="M14.8735 12.0514C14.8735 12.5796 14.6165 12.8488 13.972 12.8488H12.9263V11.2857H14.0024C14.637 11.2857 14.8735 11.5946 14.8735 12.0514ZM16.7104 12.0247C16.7104 10.4202 15.6472 9.82178 14.0459 9.82178H11.1079V16.466H12.9718V14.3119H13.92C15.5603 14.3119 16.7104 13.7134 16.7104 12.0247Z" fill="white"/>
<path fill-rule="evenodd" clip-rule="evenodd" d="M20.8854 13.9402H19.079L19.2818 13.4175C19.6714 12.4048 19.8417 11.9608 19.9816 11.4285C20.1216 11.9608 20.293 12.3932 20.6813 13.4175L20.8854 13.9402ZM23.4273 16.466L20.9482 9.82178H19.0346L16.5566 16.466H18.4292L18.8002 15.1456H21.1631L21.5341 16.466H23.4273Z" fill="white"/>
<path fill-rule="evenodd" clip-rule="evenodd" d="M27.4863 9.82178L26.959 10.8279C26.599 11.5211 26.3059 12.1547 26.1801 12.5432C26.1768 12.5359 26.1714 12.5241 26.1682 12.5166C26.0368 12.1259 25.7504 11.5074 25.3968 10.8279L24.8718 9.82178H22.6846L25.2123 14.018V16.466H27.125V13.9903L29.6529 9.82178H27.4863Z" fill="white"/>
<path fill-rule="evenodd" clip-rule="evenodd" d="M34.5483 14.3576C34.5483 14.7762 34.3128 15.0806 33.7953 15.0806H32.1516V13.6581H33.8073C34.3019 13.6581 34.5483 13.9307 34.5483 14.3576ZM34.3822 11.797C34.3822 12.1419 34.2107 12.3708 33.7291 12.3708H32.1626V11.2219H33.7291C34.2217 11.2219 34.3822 11.4732 34.3822 11.797ZM36.2928 14.3204C36.2928 13.5709 35.9315 13.1067 35.3174 12.851C35.7752 12.5934 36.1355 12.2718 36.1355 11.551C36.1355 10.4383 35.4433 9.82178 33.7454 9.82178H30.4473V16.466H33.727C35.4433 16.466 36.2928 15.679 36.2928 14.3204Z" fill="white"/>
<path fill-rule="evenodd" clip-rule="evenodd" d="M41.0796 13.941H39.2739L39.4757 13.4182C39.8631 12.4053 40.0367 11.9612 40.1767 11.4288C40.3155 11.9612 40.4893 12.3937 40.8767 13.4182L41.0796 13.941ZM43.6219 16.4672L41.1424 9.82178H39.2295L36.75 16.4672H38.6251L38.9939 15.1466H41.3584L41.7295 16.4672H43.6219Z" fill="white"/>
<path fill-rule="evenodd" clip-rule="evenodd" d="M49.9445 14.852L48.3425 14.0255C47.9705 14.6517 47.7174 14.967 47.1219 14.967C46.3013 14.967 45.9704 14.1586 45.9704 13.1436C45.9704 12.0882 46.3123 11.3203 47.1045 11.3203C47.7284 11.3203 47.9626 11.7101 48.207 12.3256L49.9248 11.6717C49.4549 10.4183 48.792 9.71533 47.1121 9.71533C45.2759 9.71533 43.9878 11.0072 43.9878 13.1436C43.9878 15.1076 45.0708 16.5688 47.1045 16.5688C48.7257 16.5688 49.4864 15.7253 49.9445 14.852Z" fill="white"/>
<path fill-rule="evenodd" clip-rule="evenodd" d="M57.2192 16.466L54.9258 12.1675L56.9851 9.82178H54.8648L54.265 10.4957C53.7973 11.0196 53.1723 11.7544 52.8502 12.1951C52.8404 12.2079 52.8261 12.226 52.8176 12.2378C52.8371 11.7544 52.8479 11.1591 52.8479 10.6022V9.82178H50.9146V16.466H52.8479V14.4631L53.5729 13.688L53.6183 13.639L55.187 16.466H57.2192Z" fill="white"/>
</svg>
