<svg width="44" height="44" viewBox="0 0 44 44" fill="none" xmlns="http://www.w3.org/2000/svg">
<circle cx="22" cy="22" r="22" fill="#2CC84D"/>
<path fill-rule="evenodd" clip-rule="evenodd" d="M14.6311 25.385C15.548 24.4681 16.7915 23.9531 18.0881 23.9531H25.9103C27.2069 23.9531 28.4505 24.4681 29.3673 25.385C30.2841 26.3018 30.7992 27.5453 30.7992 28.8419V30.7975C30.7992 31.3375 30.3615 31.7753 29.8214 31.7753C29.2814 31.7753 28.8437 31.3375 28.8437 30.7975V28.8419C28.8437 28.064 28.5346 27.3179 27.9845 26.7678C27.4344 26.2177 26.6883 25.9086 25.9103 25.9086H18.0881C17.3101 25.9086 16.564 26.2177 16.0139 26.7678C15.4638 27.3179 15.1548 28.064 15.1548 28.8419V30.7975C15.1548 31.3375 14.717 31.7753 14.177 31.7753C13.637 31.7753 13.1992 31.3375 13.1992 30.7975V28.8419C13.1992 27.5453 13.7143 26.3018 14.6311 25.385Z" fill="white"/>
<path fill-rule="evenodd" clip-rule="evenodd" d="M21.9992 14.1753C20.3792 14.1753 19.0659 15.4886 19.0659 17.1086C19.0659 18.7287 20.3792 20.0419 21.9992 20.0419C23.6193 20.0419 24.9326 18.7287 24.9326 17.1086C24.9326 15.4886 23.6193 14.1753 21.9992 14.1753ZM17.1103 17.1086C17.1103 14.4086 19.2992 12.2197 21.9992 12.2197C24.6993 12.2197 26.8881 14.4086 26.8881 17.1086C26.8881 19.8087 24.6993 21.9975 21.9992 21.9975C19.2992 21.9975 17.1103 19.8087 17.1103 17.1086Z" fill="white"/>
</svg>

