<svg width="10" height="8" viewBox="0 0 10 8" fill="none" xmlns="http://www.w3.org/2000/svg">
<path fill-rule="evenodd" clip-rule="evenodd" d="M5.19461 0.195262C5.45496 -0.0650874 5.87707 -0.0650874 6.13742 0.195262L9.47075 3.5286C9.7311 3.78894 9.7311 4.21106 9.47075 4.4714L6.13742 7.80474C5.87707 8.06509 5.45496 8.06509 5.19461 7.80474C4.93426 7.54439 4.93426 7.12228 5.19461 6.86193L8.05654 4L5.19461 1.13807C4.93426 0.877722 4.93426 0.455612 5.19461 0.195262Z" fill="#2B2D3A"/>
<path fill-rule="evenodd" clip-rule="evenodd" d="M0.332682 4C0.332682 3.63181 0.631159 3.33333 0.999349 3.33333L8.99935 3.33333C9.36754 3.33333 9.66602 3.63181 9.66602 4C9.66602 4.36819 9.36754 4.66667 8.99935 4.66667L0.999349 4.66667C0.631159 4.66667 0.332682 4.36819 0.332682 4Z" fill="#2B2D3A"/>
</svg>
