<svg width="22" height="20" viewBox="0 0 22 20" fill="none" xmlns="http://www.w3.org/2000/svg">
<path d="M7 2C7.55228 2 8 1.55228 8 1C8 0.447715 7.55228 0 7 0V2ZM4 1V0V1ZM2 3H1H2ZM1 6C1 6.55228 1.44772 7 2 7C2.55228 7 3 6.55228 3 6H1ZM19 6C19 6.55228 19.4477 7 20 7C20.5523 7 21 6.55228 21 6H19ZM18 1V0V1ZM15 0C14.4477 0 14 0.447715 14 1C14 1.55228 14.4477 2 15 2V0ZM15 18C14.4477 18 14 18.4477 14 19C14 19.5523 14.4477 20 15 20V18ZM21 14C21 13.4477 20.5523 13 20 13C19.4477 13 19 13.4477 19 14H21ZM3 14C3 13.4477 2.55228 13 2 13C1.44772 13 1 13.4477 1 14H3ZM2 17H1H2ZM7 20C7.55228 20 8 19.5523 8 19C8 18.4477 7.55228 18 7 18V20ZM1 9C0.447715 9 0 9.44771 0 10C0 10.5523 0.447715 11 1 11V9ZM21 11C21.5523 11 22 10.5523 22 10C22 9.44771 21.5523 9 21 9V11ZM7 0H4V2H7V0ZM4 0C3.20435 0 2.44129 0.31607 1.87868 0.87868L3.29289 2.29289C3.48043 2.10536 3.73478 2 4 2V0ZM1.87868 0.87868C1.31607 1.44129 1 2.20435 1 3H3C3 2.73478 3.10536 2.48043 3.29289 2.29289L1.87868 0.87868ZM1 3V6H3V3H1ZM21 6V3H19V6H21ZM21 3C21 2.20435 20.6839 1.44129 20.1213 0.87868L18.7071 2.29289C18.8946 2.48043 19 2.73478 19 3H21ZM20.1213 0.87868C19.5587 0.31607 18.7957 0 18 0V2C18.2652 2 18.5196 2.10536 18.7071 2.29289L20.1213 0.87868ZM18 0H15V2H18V0ZM15 20H18V18H15V20ZM18 20C18.7957 20 19.5587 19.6839 20.1213 19.1213L18.7071 17.7071C18.5196 17.8946 18.2652 18 18 18V20ZM20.1213 19.1213C20.6839 18.5587 21 17.7957 21 17H19C19 17.2652 18.8946 17.5196 18.7071 17.7071L20.1213 19.1213ZM21 17V14H19V17H21ZM1 14V17H3V14H1ZM1 17C1 17.7957 1.31607 18.5587 1.87868 19.1213L3.29289 17.7071C3.10536 17.5196 3 17.2652 3 17H1ZM1.87868 19.1213C2.44129 19.6839 3.20435 20 4 20V18C3.73478 18 3.48043 17.8946 3.29289 17.7071L1.87868 19.1213ZM4 20H7V18H4V20ZM1 11H21V9H1V11Z" fill="white"/>
</svg>
