<svg width="14" height="16" viewBox="0 0 14 16" fill="none" xmlns="http://www.w3.org/2000/svg">
<path fill-rule="evenodd" clip-rule="evenodd" d="M0.333496 4.00033C0.333496 3.63214 0.631973 3.33366 1.00016 3.33366H13.0002C13.3684 3.33366 13.6668 3.63214 13.6668 4.00033C13.6668 4.36852 13.3684 4.66699 13.0002 4.66699H1.00016C0.631973 4.66699 0.333496 4.36852 0.333496 4.00033Z" fill="white"/>
<path fill-rule="evenodd" clip-rule="evenodd" d="M5.66683 2.00033C5.49002 2.00033 5.32045 2.07056 5.19543 2.19559C5.0704 2.32061 5.00016 2.49018 5.00016 2.66699V3.33366H9.00016V2.66699C9.00016 2.49018 8.92992 2.32061 8.8049 2.19559C8.67988 2.07056 8.51031 2.00033 8.3335 2.00033H5.66683ZM10.3335 3.33366V2.66699C10.3335 2.13656 10.1228 1.62785 9.74771 1.25278C9.37264 0.877706 8.86393 0.666992 8.3335 0.666992H5.66683C5.1364 0.666992 4.62769 0.877706 4.25262 1.25278C3.87754 1.62785 3.66683 2.13656 3.66683 2.66699V3.33366H2.3335C1.96531 3.33366 1.66683 3.63214 1.66683 4.00033V13.3337C1.66683 13.8641 1.87754 14.3728 2.25262 14.7479C2.62769 15.1229 3.1364 15.3337 3.66683 15.3337H10.3335C10.8639 15.3337 11.3726 15.1229 11.7477 14.7479C12.1228 14.3728 12.3335 13.8641 12.3335 13.3337V4.00033C12.3335 3.63214 12.035 3.33366 11.6668 3.33366H10.3335ZM3.00016 4.66699V13.3337C3.00016 13.5105 3.0704 13.68 3.19543 13.8051C3.32045 13.9301 3.49002 14.0003 3.66683 14.0003H10.3335C10.5103 14.0003 10.6799 13.9301 10.8049 13.8051C10.9299 13.68 11.0002 13.5105 11.0002 13.3337V4.66699H3.00016Z" fill="white"/>
</svg>
