<svg width="294" height="387" viewBox="0 0 294 387" fill="none" xmlns="http://www.w3.org/2000/svg">
<path opacity="0.04" d="M146.999 112.575C123.029 112.555 99.4224 118.042 78.2614 128.551V36.5253C78.2614 26.8382 74.1387 17.5478 66.8003 10.698C59.4619 3.84817 49.5088 0 39.1307 0C28.7526 0 18.7996 3.84817 11.4611 10.698C4.12269 17.5478 0 26.8382 0 36.5253V249.787C0 325.447 65.9442 387 146.999 387C228.055 387 294 325.447 294 249.787C294 174.127 228.056 112.575 146.999 112.575ZM146.999 313.95C133.404 313.95 120.114 310.187 108.81 303.137C97.5061 296.087 88.6957 286.066 83.4929 274.342C78.2902 262.618 76.9289 249.717 79.5811 237.271C82.2334 224.825 88.78 213.392 98.3933 204.419C108.006 195.445 120.255 189.334 133.589 186.859C146.923 184.383 160.744 185.653 173.304 190.509C185.864 195.366 196.6 203.589 204.153 214.141C211.707 224.692 215.738 237.097 215.739 249.787C215.719 266.798 208.47 283.108 195.583 295.136C182.697 307.165 165.224 313.931 146.999 313.95Z" fill="#C4E8C9"/>
</svg>
