<svg width="491" height="497" viewBox="0 0 491 497" fill="none" xmlns="http://www.w3.org/2000/svg">
<g opacity="0.2">
<g opacity="0.8">
<path d="M245.5 221.676C237.684 221.669 229.986 223.463 223.086 226.898V196.816C223.086 193.649 221.742 190.612 219.349 188.373C216.956 186.134 213.711 184.876 210.327 184.876C206.943 184.876 203.697 186.134 201.304 188.373C198.911 190.612 197.567 193.649 197.567 196.816V266.53C197.567 291.262 219.07 311.384 245.5 311.384C271.93 311.384 293.434 291.262 293.434 266.53C293.434 241.797 271.931 221.676 245.5 221.676ZM245.5 287.504C241.067 287.504 236.733 286.274 233.047 283.969C229.361 281.665 226.489 278.389 224.792 274.556C223.096 270.724 222.652 266.507 223.517 262.438C224.381 258.37 226.516 254.632 229.651 251.699C232.785 248.766 236.779 246.768 241.127 245.959C245.475 245.149 249.982 245.565 254.077 247.152C258.173 248.74 261.674 251.428 264.137 254.877C266.6 258.326 267.914 262.381 267.914 266.53C267.908 272.09 265.544 277.422 261.342 281.354C257.14 285.286 251.443 287.498 245.5 287.504Z" fill="#C4E8C9"/>
</g>
<path opacity="0.8" d="M210.326 161.766C220.257 161.776 229.778 165.472 236.799 172.043C243.821 178.614 247.771 187.523 247.782 196.816V198.601C286.779 199.73 318.127 229.768 318.127 266.53C318.127 304.005 285.546 334.493 245.498 334.493C205.45 334.493 172.871 304.005 172.871 266.53V196.816C172.882 187.523 176.832 178.614 183.853 172.043C190.875 165.472 200.396 161.776 210.326 161.766ZM210.326 138.655C176.056 138.655 148.175 164.745 148.175 196.814V266.53C148.175 316.747 191.835 357.602 245.5 357.602C299.164 357.602 342.824 316.748 342.824 266.53C342.796 246.24 335.543 226.538 322.21 210.537C308.878 194.537 290.227 183.151 269.206 178.178C260.885 155.223 237.633 138.656 210.326 138.656V138.655Z" fill="#C4E8C9"/>
<path opacity="0.6" d="M210.326 115.547C226.206 115.545 241.782 119.619 255.361 127.323C268.939 135.028 280 146.069 287.341 159.246C310.829 167.305 331.111 181.912 345.448 201.096C359.786 220.281 367.49 243.119 367.52 266.529C367.52 329.49 312.782 380.711 245.5 380.711C178.217 380.711 123.479 329.49 123.479 266.529V196.816C123.479 152.004 162.438 115.548 210.326 115.548V115.547ZM210.326 92.4378C148.821 92.4378 98.783 139.261 98.783 196.815V266.529C98.783 342.232 164.6 403.821 245.499 403.821C326.399 403.821 392.217 342.232 392.217 266.529C392.288 230.8 377.391 196.468 350.722 170.898C337.499 158.182 321.789 147.961 304.446 140.792C294.372 125.973 280.465 113.772 264.013 105.319C247.561 96.867 229.095 92.4361 210.326 92.4372V92.4378Z" fill="#C4E8C9"/>
<path opacity="0.4" d="M210.326 69.3284C231.978 69.3266 253.318 74.1546 272.577 83.4121C291.837 92.6695 308.461 106.09 321.07 122.56C338.693 130.723 354.708 141.623 368.436 154.796C399.698 184.91 416.912 224.593 416.912 266.53C416.912 354.975 340.016 426.93 245.499 426.93C150.982 426.93 74.0871 354.975 74.0871 266.53V196.816C74.0871 126.52 135.204 69.3297 210.326 69.3297V69.3284ZM210.326 46.2196C121.586 46.2189 49.3911 113.776 49.3911 196.816V266.53C49.3911 367.717 137.365 450.04 245.499 450.04C353.633 450.04 441.608 367.718 441.608 266.53C441.608 218.544 421.912 173.145 386.15 138.694C371.877 125.013 355.445 113.463 337.426 104.447C325.436 90.0565 310.779 77.7989 294.155 68.2592C268.909 53.8403 239.903 46.2141 210.326 46.2189V46.2196Z" fill="#9DD9A5"/>
<path opacity="0.3" d="M210.326 23.1101C244.443 23.1048 277.901 31.9019 307.022 48.5344C324.673 58.6752 340.415 71.471 353.615 86.4065C372.102 96.1928 389.019 108.375 403.862 122.593C444.126 161.381 466.301 212.499 466.301 266.53C466.301 380.46 367.248 473.149 245.496 473.149C123.744 473.149 24.696 380.46 24.696 266.53V196.816C24.696 101.035 107.969 23.1114 210.326 23.1114V23.1101ZM210.326 0.00128014C94.352 0.00128014 0 88.2921 0 196.816V266.53C0 393.204 110.131 496.258 245.498 496.258C380.866 496.258 491 393.204 491 266.53C491 206.452 466.346 149.616 421.58 106.491C406.15 91.7182 388.705 78.9149 369.696 68.4123C355.36 52.901 338.562 39.5438 319.889 28.8087C286.893 9.96265 248.983 -0.00550004 210.326 2.27668e-06V0.00128014Z" fill="#C4E8C9"/>
</g>
</svg>
