<svg width="21" height="21" viewBox="0 0 21 21" fill="none" xmlns="http://www.w3.org/2000/svg">
<path d="M2.00033 20C1.83715 20.0087 1.67434 19.9772 1.52614 19.9084C1.37793 19.8396 1.24885 19.7355 1.15017 19.6053C1.0515 19.475 0.98625 19.3226 0.960127 19.1613C0.934005 19 0.947806 18.8347 1.00033 18.68L2.77033 13.37C2.24761 12.1475 1.98537 10.8295 2.00033 9.5C2.00559 6.98552 3.00542 4.57524 4.78156 2.79536C6.55769 1.01547 8.96586 0.0105596 11.4803 0H12.0003C14.3407 0.112765 16.5561 1.08913 18.2184 2.74037C19.8807 4.39161 20.8719 6.60047 21.0003 8.94V9.5C21.0018 10.9751 20.6594 12.4303 20.0003 13.75C19.2109 15.3282 17.9975 16.6553 16.4962 17.5826C14.9949 18.5099 13.2649 19.0007 11.5003 19C10.1738 18.9991 8.86215 18.7197 7.65032 18.18L2.32033 20C2.21414 20.0144 2.10651 20.0144 2.00033 20ZM11.4803 2C10.3239 2.00025 9.1836 2.27078 8.15032 2.79C6.37077 3.67852 5.01704 5.23755 4.38692 7.12415C3.7568 9.01075 3.90191 11.0704 4.79033 12.85C4.85087 12.968 4.88736 13.0968 4.89766 13.229C4.90796 13.3612 4.89187 13.4941 4.85033 13.62L3.58033 17.42L7.38033 16.15C7.50624 16.1085 7.63916 16.0924 7.77135 16.1027C7.90354 16.113 8.03237 16.1495 8.15032 16.21C9.1836 16.7292 10.3239 16.9998 11.4803 17C12.4669 17.0026 13.4443 16.8106 14.3566 16.4348C15.2688 16.0591 16.098 15.5071 16.7966 14.8104C17.4951 14.1137 18.0494 13.286 18.4275 12.3748C18.8057 11.4635 19.0003 10.4866 19.0003 9.5V9C18.8833 7.17168 18.1002 5.44965 16.7992 4.15973C15.4982 2.8698 13.7696 2.10144 11.9403 2H11.4803Z" fill="#2CC84D"/>
</svg>
