<svg width="36" height="43" viewBox="0 0 36 43" fill="none" xmlns="http://www.w3.org/2000/svg">
<g filter="url(#filter0_d_101_44)">
<path d="M25.5 18.5L27 22.5L25.5 27L21.5 31H17L12 28.5L10 24.5V17L10.5 9.5L13.5 8L16 9.5L18 13L23 15.5L25.5 18.5Z" fill="white"/>
<path d="M18 18.8525C17.3896 18.8525 16.7929 19.0421 16.2854 19.3972C15.7779 19.7523 15.3823 20.2571 15.1487 20.8476C14.9152 21.4382 14.854 22.088 14.9731 22.715C15.0922 23.3419 15.3861 23.9178 15.8177 24.3698C16.2493 24.8218 16.7992 25.1296 17.3979 25.2543C17.9966 25.379 18.6171 25.315 19.181 25.0704C19.7449 24.8257 20.2269 24.4115 20.566 23.88C20.9051 23.3485 21.0861 22.7237 21.0861 22.0845C21.0852 21.2276 20.7597 20.4062 20.1811 19.8003C19.6026 19.1944 18.8182 18.8536 18 18.8525V18.8525Z" fill="#FFD42D"/>
<path d="M18.3141 11.6173V11.3419C18.2993 9.91981 17.7494 8.56122 16.7839 7.56109C15.8183 6.56095 14.5151 6 13.157 6C11.799 6 10.4957 6.56095 9.53023 7.56109C8.56471 8.56122 8.01484 9.91981 8 11.3419V22.0845C8 27.8588 12.4861 32.5574 18 32.5574C23.5139 32.5574 28 27.8595 28 22.0851C28 16.4197 23.6833 11.7895 18.3141 11.6173ZM18 28.9959C16.2502 28.9939 14.5727 28.265 13.3354 26.9693C12.0982 25.6736 11.4022 23.9169 11.4003 22.0845V11.3419C11.421 10.869 11.615 10.4226 11.9419 10.0957C12.2688 9.76866 12.7034 9.5862 13.1555 9.5862C13.6076 9.5862 14.0422 9.76866 14.3691 10.0957C14.6961 10.4226 14.89 10.869 14.9108 11.3419V15.9779C15.7963 15.4872 16.7769 15.2142 17.7782 15.1794C18.7795 15.1446 19.7752 15.3491 20.6898 15.7772C21.6044 16.2054 22.4139 16.8461 23.0569 17.6506C23.6999 18.4552 24.1595 19.4025 24.4009 20.4207C24.6423 21.439 24.6592 22.5014 24.4501 23.5275C24.2411 24.5536 23.8117 25.5163 23.1945 26.3428C22.5773 27.1692 21.7886 27.8376 20.888 28.2973C19.9875 28.757 18.9988 28.9959 17.9969 28.9959H18Z" fill="#FFD42D"/>
</g>
<defs>
<filter id="filter0_d_101_44" x="-8" y="-1" width="48" height="46.2636" filterUnits="userSpaceOnUse" color-interpolation-filters="sRGB">
<feFlood flood-opacity="0" result="BackgroundImageFix"/>
<feColorMatrix in="SourceAlpha" type="matrix" values="0 0 0 0 0 0 0 0 0 0 0 0 0 0 0 0 0 0 127 0" result="hardAlpha"/>
<feOffset dy="2"/>
<feGaussianBlur stdDeviation="4"/>
<feColorMatrix type="matrix" values="0 0 0 0 0.0627451 0 0 0 0 0.113725 0 0 0 0 0.156863 0 0 0 0.08 0"/>
<feBlend mode="normal" in2="BackgroundImageFix" result="effect1_dropShadow_101_44"/>
<feBlend mode="normal" in="SourceGraphic" in2="effect1_dropShadow_101_44" result="shape"/>
</filter>
</defs>
</svg>
