<svg width="40" height="45" viewBox="0 0 40 45" fill="none" xmlns="http://www.w3.org/2000/svg">
<g filter="url(#filter0_d_1_5)">
<path d="M32 17.6096C32 26.4364 20 34.0023 20 34.0023C20 34.0023 8 26.4364 8 17.6096C8 14.5997 9.26428 11.713 11.5147 9.58472C13.7652 7.4564 16.8174 6.26073 20 6.26073C23.1826 6.26073 26.2348 7.4564 28.4853 9.58472C30.7357 11.713 32 14.5997 32 17.6096Z" fill="#FF0000"/>
<path d="M20 21.3925C22.2091 21.3925 24 19.6988 24 17.6096C24 15.5203 22.2091 13.8266 20 13.8266C17.7909 13.8266 16 15.5203 16 17.6096C16 19.6988 17.7909 21.3925 20 21.3925Z" fill="white"/>
</g>
<defs>
<filter id="filter0_d_1_5" x="-4" y="-1" width="48" height="46.2636" filterUnits="userSpaceOnUse" color-interpolation-filters="sRGB">
<feFlood flood-opacity="0" result="BackgroundImageFix"/>
<feColorMatrix in="SourceAlpha" type="matrix" values="0 0 0 0 0 0 0 0 0 0 0 0 0 0 0 0 0 0 127 0" result="hardAlpha"/>
<feOffset dy="2"/>
<feGaussianBlur stdDeviation="4"/>
<feColorMatrix type="matrix" values="0 0 0 0 0.0627451 0 0 0 0 0.113725 0 0 0 0 0.156863 0 0 0 0.08 0"/>
<feBlend mode="normal" in2="BackgroundImageFix" result="effect1_dropShadow_1_5"/>
<feBlend mode="normal" in="SourceGraphic" in2="effect1_dropShadow_1_5" result="shape"/>
</filter>
</defs>
</svg>
