<svg width="238" height="302" viewBox="0 0 238 302" fill="none" xmlns="http://www.w3.org/2000/svg">
<path d="M119.37 146.055C112.129 146.055 105.05 148.202 99.0298 152.225C93.0091 156.248 88.3166 161.966 85.5456 168.656C82.7746 175.345 82.0495 182.707 83.4622 189.808C84.8748 196.91 88.3617 203.434 93.4819 208.554C98.602 213.674 105.126 217.161 112.227 218.574C119.329 219.986 126.691 219.261 133.38 216.49C140.07 213.719 145.788 209.027 149.811 203.006C153.834 196.985 155.981 189.907 155.981 182.666C155.969 172.96 152.108 163.654 145.245 156.791C138.382 149.927 129.076 146.066 119.37 146.055V146.055Z" fill="#2CC84D"/>
<path d="M123.096 64.0945V60.9747C122.92 44.8651 116.397 29.4751 104.943 18.1456C93.4891 6.81606 78.0287 0.461578 61.9181 0.461578C45.8075 0.461578 30.3471 6.81606 18.8931 18.1456C7.43909 29.4751 0.916041 44.8651 0.73999 60.9747V182.666C0.73999 248.078 53.958 301.303 119.37 301.303C184.782 301.303 238 248.085 238 182.673C238 118.496 186.791 66.0452 123.096 64.0945ZM119.37 260.959C98.6126 260.936 78.712 252.679 64.0343 238.002C49.3566 223.324 41.1005 203.423 41.0773 182.666V60.9747C41.3231 55.6175 43.6243 50.5612 47.5024 46.857C51.3804 43.1529 56.5369 41.0859 61.8998 41.0859C67.2626 41.0859 72.4192 43.1529 76.2972 46.857C80.1753 50.5612 82.4765 55.6175 82.7223 60.9747V113.491C93.2272 107.933 104.86 104.839 116.738 104.446C128.617 104.052 140.429 106.368 151.279 111.218C162.129 116.068 171.732 123.326 179.36 132.44C186.988 141.554 192.441 152.285 195.304 163.819C198.168 175.354 198.368 187.389 195.888 199.013C193.408 210.636 188.314 221.542 180.993 230.904C173.671 240.266 164.314 247.837 153.63 253.045C142.947 258.252 131.218 260.959 119.333 260.959H119.37Z" fill="#2CC84D"/>
</svg>
