<svg width="88" height="20" viewBox="0 0 88 20" fill="none" xmlns="http://www.w3.org/2000/svg">
<path d="M29.5968 8.21763C30.5272 9.18667 30.9831 10.3837 30.9831 11.8088C30.9831 13.2338 30.5085 14.4496 29.5585 15.4605C28.6085 16.4713 27.4698 16.9612 26.1592 16.9612C24.8486 16.9612 23.8042 16.4669 23.0064 15.4605V15.5932C23.0064 16.3342 22.4722 16.8659 21.7332 16.8659C20.9738 16.8659 20.4609 16.3315 20.4609 15.5932V4.74051C20.4609 3.92378 21.0308 3.37246 21.8472 3.37246C22.028 3.36807 22.2078 3.40045 22.3757 3.46765C22.5436 3.53484 22.6961 3.63545 22.824 3.76337C22.9519 3.89129 23.0525 4.04386 23.1196 4.21183C23.1868 4.37979 23.2192 4.55966 23.2148 4.74051V8.16063C23.9938 7.2299 25.0195 6.75429 26.2536 6.75429C27.5642 6.75429 28.6664 7.2486 29.5968 8.21763ZM25.665 14.4309C26.3871 14.4309 26.9952 14.1832 27.4698 13.6898C27.9458 13.2013 28.2121 12.5461 28.2121 11.864C28.2121 11.1818 27.9458 10.5266 27.4698 10.0381C26.9952 9.54382 26.3871 9.29711 25.665 9.29711C25.3264 9.29 24.9898 9.3524 24.6762 9.48046C24.3626 9.60853 24.0785 9.79954 23.8416 10.0417C23.3772 10.5362 23.1187 11.1891 23.1187 11.8675C23.1187 12.546 23.3772 13.1989 23.8416 13.6934C24.0793 13.9341 24.3636 14.1237 24.6772 14.2505C24.9907 14.3773 25.3269 14.4387 25.665 14.4309Z" fill="#4FBA5D"/>
<path d="M32.0007 8.0609C31.9954 7.90004 32.0231 7.7398 32.0822 7.59007C32.1412 7.44034 32.2303 7.30431 32.3439 7.19038C32.4576 7.07645 32.5934 6.98703 32.7429 6.92765C32.8925 6.86827 33.0526 6.8402 33.2134 6.84516C33.9543 6.84516 34.4484 7.35817 34.4484 8.0609L34.4671 8.86249C35.0753 7.45704 35.987 6.75342 37.2211 6.75342C38.0572 6.75342 38.6458 7.34303 38.6458 8.15976C38.6458 9.01479 38.0572 9.58481 37.2211 9.58481C35.7021 9.58481 34.7521 10.5538 34.7521 12.4349V15.4703C34.7521 16.287 34.2018 16.857 33.3844 16.857C32.567 16.857 31.998 16.287 31.998 15.4703L32.0007 8.0609Z" fill="#4FBA5D"/>
<path d="M39.1348 4.24825C39.1348 3.3371 39.8185 2.65308 40.8059 2.65308C41.7746 2.65308 42.4584 3.3371 42.4584 4.24825C42.4584 5.17988 41.7746 5.84431 40.8059 5.84431C39.8185 5.84431 39.1348 5.17988 39.1348 4.24825ZM42.193 8.25622V15.459C42.193 16.2757 41.6232 16.8645 40.8059 16.8645C39.9708 16.8645 39.401 16.2757 39.401 15.459V8.26246C39.401 7.44483 39.9708 6.8561 40.8059 6.8561C41.6232 6.85165 42.193 7.44038 42.193 8.26246V8.25622Z" fill="#4FBA5D"/>
<path d="M51.886 7.83597C52.5885 8.53959 52.9304 9.52822 52.9304 10.7814V15.4733C52.9304 16.2901 52.3605 16.8601 51.5441 16.8601C50.7276 16.8601 50.1764 16.2901 50.1764 15.4733V11.6747C50.1764 10.0973 49.3973 9.29932 48.2586 9.29932C47.0423 9.29932 46.1875 10.116 46.1875 11.7691V15.4733C46.1875 16.2901 45.6373 16.8601 44.8199 16.8601C44.0025 16.8601 43.4336 16.291 43.4336 15.4733V8.14057C43.4336 7.39955 43.9678 6.84823 44.7255 6.84823C45.4663 6.84823 45.9979 7.39955 45.9979 8.14057V8.48258C46.6817 7.34254 47.8971 6.75293 49.246 6.75293C50.3287 6.75293 51.2021 7.11454 51.886 7.83597Z" fill="#4FBA5D"/>
<path d="M64.3587 8.14465V14.3195C64.3587 16.0483 63.8646 17.4368 62.8959 18.461C61.9272 19.4853 60.5597 20.0001 58.7933 20.0001C57.1221 20.0001 55.7163 19.6438 54.5963 18.917C54.1404 18.6498 53.9116 18.2936 53.9116 17.8536C53.9116 17.1883 54.3488 16.7323 55.0138 16.7323C55.2035 16.7323 55.451 16.808 55.7546 16.9416C56.7037 17.435 57.635 17.6826 58.5654 17.6826C60.4644 17.6826 61.5853 16.694 61.5853 14.9269V14.7185C60.8829 15.5201 59.8937 15.9155 58.641 15.9155C57.2931 15.9155 56.1535 15.4785 55.2222 14.6045C54.2918 13.7139 53.8359 12.6451 53.8359 11.3982C53.8359 10.0872 54.2918 8.98512 55.2035 8.0921C56.1348 7.20145 57.3118 6.76147 58.7363 6.76147C59.9899 6.76147 61.0155 7.19878 61.8133 8.0538C61.8703 7.35108 62.3831 6.85677 63.0856 6.85677C63.8263 6.85232 64.3587 7.38404 64.3587 8.14465ZM59.1352 13.7299C59.8572 13.7299 60.4644 13.5028 60.9399 13.0655C61.175 12.8595 61.3629 12.6052 61.4908 12.3199C61.6186 12.0346 61.6834 11.7251 61.6806 11.4124C61.6854 11.1021 61.6214 10.7945 61.4934 10.5118C61.3653 10.2291 61.1763 9.97823 60.9399 9.77721C60.4644 9.32119 59.8572 9.09319 59.1352 9.09319C58.4131 9.09319 57.8059 9.32119 57.3118 9.77721C57.0814 9.98191 56.8977 10.2338 56.7733 10.5158C56.6489 10.7978 56.5866 11.1033 56.5906 11.4115C56.5884 11.7222 56.6514 12.0299 56.7756 12.3147C56.8999 12.5995 57.0825 12.855 57.3118 13.0646C57.814 13.5083 58.4653 13.7459 59.1352 13.7299Z" fill="#4FBA5D"/>
<path d="M65.2285 11.898C65.2285 10.454 65.7414 9.23672 66.767 8.24629C67.7927 7.23895 69.065 6.74463 70.5849 6.74463C72.1047 6.74463 73.3574 7.22025 74.3457 8.18929C75.3518 9.15745 75.846 10.3554 75.846 11.7992C75.8582 12.4843 75.7277 13.1644 75.4628 13.7964C75.1979 14.4283 74.8045 14.9981 74.3074 15.4696C73.2817 16.4577 72.0091 16.9517 70.4896 16.9517C68.9698 16.9517 67.717 16.477 66.7101 15.5079C65.7227 14.5398 65.2285 13.3427 65.2285 11.898ZM72.3513 13.6847C72.8273 13.1962 73.0937 12.541 73.0937 11.8588C73.0937 11.1767 72.8273 10.5215 72.3513 10.033C71.8759 9.53865 71.2687 9.29194 70.5466 9.29194C70.2049 9.2831 69.8651 9.34463 69.5482 9.47273C69.2313 9.60082 68.9441 9.79273 68.7044 10.0365C68.2395 10.5307 67.9806 11.1838 67.9806 11.8624C67.9806 12.541 68.2395 13.1941 68.7044 13.6883C68.9444 13.9314 69.2317 14.1227 69.5486 14.2502C69.8655 14.3776 70.2052 14.4386 70.5466 14.4293C71.2687 14.4257 71.8759 14.1781 72.3513 13.6883V13.6847Z" fill="#4FBA5D"/>
<path d="M76.6543 11.898C76.6543 10.454 77.1671 9.23672 78.1928 8.24629C79.2185 7.23895 80.4908 6.74463 82.0107 6.74463C83.5305 6.74463 84.7841 7.22025 85.7715 8.18929C86.7785 9.15745 87.2717 10.3554 87.2717 11.7992C87.284 12.4843 87.1535 13.1644 86.8886 13.7964C86.6237 14.4283 86.2302 14.9981 85.7332 15.4696C84.7075 16.4577 83.4349 16.9517 81.9154 16.9517C80.3964 16.9517 79.1428 16.477 78.1358 15.5079C77.1484 14.5398 76.6543 13.3427 76.6543 11.898ZM83.7771 13.6847C84.2531 13.1962 84.5195 12.541 84.5195 11.8588C84.5195 11.1767 84.2531 10.5215 83.7771 10.033C83.3026 9.53865 82.6944 9.29194 81.9724 9.29194C81.6309 9.28263 81.2913 9.34361 80.9744 9.47109C80.6575 9.59856 80.3702 9.78981 80.1302 10.033C79.6653 10.5271 79.4063 11.1802 79.4063 11.8588C79.4063 12.5375 79.6653 13.1905 80.1302 13.6847C80.3702 13.9279 80.6575 14.1191 80.9744 14.2466C81.2913 14.3741 81.6309 14.4351 81.9724 14.4257C82.6944 14.4257 83.3026 14.1781 83.7771 13.6883V13.6847Z" fill="#4FBA5D"/>
<path d="M7.66727 9.45776C7.19919 9.45776 6.74162 9.59663 6.35243 9.8568C5.96324 10.117 5.65992 10.4868 5.48084 10.9194C5.30175 11.352 5.25494 11.8281 5.34632 12.2873C5.4377 12.7466 5.66318 13.1684 5.99423 13.4994C6.32528 13.8305 6.74703 14.0559 7.20614 14.1471C7.66525 14.2384 8.1411 14.1913 8.57351 14.012C9.00591 13.8327 9.37545 13.5291 9.63537 13.1397C9.8953 12.7503 10.0339 12.2925 10.0338 11.8242C10.0331 11.1967 9.78348 10.595 9.3398 10.1514C8.89613 9.70768 8.29461 9.45824 7.66727 9.45776Z" fill="#4FBA5D"/>
<path d="M7.90782 4.15669V3.9554C7.90782 2.90637 7.49125 1.90029 6.74975 1.15851C6.00825 0.416729 5.00255 0 3.95391 0C2.90527 0 1.89958 0.416729 1.15807 1.15851C0.416571 1.90029 2.20985e-08 2.90637 0 3.9554V11.8226C4.64218e-05 13.3292 0.443654 14.8024 1.27545 16.0583C2.10725 17.3142 3.29039 18.2973 4.6772 18.8847C6.06401 19.4722 7.59307 19.638 9.0735 19.3615C10.5539 19.085 11.9202 18.3785 13.0017 17.33C14.0832 16.2816 14.8321 14.9377 15.1549 13.4662C15.4777 11.9946 15.3601 10.4605 14.8168 9.05539C14.2734 7.65027 13.3284 6.43636 12.0998 5.56517C10.8711 4.69398 9.41309 4.20411 7.90782 4.15669ZM7.66655 16.8842C6.32507 16.8828 5.03894 16.349 4.09037 15.4001C3.1418 14.4512 2.60827 13.1646 2.60686 11.8226V3.95451C2.60686 3.59712 2.74878 3.25436 3.0014 3.00164C3.25402 2.74893 3.59665 2.60695 3.95391 2.60695C4.31117 2.60695 4.6538 2.74893 4.90642 3.00164C5.15904 3.25436 5.30097 3.59712 5.30097 3.95451V7.3497C5.97987 6.98894 6.73202 6.78771 7.5003 6.76129C8.26858 6.73487 9.03278 6.88396 9.73484 7.19723C10.4369 7.5105 11.0584 7.97971 11.552 8.56922C12.0457 9.15873 12.3985 9.85303 12.5838 10.5994C12.769 11.3457 12.7818 12.1245 12.6212 12.8766C12.4605 13.6286 12.1307 14.3341 11.6567 14.9396C11.1827 15.545 10.5769 16.0344 9.88555 16.3706C9.19416 16.7067 8.43528 16.8809 7.66655 16.8797V16.8842Z" fill="#4FBA5D"/>
</svg>
