<svg width="80" height="80" viewBox="0 0 80 80" fill="none" xmlns="http://www.w3.org/2000/svg">
<rect width="80" height="80" rx="8" fill="#F9F6F3"/>
<path d="M56.7857 53.0003H57.2857V52.5003V51.1431V50.9604L57.1679 50.8208L46.9045 38.6511L46.5224 38.198L46.1401 38.6511L36.0983 50.5551L29.7796 43.0619L29.3973 42.6085L29.015 43.0619L22.832 50.3968L22.7143 50.5364V50.719V52.5003V53.0003H23.2143H56.7857ZM56.4035 47.028L57.2857 48.0742V46.7056V27.5003V27.0003H56.7857H23.2143H22.7143V27.5003V46.2815V47.65L23.5965 46.6039L29.3973 39.7252L35.716 47.2155L36.0982 47.6686L36.4804 47.2155L46.5223 35.3101L56.4035 47.028ZM46.4124 35.1797L46.4126 35.1799C46.4124 35.1798 46.4123 35.1796 46.4122 35.1795L46.4124 35.1797ZM21.4286 24.786H58.5714C59.0855 24.786 59.5 25.2005 59.5 25.7146V54.286C59.5 54.8 59.0855 55.2146 58.5714 55.2146H21.4286C20.9145 55.2146 20.5 54.8 20.5 54.286V25.7146C20.5 25.2005 20.9145 24.786 21.4286 24.786ZM32.0263 36.7393C31.6104 36.9116 31.1645 37.0003 30.7143 37.0003C29.805 37.0003 28.9329 36.6391 28.2899 35.9961C27.6469 35.3531 27.2857 34.481 27.2857 33.5717C27.2857 32.6624 27.6469 31.7903 28.2899 31.1473C28.9329 30.5044 29.805 30.1431 30.7143 30.1431C31.1645 30.1431 31.6104 30.2318 32.0263 30.4041C32.4423 30.5764 32.8203 30.829 33.1387 31.1473C33.457 31.4657 33.7096 31.8437 33.8819 32.2597C34.0542 32.6756 34.1429 33.1215 34.1429 33.5717C34.1429 34.022 34.0542 34.4678 33.8819 34.8838C33.7096 35.2997 33.457 35.6777 33.1387 35.9961C32.8203 36.3144 32.4423 36.567 32.0263 36.7393ZM32.4643 33.5717C32.4643 32.6036 31.6824 31.8217 30.7143 31.8217C29.7462 31.8217 28.9643 32.6036 28.9643 33.5717C28.9643 34.5398 29.7462 35.3217 30.7143 35.3217C31.6824 35.3217 32.4643 34.5398 32.4643 33.5717Z" fill="#E2D3C5" stroke="#E2D3C5"/>
</svg>
