<svg width="135" height="132" viewBox="0 0 135 132" fill="none" xmlns="http://www.w3.org/2000/svg">
<circle cx="66" cy="66" r="64" stroke="#677798" stroke-width="4"/>
<path d="M50.5314 117.872H123.853C128.391 117.872 132.103 114.159 132.103 109.622V19.5937C132.103 15.0562 128.391 11.3438 123.853 11.3438H50.5314" fill="white"/>
<path d="M50.5314 117.872H123.853C128.391 117.872 132.103 114.159 132.103 109.622V19.5937C132.103 15.0562 128.391 11.3438 123.853 11.3438H50.5314" stroke="#4FBA5D" stroke-width="4" stroke-miterlimit="10" stroke-linecap="round" stroke-linejoin="round"/>
<path d="M109.312 13.4062L109.312 23.7188" stroke="#4FBA5D" stroke-width="4" stroke-linecap="round"/>
<path d="M109.312 50.3555L109.312 60.668" stroke="#4FBA5D" stroke-width="4" stroke-linecap="round"/>
<path d="M109.312 87.3008L109.312 97.6133" stroke="#4FBA5D" stroke-width="4" stroke-linecap="round"/>
<path d="M109.312 31.8789L109.312 42.1914" stroke="#4FBA5D" stroke-width="4" stroke-linecap="round"/>
<path d="M109.312 68.8281L109.312 79.1406" stroke="#4FBA5D" stroke-width="4" stroke-linecap="round"/>
<path d="M109.312 105.777L109.312 116.09" stroke="#4FBA5D" stroke-width="4" stroke-linecap="round"/>
<path d="M57.9376 68.6546L57.9376 68.6545C58.3851 67.9906 58.2126 67.0876 57.5509 66.6374L57.5509 66.6373C56.8881 66.1866 55.9879 66.3614 55.5398 67.0257L55.5397 67.0257L50.4577 74.5635L44.8621 70.757L74.4263 26.9062C77.2462 29.5785 77.8065 33.9984 75.5637 37.3253L58.4543 62.703L58.4543 62.7031C58.0068 63.367 58.1793 64.27 58.8411 64.7202C59.5033 65.1708 60.404 64.9966 60.8522 64.3319L77.9616 38.954C81.3461 33.9337 80.0344 27.084 75.0357 23.6836L74.91 23.598L74.9099 23.5979C74.2475 23.1474 73.3469 23.3218 72.8989 23.9864L42.4491 69.1511C40.7546 68.2619 38.6241 68.7687 37.527 70.396L35.5249 73.3655C31.774 73.8504 28.3193 75.6405 25.7339 78.4526C22.9718 81.4569 21.4507 85.3652 21.4507 89.4567C21.4507 98.4028 28.6962 105.682 37.6049 105.682C46.5137 105.682 53.7592 98.4028 53.7592 89.4567C53.7592 87.1785 53.3017 84.9859 52.3977 82.9279L53.5154 81.2699L53.5155 81.2699C54.0862 80.4229 54.2951 79.4021 54.1025 78.398C53.9377 77.5374 53.4922 76.7784 52.8385 76.2177L57.9376 68.6546ZM49.5373 81.9849L49.7446 82.1247L49.5373 81.9849C49.2429 82.4217 49.2072 82.9841 49.4442 83.4546C50.3863 85.326 50.8639 87.3445 50.8639 89.4566C50.8639 96.8019 44.9147 102.776 37.6049 102.776C30.2952 102.776 24.346 96.8019 24.346 89.4566C24.346 86.097 25.5946 82.8892 27.8618 80.4233C30.1165 77.9709 33.1733 76.4666 36.4697 76.1861C36.9057 76.149 37.3014 75.916 37.5463 75.5525C37.5463 75.5525 37.5464 75.5525 37.5464 75.5525L39.925 72.0245C40.1026 71.7612 40.3924 71.6189 40.6881 71.6189C40.8653 71.6189 41.0442 71.67 41.2019 71.7773L41.2019 71.7774L50.8716 78.3552C51.2915 78.6413 51.4025 79.2185 51.1175 79.6411L49.5373 81.9849Z" fill="#677798" stroke="#677798" stroke-width="0.5"/>
<path d="M37.6049 79.6445C32.2181 79.6445 27.8379 84.0459 27.8379 89.4541C27.8379 91.3107 28.3594 93.121 29.3462 94.6887C29.7731 95.3671 30.6681 95.5699 31.3441 95.1407C32.0198 94.7116 32.2205 93.8144 31.7939 93.1367C31.1 92.0342 30.7332 90.7609 30.7332 89.4541C30.7332 85.6466 33.8171 82.5506 37.6049 82.5506C41.3926 82.5506 44.4765 85.6466 44.4765 89.4541C44.4765 93.2616 41.3926 96.3578 37.6049 96.3578C36.7249 96.3578 35.8656 96.1911 35.0499 95.8626C34.3072 95.5632 33.4641 95.9259 33.1669 96.6705C32.8698 97.4144 33.2288 98.2604 33.9714 98.5595L34.0648 98.3276L33.9714 98.5595C35.1311 99.0267 36.354 99.2638 37.6049 99.2638C42.9916 99.2638 47.3718 94.8624 47.3718 89.4541C47.3717 84.0461 42.9916 79.6445 37.6049 79.6445Z" fill="#677798" stroke="#677798" stroke-width="0.5"/>
<path d="M53.1176 49.6416L53.1176 49.6416C53.7793 49.1913 53.9517 48.2884 53.5043 47.6244L53.5042 47.6244L47.2907 38.4083C46.8427 37.7435 45.9423 37.5694 45.2796 38.0198L45.2795 38.0199C44.6178 38.4702 44.4453 39.3731 44.8928 40.037L44.8928 40.0371L51.1064 49.2532L51.3137 49.1135L51.1064 49.2532C51.3862 49.6682 51.8427 49.892 52.3064 49.892C52.5861 49.892 52.869 49.8107 53.1176 49.6416Z" fill="#677798" stroke="#677798" stroke-width="0.5"/>
<path d="M47.6753 56.2735L47.6752 56.2735L34.9628 37.4178L34.9628 37.4178C33.7394 35.6033 33.293 33.42 33.7054 31.2679L33.7054 31.2678C34.0275 29.5859 34.8438 28.0824 36.0469 26.9193L41.9786 35.7174C41.9786 35.7174 41.9786 35.7174 41.9786 35.7174C42.4266 36.3822 43.3271 36.5563 43.9896 36.1059L43.9896 36.1058C44.6515 35.6556 44.824 34.7526 44.3765 34.0887L44.3765 34.0886L37.5654 23.9864C37.5654 23.9864 37.5654 23.9864 37.5654 23.9864C37.3501 23.6671 37.0172 23.4468 36.6398 23.3739C36.2623 23.3009 35.8712 23.3818 35.5533 23.5985L35.5532 23.5986L35.5206 23.6208C35.5206 23.6208 35.5205 23.6209 35.5205 23.6209C33.0748 25.2846 31.4202 27.8062 30.8621 30.719C30.3041 33.6319 30.9087 36.59 32.5649 39.0463C32.5649 39.0463 32.5649 39.0463 32.5649 39.0463L45.2774 57.9023L45.4847 57.7626L45.2774 57.9023C45.5572 58.3173 46.0135 58.5411 46.4774 58.5411C46.7571 58.5411 47.04 58.4598 47.2884 58.2907C47.9503 57.8404 48.1228 56.9375 47.6753 56.2735Z" fill="#677798" stroke="#677798" stroke-width="0.5"/>
<path d="M74.9392 73.3649C78.6901 73.8497 82.1448 75.6397 84.7303 78.452C87.4924 81.4563 89.0136 85.3646 89.0136 89.4561C89.0136 98.4021 81.7681 105.682 72.8593 105.682C63.9505 105.682 56.7051 98.4021 56.7051 89.4561C56.7051 87.1779 57.1626 84.9853 58.0665 82.9273L56.9488 81.2693C56.3779 80.4224 56.169 79.4017 56.3616 78.3975L74.9392 73.3649ZM74.9392 73.3649L72.9371 70.3954L72.7298 70.5351L72.9371 70.3953C71.8399 68.7682 69.709 68.2611 68.015 69.1505L65.1867 64.9553L65.1867 64.9553C64.7387 64.2907 63.838 64.1159 63.1757 64.5669C62.5138 65.0172 62.3413 65.9201 62.7888 66.5841L62.7889 66.5841L65.6018 70.7565L60.0062 74.563L59.3577 73.6012C58.9095 72.9364 58.0094 72.7623 57.3466 73.2127L57.3465 73.2128C56.6846 73.6631 56.5124 74.566 56.9598 75.23L56.9598 75.23L57.6255 76.2173C56.9719 76.7779 56.5265 77.537 56.3616 78.3975L74.9392 73.3649ZM60.9269 81.9845L60.927 81.9845C61.2214 82.4212 61.257 82.9836 61.0201 83.4541C60.0779 85.3255 59.6004 87.344 59.6004 89.4561C59.6004 96.8014 65.5497 102.776 72.8593 102.776C80.1691 102.776 86.1183 96.8013 86.1184 89.4563C86.1184 86.0967 84.8698 82.8889 82.6026 80.423C80.3479 77.9706 77.2911 76.4663 73.9947 76.1858C73.9947 76.1858 73.9947 76.1858 73.9947 76.1858L74.0159 75.9367L60.9269 81.9845ZM60.9269 81.9845L59.3467 79.6407L59.3467 79.6406M60.9269 81.9845L59.3467 79.6406M59.3467 79.6406C59.0616 79.2179 59.1727 78.6407 59.5927 78.355L59.5927 78.355M59.3467 79.6406L59.5927 78.355M59.5927 78.355L69.2626 71.7771L69.2627 71.777M59.5927 78.355L69.2627 71.777M69.2627 71.777C69.6816 71.4919 70.2545 71.6019 70.5394 72.0242M69.2627 71.777L70.5394 72.0242M70.5394 72.0242C70.5394 72.0242 70.5394 72.0242 70.5394 72.0242L70.5394 72.0242Z" fill="#677798" stroke="#677798" stroke-width="0.5"/>
<path d="M72.8593 79.6445C67.4725 79.6445 63.0923 84.0459 63.0923 89.4541C63.0923 94.8623 67.4724 99.2638 72.8593 99.2638C78.2461 99.2638 82.6262 94.8624 82.6262 89.4541C82.6262 84.0461 78.246 79.6445 72.8593 79.6445ZM72.8593 96.3578C69.0715 96.3578 65.9876 93.2617 65.9876 89.4541C65.9876 85.6466 69.0715 82.5506 72.8593 82.5506C76.647 82.5506 79.7309 85.6466 79.7309 89.4541C79.7309 93.2617 76.647 96.3578 72.8593 96.3578Z" fill="#677798" stroke="#677798" stroke-width="0.5"/>
<path d="M53.7036 61.2382V61.9993C53.7036 62.8007 54.3505 63.4523 55.1513 63.4523C55.952 63.4523 56.5989 62.8007 56.5989 61.9993V61.2382C56.5989 60.4368 55.952 59.7852 55.1513 59.7852C54.3507 59.7852 53.7036 60.4366 53.7036 61.2382Z" fill="#677798" stroke="#677798" stroke-width="0.5"/>
</svg>
