<svg width="1090" height="250" viewBox="0 0 1090 250" fill="none" xmlns="http://www.w3.org/2000/svg">
<path d="M369.652 102.721C381.273 114.834 386.966 129.797 386.966 147.611C386.966 165.424 381.039 180.62 369.174 193.257C357.309 205.893 343.086 212.016 326.717 212.016C310.349 212.016 297.305 205.837 287.341 193.257V194.916C287.341 204.178 280.669 210.825 271.439 210.825C261.954 210.825 255.549 204.145 255.549 194.916V59.2574C255.549 49.0483 262.666 42.1568 272.863 42.1568C275.121 42.1019 277.366 42.5067 279.464 43.3466C281.561 44.1865 283.466 45.4442 285.063 47.0432C286.66 48.6422 287.916 50.5493 288.755 52.6489C289.594 54.7485 289.998 56.9968 289.943 59.2574V102.009C299.673 90.3747 312.484 84.4296 327.896 84.4296C344.265 84.4296 358.032 90.6085 369.652 102.721ZM320.546 180.387C329.564 180.387 337.159 177.292 343.086 171.124C349.031 165.018 352.358 156.828 352.358 148.301C352.358 139.774 349.031 131.584 343.086 125.478C337.159 119.299 329.564 116.215 320.546 116.215C316.316 116.126 312.113 116.906 308.196 118.507C304.279 120.108 300.731 122.495 297.772 125.522C291.972 131.703 288.743 139.865 288.743 148.345C288.743 156.826 291.972 164.988 297.772 171.168C300.74 174.177 304.292 176.547 308.208 178.132C312.124 179.717 316.323 180.485 320.546 180.387Z" fill="#DCDCDC"/>
<path d="M399.673 100.762C399.607 98.7516 399.953 96.7486 400.69 94.877C401.428 93.0054 402.54 91.305 403.96 89.8808C405.379 88.4567 407.075 87.339 408.943 86.5967C410.811 85.8545 412.811 85.5036 414.82 85.5655C424.072 85.5655 430.244 91.9783 430.244 100.762L430.478 110.782C438.073 93.214 449.461 84.4188 464.874 84.4188C475.316 84.4188 482.667 91.789 482.667 101.998C482.667 112.686 475.316 119.811 464.874 119.811C445.902 119.811 434.036 131.924 434.036 155.438V193.379C434.036 203.589 427.164 210.714 416.955 210.714C406.746 210.714 399.64 203.589 399.64 193.379L399.673 100.762Z" fill="#DCDCDC"/>
<path d="M488.777 53.103C488.777 41.7137 497.317 33.1633 509.649 33.1633C521.747 33.1633 530.287 41.7137 530.287 53.103C530.287 64.7484 521.747 73.0538 509.649 73.0538C497.317 73.0538 488.777 64.7484 488.777 53.103ZM526.973 103.203V193.237C526.973 203.446 519.857 210.806 509.649 210.806C499.218 210.806 492.101 203.446 492.101 193.237V103.281C492.101 93.0602 499.218 85.7012 509.649 85.7012C519.857 85.6455 526.973 93.0046 526.973 103.281V103.203Z" fill="#DCDCDC"/>
<path d="M648.041 97.9501C656.816 106.745 661.086 119.103 661.086 134.768V193.417C661.086 203.626 653.969 210.752 643.771 210.752C633.574 210.752 626.69 203.626 626.69 193.417V145.934C626.69 126.217 616.96 116.242 602.737 116.242C587.546 116.242 576.871 126.451 576.871 147.114V193.417C576.871 203.626 569.998 210.752 559.79 210.752C549.581 210.752 542.475 203.638 542.475 193.417V101.758C542.475 92.4948 549.147 85.6034 558.611 85.6034C567.863 85.6034 574.502 92.4948 574.502 101.758V106.033C583.042 91.7823 598.222 84.4121 615.069 84.4121C628.592 84.4121 639.501 88.9322 648.041 97.9501Z" fill="#DCDCDC"/>
<path d="M803.805 101.808V178.993C803.805 200.603 797.634 217.959 785.535 230.762C773.437 243.565 756.357 250 734.295 250C713.423 250 695.865 245.547 681.876 236.462C676.183 233.122 673.325 228.669 673.325 223.169C673.325 214.853 678.785 209.153 687.092 209.153C689.46 209.153 692.551 210.099 696.343 211.769C708.197 217.937 719.828 221.032 731.449 221.032C755.167 221.032 769.167 208.674 769.167 186.586V183.981C760.393 194.001 748.039 198.944 732.394 198.944C715.558 198.944 701.325 193.481 689.694 182.556C678.073 171.423 672.38 158.063 672.38 142.477C672.38 126.089 678.073 112.313 689.46 101.151C701.091 90.0176 715.792 84.5178 733.584 84.5178C749.24 84.5178 762.05 89.9842 772.014 100.672C772.725 91.8879 779.13 85.7091 787.904 85.7091C797.156 85.6534 803.805 92.2999 803.805 101.808ZM738.565 171.623C747.583 171.623 755.167 168.784 761.105 163.318C764.042 160.744 766.389 157.565 767.986 153.998C769.583 150.432 770.391 146.563 770.357 142.655C770.416 138.775 769.618 134.931 768.018 131.397C766.419 127.863 764.058 124.727 761.105 122.214C755.167 116.514 747.583 113.664 738.565 113.664C729.547 113.664 721.963 116.514 715.792 122.214C712.914 124.773 710.621 127.922 709.067 131.447C707.513 134.972 706.734 138.791 706.785 142.644C706.757 146.527 707.544 150.374 709.096 153.933C710.647 157.493 712.929 160.686 715.792 163.307C722.065 168.853 730.199 171.824 738.565 171.623Z" fill="#DCDCDC"/>
<path d="M814.681 148.725C814.681 130.674 821.086 115.459 833.897 103.079C846.707 90.4868 862.598 84.3078 881.58 84.3078C900.562 84.3078 916.208 90.253 928.551 102.366C941.117 114.468 947.288 129.442 947.288 147.49C947.441 156.053 945.811 164.555 942.503 172.454C939.195 180.353 934.28 187.476 928.073 193.37C915.262 205.721 899.368 211.896 880.39 211.896C861.408 211.896 845.762 205.962 833.185 193.849C820.853 181.747 814.681 166.784 814.681 148.725ZM903.642 171.059C909.587 164.952 912.914 156.763 912.914 148.235C912.914 139.708 909.587 131.518 903.642 125.412C897.704 119.233 890.12 116.149 881.101 116.149C876.834 116.039 872.589 116.808 868.632 118.409C864.674 120.01 861.087 122.409 858.094 125.457C852.287 131.634 849.053 139.797 849.053 148.28C849.053 156.763 852.287 164.926 858.094 171.103C861.091 174.143 864.679 176.534 868.637 178.127C872.595 179.72 876.837 180.483 881.101 180.366C890.12 180.322 897.704 177.227 903.642 171.103V171.059Z" fill="#DCDCDC"/>
<path d="M957.383 148.725C957.383 130.674 963.788 115.459 976.598 103.079C989.409 90.4868 1005.3 84.3078 1024.28 84.3078C1043.26 84.3078 1058.92 90.253 1071.25 102.366C1083.83 114.468 1089.99 129.442 1089.99 147.49C1090.14 156.053 1088.51 164.555 1085.2 172.454C1081.9 180.353 1076.98 187.476 1070.77 193.37C1057.96 205.721 1042.07 211.896 1023.09 211.896C1004.12 211.896 988.464 205.962 975.887 193.849C963.555 181.747 957.383 166.784 957.383 148.725ZM1046.34 171.059C1052.29 164.952 1055.62 156.763 1055.62 148.235C1055.62 139.708 1052.29 131.518 1046.34 125.412C1040.42 119.233 1032.82 116.149 1023.8 116.149C1019.54 116.033 1015.3 116.795 1011.34 118.388C1007.38 119.982 1003.79 122.373 1000.8 125.412C994.988 131.589 991.755 139.752 991.755 148.235C991.755 156.718 994.988 164.882 1000.8 171.059C1003.79 174.098 1007.38 176.489 1011.34 178.082C1015.3 179.676 1019.54 180.438 1023.8 180.322C1032.82 180.322 1040.42 177.227 1046.34 171.103V171.059Z" fill="#DCDCDC"/>
<path d="M95.7579 118.221C89.9117 118.221 84.1968 119.957 79.3361 123.209C74.4753 126.461 70.687 131.084 68.4502 136.492C66.2135 141.899 65.6288 147.85 66.7702 153.591C67.9115 159.331 70.7276 164.604 74.8623 168.742C78.9969 172.88 84.2644 175.698 89.9986 176.838C95.7327 177.979 101.676 177.391 107.076 175.15C112.477 172.908 117.092 169.114 120.339 164.246C123.585 159.378 125.317 153.655 125.314 147.802C125.306 139.958 122.188 132.437 116.647 126.891C111.106 121.345 103.593 118.227 95.7579 118.221V118.221Z" fill="#DCDCDC"/>
<path d="M98.7654 51.9587V49.4426C98.7654 36.3296 93.5626 23.7537 84.3016 14.4814C75.0405 5.20911 62.4798 0 49.3827 0C36.2856 0 23.7249 5.20911 14.4639 14.4814C5.2028 23.7537 2.76001e-07 36.3296 0 49.4426V147.782C0.000579789 166.614 5.54105 185.029 15.9299 200.729C26.3187 216.428 41.0956 228.716 58.4163 236.059C75.737 243.402 94.8342 245.475 113.324 242.019C131.814 238.563 148.878 229.731 162.386 216.626C175.894 203.52 185.247 186.722 189.279 168.327C193.31 149.932 191.841 130.756 185.055 113.192C178.269 95.6284 166.467 80.4545 151.121 69.5646C135.775 58.6748 117.566 52.5513 98.7654 51.9587V51.9587ZM95.752 211.052C78.9975 211.034 62.9342 204.363 51.087 192.501C39.2397 180.64 32.5762 164.557 32.5586 147.782V49.4314C32.5586 44.964 34.3311 40.6795 37.4862 37.5205C40.6414 34.3616 44.9207 32.5869 49.3827 32.5869C53.8448 32.5869 58.124 34.3616 61.2792 37.5205C64.4343 40.6795 66.2069 44.964 66.2069 49.4314V91.8712C74.686 87.3618 84.0802 84.8464 93.6757 84.5162C103.271 84.1859 112.816 86.0495 121.584 89.9654C130.353 93.8812 138.114 99.7464 144.28 107.115C150.445 114.484 154.852 123.163 157.166 132.492C159.48 141.822 159.64 151.557 157.633 160.957C155.627 170.358 151.507 179.177 145.587 186.745C139.667 194.312 132.102 200.43 123.466 204.632C114.831 208.834 105.353 211.011 95.752 210.997V211.052Z" fill="#DCDCDC"/>
</svg>
