<svg width="64" height="64" viewBox="0 0 64 64" fill="none" xmlns="http://www.w3.org/2000/svg">
<path d="M52.3011 44.2279C54.0557 42.4806 54.0557 39.6227 52.3011 37.8754L35.6472 21.2907C33.8926 19.5434 31.0228 19.5434 29.2682 21.2907C27.5136 23.038 27.5136 25.8959 29.2682 27.6432L45.9221 44.2279C47.6756 45.9741 50.5465 45.9741 52.3011 44.2279Z" fill="#AA0000"/>
<path d="M12.4373 44.2279C10.6827 42.4806 10.6827 39.6227 12.4373 37.8754L29.0912 21.2907C30.8458 19.5434 33.7156 19.5434 35.4702 21.2907C37.2247 23.038 37.2247 25.8959 35.4702 27.6432L18.8151 44.2279C17.0617 45.9741 14.1908 45.9741 12.4373 44.2279V44.2279Z" fill="#AA0000"/>
<path d="M52.8957 62.5001C54.6503 60.7528 54.6503 57.8949 52.8957 56.1476L36.2418 39.5628C34.4872 37.8155 31.6174 37.8155 29.8629 39.5628C28.1083 41.3101 28.1083 44.168 29.8629 45.9153L46.5167 62.5001C48.2702 64.2463 51.1411 64.2463 52.8957 62.5001Z" fill="#D40000"/>
<path d="M13.0319 62.5001C11.2774 60.7528 11.2774 57.8949 13.0319 56.1476L29.6858 39.5628C31.4404 37.8155 34.3102 37.8155 36.0648 39.5628C37.8194 41.3101 37.8194 44.168 36.0648 45.9153L19.4098 62.5001C17.6563 64.2463 14.7854 64.2463 13.0319 62.5001V62.5001Z" fill="#D40000"/>
<path d="M51.3401 24.5662C53.0946 22.8189 53.0946 19.961 51.3401 18.2137L34.6862 1.62892C32.9316 -0.118382 30.0618 -0.118382 28.3072 1.62892C26.5526 3.37622 26.5526 6.23411 28.3072 7.98141L44.9611 24.5662C46.7145 26.3123 49.5855 26.3123 51.3401 24.5662Z" fill="#800000"/>
<path d="M11.4763 24.5662C9.72172 22.8189 9.72172 19.961 11.4763 18.2137L28.1302 1.62892C29.8848 -0.118382 32.7546 -0.118382 34.5091 1.62892C36.2637 3.37622 36.2637 6.23411 34.5091 7.98141L17.8541 24.5662C16.1007 26.3123 13.2298 26.3123 11.4763 24.5662V24.5662Z" fill="#800000"/>
</svg>
