<svg width="64" height="64" viewBox="0 0 64 64" fill="none" xmlns="http://www.w3.org/2000/svg">
<path d="M51.534 33.7771C53.2886 32.0298 53.2886 29.1719 51.534 27.4246L34.8802 10.8399C33.1256 9.09259 30.2558 9.09259 28.5012 10.8399C26.7466 12.5872 26.7466 15.4451 28.5012 17.1924L45.1551 33.7771C46.9085 35.5233 49.7795 35.5233 51.534 33.7771Z" fill="#AA0000"/>
<path d="M11.6703 33.7771C9.91569 32.0298 9.91569 29.1719 11.6703 27.4246L28.3242 10.8399C30.0787 9.09259 32.9485 9.09259 34.7031 10.8399C36.4577 12.5872 36.4577 15.4451 34.7031 17.1924L18.0481 33.7771C16.2947 35.5233 13.4237 35.5233 11.6703 33.7771V33.7771Z" fill="#AA0000"/>
<path d="M52.1287 52.0493C53.8833 50.302 53.8833 47.4441 52.1287 45.6968L35.4748 29.112C33.7202 27.3647 30.8504 27.3647 29.0958 29.112C27.3412 30.8593 27.3412 33.7172 29.0958 35.4645L45.7497 52.0493C47.5032 53.7955 50.3741 53.7955 52.1287 52.0493Z" fill="#D40000"/>
<path d="M12.2649 52.0493C10.5103 50.302 10.5103 47.4441 12.2649 45.6968L28.9188 29.112C30.6734 27.3647 33.5432 27.3647 35.2978 29.112C37.0523 30.8593 37.0523 33.7172 35.2978 35.4645L18.6428 52.0493C16.8893 53.7955 14.0184 53.7955 12.2649 52.0493V52.0493Z" fill="#D40000"/>
</svg>
