<svg width="64" height="64" viewBox="0 0 64 64" fill="none" xmlns="http://www.w3.org/2000/svg">
<path d="M12.0058 20.8584C10.2513 22.6057 10.2513 25.4636 12.0058 27.2109L28.6597 43.7956C30.4143 45.5429 33.2841 45.5429 35.0387 43.7956C36.7933 42.0483 36.7933 39.1904 35.0387 37.4431L18.3848 20.8584C16.6314 19.1122 13.7604 19.1122 12.0058 20.8584Z" fill="#338000"/>
<path d="M51.8696 20.8584C53.6242 22.6057 53.6242 25.4636 51.8696 27.2109L35.2157 43.7956C33.4611 45.5429 30.5913 45.5429 28.8368 43.7956C27.0822 42.0483 27.0822 39.1904 28.8368 37.4431L45.4918 20.8584C47.2452 19.1122 50.1162 19.1122 51.8696 20.8584V20.8584Z" fill="#338000"/>
</svg>
