<svg width="24" height="24" viewBox="0 0 24 24" fill="none" xmlns="http://www.w3.org/2000/svg">
<path fill-rule="evenodd" clip-rule="evenodd" d="M8.79289 1.29289C9.18342 0.902369 9.81658 0.902369 10.2071 1.29289L13.9142 5L10.2071 8.70711C9.81658 9.09763 9.18342 9.09763 8.79289 8.70711C8.40237 8.31658 8.40237 7.68342 8.79289 7.29289L11.0858 5L8.79289 2.70711C8.40237 2.31658 8.40237 1.68342 8.79289 1.29289Z" fill="#2CC84D"/>
<path fill-rule="evenodd" clip-rule="evenodd" d="M2 8.5C2 6.01472 4.01472 4 6.5 4H11C11.5523 4 12 4.44772 12 5C12 5.55228 11.5523 6 11 6H6.5C5.11929 6 4 7.11929 4 8.5C4 9.88071 5.11929 11 6.5 11H17.5C19.9853 11 22 13.0147 22 15.5C22 17.9853 19.9853 20 17.5 20H8C7.44772 20 7 19.5523 7 19C7 18.4477 7.44772 18 8 18H17.5C18.8807 18 20 16.8807 20 15.5C20 14.1193 18.8807 13 17.5 13H6.5C4.01472 13 2 10.9853 2 8.5Z" fill="#2CC84D"/>
<path fill-rule="evenodd" clip-rule="evenodd" d="M5 18C4.44772 18 4 18.4477 4 19C4 19.5523 4.44772 20 5 20C5.55228 20 6 19.5523 6 19C6 18.4477 5.55228 18 5 18ZM2 19C2 17.3431 3.34315 16 5 16C6.65685 16 8 17.3431 8 19C8 20.6569 6.65685 22 5 22C3.34315 22 2 20.6569 2 19Z" fill="#2CC84D"/>
<path fill-rule="evenodd" clip-rule="evenodd" d="M19 4C18.4477 4 18 4.44772 18 5C18 5.55228 18.4477 6 19 6C19.5523 6 20 5.55228 20 5C20 4.44772 19.5523 4 19 4ZM16 5C16 3.34315 17.3431 2 19 2C20.6569 2 22 3.34315 22 5C22 6.65685 20.6569 8 19 8C17.3431 8 16 6.65685 16 5Z" fill="#2CC84D"/>
</svg>
