<svg width="64" height="64" viewBox="0 0 64 64" fill="none" xmlns="http://www.w3.org/2000/svg">
<path d="M51.889 41.982C53.6436 40.2347 53.6436 37.3768 51.889 35.6295L35.2351 19.0448C33.4805 17.2975 30.6107 17.2975 28.8561 19.0448C27.1015 20.7921 27.1015 23.6499 28.8561 25.3972L45.51 41.982C47.2635 43.7282 50.1344 43.7282 51.889 41.982Z" fill="#FF6600"/>
<path d="M12.0252 41.982C10.2706 40.2347 10.2706 37.3768 12.0252 35.6295L28.6791 19.0448C30.4337 17.2975 33.3035 17.2975 35.0581 19.0448C36.8126 20.7921 36.8126 23.6499 35.0581 25.3972L18.4031 41.982C16.6496 43.7282 13.7787 43.7282 12.0252 41.982V41.982Z" fill="#FF6600"/>
</svg>
