<svg width="64" height="64" viewBox="0 0 64 64" fill="none" xmlns="http://www.w3.org/2000/svg">
<path d="M56.7566 22.0657L40.8878 19.7595L33.794 5.37824C33.6002 4.9845 33.2815 4.66574 32.8877 4.472C31.9002 3.9845 30.7002 4.39075 30.2064 5.37824L23.1127 19.7595L7.24395 22.0657C6.80644 22.1282 6.40644 22.3345 6.1002 22.647C5.72996 23.0276 5.52594 23.5395 5.53298 24.0704C5.54002 24.6013 5.75752 25.1077 6.13771 25.4783L17.619 36.672L14.9065 52.4782C14.8428 52.8459 14.8835 53.2242 15.0239 53.5698C15.1643 53.9157 15.3987 54.2151 15.7006 54.4345C16.0026 54.6535 16.3599 54.784 16.7321 54.8103C17.1043 54.837 17.4765 54.7588 17.8064 54.5845L32.0002 47.1221L46.1938 54.5845C46.5813 54.7908 47.0315 54.8594 47.4628 54.7844C48.55 54.597 49.2814 53.5659 49.094 52.4782L46.3815 36.672L57.8628 25.4783C58.1753 25.172 58.3815 24.772 58.4441 24.3345C58.6126 23.2407 57.8503 22.2282 56.7566 22.0657Z" fill="#D32029"/>
</svg>
