<svg aria-hidden="true" style="position: absolute; width: 0; height: 0; overflow: hidden;" version="1.1" xmlns="http://www.w3.org/2000/svg" xmlns:xlink="http://www.w3.org/1999/xlink">
<defs><symbol id="bringoo-logo" viewBox="0 0 1090 250"><path d="M369.652 102.721c11.621 12.113 17.314 27.076 17.314 44.89 0 17.813-5.927 33.009-17.792 45.646-11.865 12.636-26.088 18.759-42.457 18.759-16.368 0-29.412-6.179-39.376-18.759v1.659c0 9.262-6.672 15.909-15.902 15.909-9.485 0-15.89-6.68-15.89-15.909V59.257c0-10.209 7.117-17.1 17.314-17.1a16.668 16.668 0 0 1 12.2 4.886 16.703 16.703 0 0 1 4.88 12.214v42.752c9.73-11.634 22.541-17.58 37.953-17.58 16.369 0 30.136 6.18 41.756 18.292Zm-49.106 77.666c9.018 0 16.613-3.095 22.54-9.263a32.717 32.717 0 0 0 9.272-22.823 32.717 32.717 0 0 0-9.272-22.823c-5.927-6.179-13.522-9.263-22.54-9.263a30.954 30.954 0 0 0-22.774 9.307 33.355 33.355 0 0 0-9.029 22.823 33.351 33.351 0 0 0 9.029 22.823 30.992 30.992 0 0 0 22.774 9.219ZM399.673 100.762a14.724 14.724 0 0 1 9.27-14.165 14.69 14.69 0 0 1 5.877-1.031c9.252 0 15.424 6.412 15.424 15.196l.234 10.02c7.595-17.568 18.983-26.363 34.396-26.363 10.442 0 17.793 7.37 17.793 17.579 0 10.688-7.351 17.813-17.793 17.813-18.972 0-30.838 12.113-30.838 35.627v37.941c0 10.21-6.872 17.335-17.081 17.335s-17.315-7.125-17.315-17.335l.033-92.617ZM488.777 53.103c0-11.39 8.54-19.94 20.872-19.94 12.098 0 20.638 8.55 20.638 19.94 0 11.645-8.54 19.95-20.638 19.95-12.332 0-20.872-8.305-20.872-19.95Zm38.196 50.1v90.034c0 10.209-7.116 17.569-17.324 17.569-10.431 0-17.548-7.36-17.548-17.569v-89.956c0-10.22 7.117-17.58 17.548-17.58 10.208-.055 17.324 7.304 17.324 17.58v-.078ZM648.041 97.95c8.775 8.795 13.045 21.153 13.045 36.818v58.649c0 10.209-7.117 17.335-17.315 17.335-10.197 0-17.081-7.126-17.081-17.335v-47.483c0-19.717-9.73-29.692-23.953-29.692-15.191 0-25.866 10.209-25.866 30.872v46.303c0 10.209-6.873 17.335-17.081 17.335-10.209 0-17.315-7.114-17.315-17.335v-91.659c0-9.263 6.672-16.155 16.136-16.155 9.252 0 15.891 6.892 15.891 16.155v4.275c8.54-14.25 23.72-21.62 40.567-21.62 13.523 0 24.432 4.52 32.972 13.537ZM803.805 101.808v77.185c0 21.61-6.171 38.966-18.27 51.769C773.437 243.565 756.357 250 734.295 250c-20.872 0-38.43-4.453-52.419-13.538-5.693-3.34-8.551-7.793-8.551-13.293 0-8.316 5.46-14.016 13.767-14.016 2.368 0 5.459.946 9.251 2.616 11.854 6.168 23.485 9.263 35.106 9.263 23.718 0 37.718-12.358 37.718-34.446v-2.605c-8.774 10.02-21.128 14.963-36.773 14.963-16.836 0-31.069-5.463-42.7-16.388-11.621-11.133-17.314-24.493-17.314-40.079 0-16.388 5.693-30.164 17.08-41.326 11.631-11.133 26.332-16.633 44.124-16.633 15.656 0 28.466 5.466 38.43 16.154.711-8.784 7.116-14.963 15.89-14.963 9.252-.056 15.901 6.59 15.901 16.099Zm-65.24 69.815c9.018 0 16.602-2.839 22.54-8.305a27.173 27.173 0 0 0 9.252-20.663 26.323 26.323 0 0 0-9.252-20.441c-5.938-5.7-13.522-8.55-22.54-8.55-9.018 0-16.602 2.85-22.773 8.55a26.877 26.877 0 0 0-9.007 20.43 27.745 27.745 0 0 0 9.007 20.663 33.18 33.18 0 0 0 22.773 8.316ZM814.681 148.725c0-18.051 6.405-33.266 19.216-45.646 12.81-12.592 28.701-18.771 47.683-18.771s34.628 5.945 46.971 18.058c12.566 12.102 18.737 27.076 18.737 45.124a61.773 61.773 0 0 1-4.785 24.964 61.724 61.724 0 0 1-14.43 20.916c-12.811 12.351-28.705 18.526-47.683 18.526-18.982 0-34.628-5.934-47.205-18.047-12.332-12.102-18.504-27.065-18.504-45.124Zm88.961 22.334a32.72 32.72 0 0 0 9.272-22.824 32.717 32.717 0 0 0-9.272-22.823c-5.938-6.179-13.522-9.263-22.541-9.263a31.11 31.11 0 0 0-23.007 9.308 33.321 33.321 0 0 0-9.041 22.823 33.321 33.321 0 0 0 9.041 22.823 31.123 31.123 0 0 0 23.007 9.263c9.019-.044 16.603-3.139 22.541-9.263v-.044ZM957.383 148.725c0-18.051 6.405-33.266 19.215-45.646 12.811-12.592 28.702-18.771 47.682-18.771s34.64 5.945 46.97 18.058c12.58 12.102 18.74 27.076 18.74 45.124a61.794 61.794 0 0 1-4.79 24.964 61.57 61.57 0 0 1-14.43 20.916c-12.81 12.351-28.7 18.526-47.68 18.526-18.97 0-34.626-5.934-47.203-18.047-12.332-12.102-18.504-27.065-18.504-45.124Zm88.957 22.334a32.705 32.705 0 0 0 0-45.647c-5.92-6.179-13.52-9.263-22.54-9.263a31.114 31.114 0 0 0-23 9.263 33.302 33.302 0 0 0-9.045 22.823 33.305 33.305 0 0 0 9.045 22.824 31.036 31.036 0 0 0 10.54 7.023 31.097 31.097 0 0 0 12.46 2.24c9.02 0 16.62-3.095 22.54-9.219v-.044ZM95.758 118.221a29.532 29.532 0 0 0-16.422 4.988 29.586 29.586 0 0 0-10.886 13.283 29.624 29.624 0 0 0 6.412 32.25A29.541 29.541 0 0 0 90 176.838a29.522 29.522 0 0 0 17.077-1.688 29.57 29.57 0 0 0 13.263-10.904 29.616 29.616 0 0 0 4.975-16.444 29.63 29.63 0 0 0-8.667-20.911 29.56 29.56 0 0 0-20.89-8.67Z"/><path d="M98.765 51.959v-2.516A49.473 49.473 0 0 0 84.302 14.48 49.353 49.353 0 0 0 49.382 0a49.352 49.352 0 0 0-34.918 14.481A49.473 49.473 0 0 0 0 49.443v98.339a95.955 95.955 0 0 0 15.93 52.947 95.779 95.779 0 0 0 42.486 35.33 95.646 95.646 0 0 0 54.908 5.96 95.716 95.716 0 0 0 49.062-25.393 95.904 95.904 0 0 0 26.893-48.299 95.983 95.983 0 0 0-4.224-55.135 95.851 95.851 0 0 0-33.934-43.627 95.675 95.675 0 0 0-52.356-17.606Zm-3.013 159.093a63.221 63.221 0 0 1-44.665-18.551 63.373 63.373 0 0 1-18.528-44.719v-98.35c0-4.468 1.772-8.753 4.927-11.912a16.814 16.814 0 0 1 23.793 0 16.855 16.855 0 0 1 4.928 11.911v42.44a63.123 63.123 0 0 1 55.377-1.906 63.192 63.192 0 0 1 22.696 17.15 63.324 63.324 0 0 1 1.307 79.63 63.193 63.193 0 0 1-22.121 17.887 63.126 63.126 0 0 1-27.714 6.365v.055Z"/><symbol>
<symbol id="flag" viewBox="0 0 24 24"><path d="M6 12.235v6.446c0 .537.45.977 1 .977s1-.44 1-.977v-5.778c1.17-.341 2.389-.045 3.768.29.982.238 2.036.495 3.13.495a5.73 5.73 0 0 0 2.547-.567 1 1 0 0 0 .563-.9V5.466a.998.998 0 0 0-1.437-.9c-1.345.654-2.731.317-4.331-.071-1.729-.42-3.687-.895-5.678.072A1 1 0 0 0 6 5.466v6.769z"/><symbol>
<symbol id="high" viewBox="0 0 64 64"><path d="M51.534 33.777a4.491 4.491 0 0 0 0-6.352L34.88 10.84a4.537 4.537 0 0 0-6.379 0 4.491 4.491 0 0 0 0 6.352l16.654 16.585c1.753 1.746 4.624 1.746 6.379 0Z"/><path d="M11.67 33.777a4.491 4.491 0 0 1 0-6.352L28.324 10.84a4.536 4.536 0 0 1 6.38 0 4.491 4.491 0 0 1 0 6.352L18.047 33.777c-1.753 1.746-4.624 1.746-6.378 0Z"/><path d="M52.129 52.05a4.491 4.491 0 0 0 0-6.353L35.475 29.112a4.537 4.537 0 0 0-6.38 0 4.491 4.491 0 0 0 0 6.353L45.75 52.049c1.753 1.746 4.624 1.746 6.379 0Z"/><path d="M12.265 52.05a4.491 4.491 0 0 1 0-6.353l16.654-16.585a4.537 4.537 0 0 1 6.379 0 4.491 4.491 0 0 1 0 6.353L18.643 52.049c-1.754 1.746-4.625 1.746-6.378 0Z"/><symbol>
<symbol id="highest" viewBox="0 0 64 64"><path d="M52.301 44.228a4.491 4.491 0 0 0 0-6.353L35.647 21.291a4.537 4.537 0 0 0-6.379 0 4.491 4.491 0 0 0 0 6.352l16.654 16.585c1.754 1.746 4.625 1.746 6.38 0Z"/><path d="M12.437 44.228a4.491 4.491 0 0 1 0-6.353l16.654-16.584a4.537 4.537 0 0 1 6.38 0 4.491 4.491 0 0 1 0 6.352L18.814 44.228c-1.753 1.746-4.624 1.746-6.378 0Z"/><path d="M52.896 62.5a4.491 4.491 0 0 0 0-6.352L36.242 39.563a4.536 4.536 0 0 0-6.38 0 4.491 4.491 0 0 0 0 6.352L46.518 62.5c1.753 1.746 4.624 1.746 6.379 0Z"/><path d="M13.032 62.5a4.491 4.491 0 0 1 0-6.352l16.654-16.585a4.537 4.537 0 0 1 6.379 0 4.491 4.491 0 0 1 0 6.352L19.41 62.5c-1.754 1.746-4.625 1.746-6.378 0Z"/><path d="M51.34 24.566a4.491 4.491 0 0 0 0-6.352L34.686 1.629a4.537 4.537 0 0 0-6.379 0 4.491 4.491 0 0 0 0 6.352l16.654 16.585c1.754 1.746 4.625 1.746 6.38 0Z"/><path d="M11.476 24.566a4.491 4.491 0 0 1 0-6.352L28.13 1.629a4.536 4.536 0 0 1 6.38 0 4.491 4.491 0 0 1 0 6.352L17.853 24.566c-1.753 1.746-4.624 1.746-6.378 0Z"/><symbol>
<symbol id="low" viewBox="0 0 64 64"><path d="M12.006 20.858a4.491 4.491 0 0 0 0 6.353L28.66 43.796a4.537 4.537 0 0 0 6.379 0 4.491 4.491 0 0 0 0-6.353L18.385 20.858c-1.754-1.746-4.625-1.746-6.38 0Z"/><path d="M51.87 20.858a4.491 4.491 0 0 1 0 6.353L35.216 43.796a4.536 4.536 0 0 1-6.38 0 4.491 4.491 0 0 1 0-6.353l16.656-16.585c1.753-1.746 4.624-1.746 6.378 0Z"/><symbol>
<symbol id="maps-route" viewBox="0 0 24 24"><path fill-rule="evenodd" d="M8.793 1.293a1 1 0 0 1 1.414 0L13.914 5l-3.707 3.707a1 1 0 0 1-1.414-1.414L11.086 5 8.793 2.707a1 1 0 0 1 0-1.414Z" clip-rule="evenodd"/><path fill-rule="evenodd" d="M2 8.5A4.5 4.5 0 0 1 6.5 4H11a1 1 0 1 1 0 2H6.5a2.5 2.5 0 0 0 0 5h11a4.5 4.5 0 1 1 0 9H8a1 1 0 1 1 0-2h9.5a2.5 2.5 0 0 0 0-5h-11A4.5 4.5 0 0 1 2 8.5Z" clip-rule="evenodd"/><path fill-rule="evenodd" d="M5 18a1 1 0 1 0 0 2 1 1 0 0 0 0-2Zm-3 1a3 3 0 1 1 6 0 3 3 0 0 1-6 0ZM19 4a1 1 0 1 0 0 2 1 1 0 0 0 0-2Zm-3 1a3 3 0 1 1 6 0 3 3 0 0 1-6 0Z" clip-rule="evenodd"/><symbol>
<symbol id="medium" viewBox="0 0 64 64"><path d="M51.889 41.982a4.491 4.491 0 0 0 0-6.352L35.235 19.044a4.537 4.537 0 0 0-6.379 0 4.491 4.491 0 0 0 0 6.352L45.51 41.982c1.754 1.746 4.624 1.746 6.379 0Z"/><path d="M12.025 41.982a4.491 4.491 0 0 1 0-6.352L28.68 19.044a4.537 4.537 0 0 1 6.38 0 4.491 4.491 0 0 1 0 6.352L18.402 41.982c-1.753 1.746-4.624 1.746-6.378 0Z"/><symbol>
<symbol id="star" viewBox="0 0 64 64"><path d="m56.757 22.066-15.87-2.306-7.093-14.382a1.989 1.989 0 0 0-.906-.906 2.008 2.008 0 0 0-2.682.906L23.113 19.76l-15.87 2.307a1.996 1.996 0 0 0-1.71 2.004c.007.531.225 1.038.605 1.408l11.481 11.194-2.713 15.806a1.996 1.996 0 0 0 2.9 2.106L32 47.123l14.194 7.462c.387.207.837.275 1.269.2a1.997 1.997 0 0 0 1.631-2.306l-2.712-15.806 11.48-11.194c.313-.306.52-.706.582-1.144a1.993 1.993 0 0 0-1.687-2.268Z"/><symbol></defs>
</svg>