<svg width="212" height="71" viewBox="0 0 212 71" fill="none" xmlns="http://www.w3.org/2000/svg">
<g clip-path="url(#clip0_11845_144440)">
<path d="M13.6131 70.9963C13.0653 70.9963 12.5308 70.9891 11.9873 70.9764C10.8614 70.9613 9.7382 70.8601 8.62683 70.6737C7.59052 70.4894 6.58662 70.1467 5.64824 69.6567C4.71846 69.1708 3.87043 68.5337 3.13663 67.7698C2.39221 67.0149 1.77245 66.1393 1.3019 65.1777C0.826169 64.21 0.496933 63.1726 0.325664 62.1018C0.140708 60.9512 0.0406395 59.7878 0.0263207 58.6216C0.0149223 58.2301 0 56.9268 0 56.9268V14.0495C0 14.0495 0.0158931 12.7662 0.0264106 12.3892C0.0401208 11.2248 0.139608 10.0632 0.32401 8.91441C0.495596 7.84068 0.825086 6.80033 1.30107 5.82936C1.76989 4.86848 2.38622 3.99224 3.12615 3.23461C3.86526 2.46978 4.716 1.82939 5.64736 1.33679C6.58359 0.848417 7.58559 0.508078 8.6198 0.327177C9.73482 0.138904 10.8619 0.037115 11.9917 0.0226631L13.6139 0H198.377L200.019 0.0235727C201.138 0.0373064 202.255 0.138188 203.36 0.325358C204.405 0.508528 205.417 0.851242 206.364 1.34223C208.23 2.33496 209.748 3.90556 210.706 5.83389C211.174 6.79815 211.499 7.83002 211.668 8.89447C211.855 10.0527 211.959 11.2234 211.981 12.3973C211.986 12.923 211.986 13.4876 211.986 14.0495C212 14.7456 212 15.4081 212 16.076V54.922C212 55.5963 212 56.2543 211.986 56.9177C211.986 57.5213 211.986 58.0742 211.979 58.6433C211.958 59.7963 211.855 60.9461 211.672 62.0836C211.504 63.1621 211.176 64.2076 210.701 65.1833C210.227 66.1344 209.611 67.0024 208.875 67.7553C208.14 68.5234 207.291 69.1642 206.359 69.6532C205.415 70.1469 204.404 70.4909 203.36 70.6737C202.249 70.8611 201.125 70.9623 199.999 70.9764C199.473 70.9891 198.921 70.9963 198.386 70.9963L196.437 71L13.6131 70.9963Z" fill="#2B2D3A"/>
<path d="M43.7272 36.7401C43.7466 35.2452 44.1471 33.7796 44.8913 32.4794C45.6355 31.1792 46.6993 30.0869 47.9837 29.3039C47.1677 28.1485 46.0913 27.1976 44.8399 26.5268C43.5885 25.8559 42.1966 25.4837 40.7748 25.4396C37.7417 25.1239 34.8012 27.2392 33.2556 27.2392C31.6801 27.2392 29.3004 25.4709 26.7379 25.5232C25.0803 25.5763 23.4649 26.0542 22.0491 26.9104C20.6332 27.7666 19.4652 28.9718 18.6588 30.4087C15.1656 36.4056 17.7712 45.219 21.1174 50.0665C22.7916 52.4402 24.7482 55.0916 27.3085 54.9976C29.8138 54.8945 30.7495 53.4135 33.7736 53.4135C36.7697 53.4135 37.6476 54.9976 40.2598 54.9378C42.9482 54.8945 44.6419 52.5536 46.2574 50.1574C47.4603 48.4661 48.3859 46.5969 49 44.6189C47.4381 43.9639 46.1053 42.8675 45.1676 41.4664C44.23 40.0653 43.729 38.4216 43.7272 36.7401Z" fill="white"/>
<path d="M38.7937 22.2516C40.2595 20.5068 40.9816 18.2642 40.8068 16C38.5673 16.2332 36.4988 17.2945 35.0132 18.9723C34.2868 19.792 33.7305 20.7455 33.376 21.7785C33.0216 22.8115 32.8759 23.9036 32.9474 24.9924C34.0675 25.0039 35.1756 24.7631 36.1883 24.2884C37.2009 23.8136 38.0918 23.1172 38.7937 22.2516Z" fill="white"/>
<path d="M74.9536 42.6144H66.5666L64.5524 48.631H61L68.9441 26.3711H72.6349L80.579 48.631H76.966L74.9536 42.6144ZM67.4352 39.838H74.0833L70.806 30.0735H70.7142L67.4352 39.838Z" fill="white"/>
<path d="M97.7363 40.5173C97.7363 45.5606 95.0681 48.8009 91.0415 48.8009C90.0215 48.8548 89.0071 48.6171 88.1144 48.115C87.2218 47.6128 86.4869 46.8665 85.9941 45.9615H85.9179V54H82.625V32.4018H85.8123V35.1011H85.8729C86.3884 34.2004 87.1357 33.458 88.0351 32.9528C88.9346 32.4475 89.9526 32.1984 90.9809 32.232C95.0525 32.232 97.7363 35.488 97.7363 40.5173ZM94.3517 40.5173C94.3517 37.2316 92.6732 35.0714 90.1123 35.0714C87.5964 35.0714 85.9041 37.2771 85.9041 40.5173C85.9041 43.7873 87.5964 45.9773 90.1123 45.9773C92.6732 45.9773 94.3516 43.8328 94.3516 40.5173H94.3517Z" fill="white"/>
<path d="M115.389 40.5173C115.389 45.5606 112.72 48.8009 108.694 48.8009C107.674 48.8548 106.659 48.6171 105.767 48.115C104.874 47.6128 104.139 46.8665 103.646 45.9615H103.57V54H100.277V32.4018H103.465V35.1011H103.525C104.041 34.2004 104.788 33.458 105.687 32.9528C106.587 32.4475 107.605 32.1984 108.633 32.232C112.705 32.232 115.389 35.488 115.389 40.5173ZM112.004 40.5173C112.004 37.2316 110.326 35.0714 107.765 35.0714C105.249 35.0714 103.556 37.2771 103.556 40.5173C103.556 43.7873 105.249 45.9773 107.765 45.9773C110.326 45.9773 112.004 43.8328 112.004 40.5173Z" fill="white"/>
<path d="M127.058 42.4289C127.302 44.6364 129.422 46.0857 132.319 46.0857C135.094 46.0857 137.091 44.6363 137.091 42.6459C137.091 40.9181 135.887 39.8836 133.035 39.1746L130.183 38.4796C126.143 37.4923 124.267 35.5807 124.267 32.4788C124.267 28.6381 127.576 26 132.272 26C136.923 26 140.11 28.6381 140.218 32.4788H136.894C136.695 30.2573 134.88 28.9164 132.227 28.9164C129.574 28.9164 127.759 30.2731 127.759 32.2477C127.759 33.8214 128.918 34.7475 131.755 35.4564L134.179 36.0586C138.693 37.1386 140.567 38.9732 140.567 42.2292C140.567 46.3937 137.29 49.002 132.075 49.002C127.195 49.002 123.9 46.455 123.688 42.4288L127.058 42.4289Z" fill="white"/>
<path d="M147.68 28.5613V32.402H150.731V35.04H147.68V43.987C147.68 45.377 148.291 46.0247 149.632 46.0247C149.994 46.0183 150.356 45.9926 150.715 45.9476V48.5699C150.112 48.6839 149.499 48.7355 148.886 48.724C145.638 48.724 144.372 47.4898 144.372 44.3423V35.04H142.039V32.402H144.372V28.5613H147.68Z" fill="white"/>
<path d="M152.492 40.5175C152.492 35.4111 155.465 32.2024 160.101 32.2024C164.752 32.2024 167.711 35.4111 167.711 40.5175C167.711 45.6378 164.767 48.8325 160.101 48.8325C155.436 48.8325 152.492 45.6378 152.492 40.5175ZM164.356 40.5175C164.356 37.0146 162.769 34.9472 160.101 34.9472C157.432 34.9472 155.846 37.0304 155.846 40.5175C155.846 44.0343 157.432 46.0859 160.101 46.0859C162.769 46.0859 164.356 44.0343 164.356 40.5175H164.356Z" fill="white"/>
<path d="M170.43 32.4019H173.57V35.1642H173.647C173.859 34.3015 174.359 33.5391 175.061 33.0051C175.764 32.4711 176.627 32.1981 177.505 32.2321C177.885 32.2307 178.263 32.2724 178.633 32.3564V35.4723C178.154 35.3242 177.655 35.2562 177.154 35.271C176.676 35.2514 176.199 35.3367 175.756 35.5211C175.313 35.7056 174.915 35.9847 174.589 36.3395C174.263 36.6942 174.017 37.1161 173.867 37.5762C173.718 38.0363 173.668 38.5237 173.723 39.0049V48.6311H170.43L170.43 32.4019Z" fill="white"/>
<path d="M193.815 43.8645C193.372 46.8106 190.536 48.8325 186.907 48.8325C182.24 48.8325 179.344 45.6693 179.344 40.5945C179.344 35.5039 182.256 32.2024 186.769 32.2024C191.207 32.2024 193.998 35.2868 193.998 40.2076V41.349H182.668V41.5503C182.615 42.1476 182.689 42.7493 182.885 43.3154C183.08 43.8816 183.392 44.3992 183.8 44.834C184.208 45.2688 184.703 45.6107 185.252 45.8372C185.801 46.0636 186.391 46.1692 186.983 46.1472C187.761 46.2209 188.542 46.0386 189.21 45.6273C189.877 45.2161 190.396 44.5978 190.688 43.8645L193.815 43.8645ZM182.683 39.0207H190.704C190.733 38.4837 190.653 37.9463 190.467 37.4422C190.282 36.9381 189.995 36.4783 189.626 36.0915C189.256 35.7047 188.812 35.3994 188.32 35.1946C187.828 34.9899 187.3 34.8902 186.769 34.9017C186.232 34.8985 185.701 35.0027 185.205 35.2084C184.709 35.4141 184.258 35.7171 183.878 36.1001C183.498 36.483 183.197 36.9383 182.992 37.4396C182.787 37.9409 182.682 38.4783 182.683 39.0208V39.0207Z" fill="white"/>
</g>
<defs>
<clipPath id="clip0_11845_144440">
<rect width="212" height="71" fill="white"/>
</clipPath>
</defs>
</svg>
