<svg width="212" height="71" viewBox="0 0 212 71" fill="none" xmlns="http://www.w3.org/2000/svg">
<g clip-path="url(#clip0_11845_144460)">
<path d="M13.6131 70.9963C13.0653 70.9963 12.5308 70.9891 11.9873 70.9764C10.8614 70.9613 9.7382 70.8601 8.62683 70.6737C7.59052 70.4894 6.58662 70.1467 5.64824 69.6567C4.71846 69.1708 3.87043 68.5337 3.13663 67.7698C2.39221 67.0149 1.77245 66.1393 1.3019 65.1777C0.826169 64.21 0.496933 63.1726 0.325664 62.1018C0.140708 60.9512 0.0406395 59.7878 0.0263207 58.6216C0.0149223 58.2301 0 56.9268 0 56.9268V14.0495C0 14.0495 0.0158931 12.7662 0.0264106 12.3892C0.0401208 11.2248 0.139608 10.0632 0.32401 8.91441C0.495596 7.84068 0.825086 6.80033 1.30107 5.82936C1.76989 4.86848 2.38622 3.99224 3.12615 3.23461C3.86526 2.46978 4.716 1.82939 5.64736 1.33679C6.58359 0.848417 7.58559 0.508078 8.6198 0.327177C9.73482 0.138904 10.8619 0.037115 11.9917 0.0226631L13.6139 0H198.377L200.019 0.0235727C201.138 0.0373064 202.255 0.138188 203.36 0.325358C204.405 0.508528 205.417 0.851242 206.364 1.34223C208.23 2.33496 209.748 3.90556 210.706 5.83389C211.174 6.79815 211.499 7.83002 211.668 8.89447C211.855 10.0527 211.959 11.2234 211.981 12.3973C211.986 12.923 211.986 13.4876 211.986 14.0495C212 14.7456 212 15.4081 212 16.076V54.922C212 55.5963 212 56.2543 211.986 56.9177C211.986 57.5213 211.986 58.0742 211.979 58.6433C211.958 59.7963 211.855 60.9461 211.672 62.0836C211.504 63.1621 211.176 64.2076 210.701 65.1833C210.227 66.1344 209.611 67.0024 208.875 67.7553C208.14 68.5234 207.291 69.1642 206.359 69.6532C205.415 70.1469 204.404 70.4909 203.36 70.6737C202.249 70.8611 201.125 70.9623 199.999 70.9764C199.473 70.9891 198.921 70.9963 198.386 70.9963L196.437 71L13.6131 70.9963Z" fill="#2B2D3A"/>
<path d="M106.574 32.4803C102.878 32.4803 99.8918 35.3352 99.8918 39.1893C99.8918 43.0434 102.878 45.8982 106.574 45.8982C110.271 45.8982 113.257 43.0434 113.257 39.1893C113.257 35.1924 110.271 32.4803 106.574 32.4803ZM106.574 43.1861C104.584 43.1861 102.878 41.4732 102.878 39.1893C102.878 36.7626 104.584 35.1924 106.574 35.1924C108.565 35.1924 110.271 36.9054 110.271 39.1893C110.413 41.4732 108.565 43.1861 106.574 43.1861ZM91.9297 32.4803C88.233 32.4803 85.2473 35.3352 85.2473 39.1893C85.2473 43.0434 88.233 45.8982 91.9297 45.8982C95.6264 45.8982 98.6122 43.0434 98.6122 39.1893C98.6122 35.1924 95.6264 32.4803 91.9297 32.4803ZM91.9297 43.1861C89.9392 43.1861 88.233 41.4732 88.233 39.1893C88.233 36.7626 89.9392 35.1924 91.9297 35.1924C93.9202 35.1924 95.6264 36.9054 95.6264 39.1893C95.7686 41.4732 94.0624 43.1861 91.9297 43.1861ZM74.5838 34.4787V37.3336H81.4084C81.2662 38.9038 80.6975 40.0457 79.8444 40.9022C78.8492 41.9014 77.2852 43.0434 74.5838 43.0434C70.4606 43.0434 67.1905 39.6175 67.1905 35.4779C67.1905 31.3383 70.4606 27.9125 74.5838 27.9125C76.8587 27.9125 78.4226 28.769 79.7023 29.9109L81.6928 27.9125C79.9866 26.3423 77.7118 25.0576 74.5838 25.0576C68.8966 25.0576 64.0625 29.7682 64.0625 35.4779C64.0625 41.1877 68.8966 45.8982 74.5838 45.8982C77.7118 45.8982 79.9866 44.899 81.835 43.0434C83.6833 41.1877 84.252 38.4755 84.252 36.3344C84.252 35.6207 84.252 35.0497 84.1098 34.6215L74.5838 34.4787ZM145.674 36.6199C145.105 35.1924 143.399 32.3376 139.986 32.3376C136.574 32.3376 133.731 35.0497 133.731 39.0465C133.731 42.7579 136.574 45.7555 140.413 45.7555C143.399 45.7555 145.247 43.8998 145.958 42.7579L143.683 41.1877C142.972 42.3296 141.835 43.0434 140.413 43.0434C138.991 43.0434 137.854 42.3296 137.143 41.0449L146.1 37.3336L145.674 36.6199ZM136.574 38.9038C136.432 36.3344 138.565 35.0497 140.129 35.0497C141.266 35.0497 142.261 35.6207 142.546 36.4771L136.574 38.9038ZM129.323 45.3273H132.309V25.7713H129.323V45.3273ZM124.489 33.9077C123.778 33.0513 122.498 32.4803 120.934 32.4803C117.664 32.4803 114.536 35.4779 114.536 39.1893C114.536 42.9006 117.522 45.8982 120.934 45.8982C122.498 45.8982 123.778 45.1845 124.489 44.328H124.631V45.3273C124.631 47.8966 123.209 49.3241 121.077 49.3241C119.228 49.3241 118.233 48.0394 117.664 46.8974L115.105 47.8966C115.816 49.6096 117.806 51.8935 121.077 51.8935C124.489 51.8935 127.475 49.8951 127.475 44.899V32.7658H124.631L124.489 33.9077ZM121.219 43.1861C119.228 43.1861 117.522 41.4732 117.522 39.1893C117.522 36.7626 119.228 35.0497 121.219 35.0497C123.209 35.0497 124.773 36.7626 124.773 39.1893C124.773 41.4732 123.209 43.1861 121.219 43.1861ZM159.323 25.7713H152.356V45.47H155.342V38.0473H159.465C162.735 38.0473 165.863 35.6207 165.863 31.9093C165.863 28.198 162.593 25.7713 159.323 25.7713ZM159.465 35.1924H155.342V28.4835H159.465C161.598 28.4835 162.877 30.3391 162.877 31.9093C162.877 33.3368 161.598 35.1924 159.465 35.1924ZM177.522 32.3376C175.389 32.3376 173.257 33.3368 172.261 35.3352L174.82 36.4771C175.389 35.3352 176.384 35.0497 177.522 35.0497C179.086 35.0497 180.508 35.9062 180.65 37.6191V37.7618C180.081 37.4763 178.944 37.0481 177.664 37.0481C174.82 37.0481 171.977 38.6183 171.977 41.4732C171.977 44.0426 174.252 45.7555 176.811 45.7555C178.802 45.7555 179.797 44.899 180.508 43.8998H180.65V45.47H183.493V37.9046C183.493 34.336 180.934 32.3376 177.522 32.3376ZM177.095 43.1861C176.1 43.1861 174.82 42.7579 174.82 41.4732C174.82 39.903 176.527 39.332 177.948 39.332C179.228 39.332 179.797 39.6175 180.65 40.0457C180.365 41.9014 178.801 43.1861 177.095 43.1861ZM193.73 32.7658L190.318 41.3304H190.176L186.764 32.7658H183.636L188.896 44.7563L185.91 51.3225H188.896L197.001 32.7658H193.73ZM167.427 45.3273H170.413V25.7713H167.427V45.3273Z" fill="white"/>
<path d="M15.1422 36.5535C15.1422 29.9873 15.1422 23.4211 15.1422 16.9976C15.1422 16.1411 15.2844 15.4274 15.8531 14.8564C15.9953 14.571 16.2796 14.571 16.4218 14.8564C20.8294 19.2815 25.2369 23.8493 29.5023 28.2744C32.3459 31.1293 35.1895 34.1269 38.0331 36.9818C38.3175 37.2672 38.3175 37.41 38.0331 37.6955C31.0663 44.6899 24.0995 51.6844 17.1327 58.6788C16.7062 59.1071 16.4218 59.1071 15.9953 58.6788C15.2844 58.1079 15 57.3941 15 56.3949C15 52.5408 15 48.6868 15 44.8327C15 41.9778 15.1422 39.2657 15.1422 36.5535Z" fill="#00D9FF"/>
<path d="M17.5586 14C18.1273 14 18.4117 14.1427 18.8382 14.2855C27.7955 19.2815 36.6107 24.2776 45.568 29.2736C45.9945 29.5591 45.9945 29.5591 45.7102 29.9873C43.7197 31.9857 41.7291 33.9841 39.7386 35.9826C39.5964 36.1253 39.4543 36.268 39.1699 35.9826C32.0609 28.7026 24.9519 21.4227 17.9851 14.2855C17.7008 14.2855 17.7008 14.1427 17.5586 14Z" fill="#00F076"/>
<path d="M19.5469 58.3932C25.945 51.827 32.4852 45.2608 38.8833 38.6946C39.3099 38.2664 39.452 38.4091 39.8786 38.6946C41.4425 40.4075 43.1487 42.1204 44.8549 43.8334C45.1392 44.1189 45.1392 44.2616 44.7127 44.4043C36.4663 48.9721 28.0777 53.54 19.8312 58.1078C19.8312 58.2505 19.6891 58.3932 19.5469 58.3932Z" fill="#FF3A44"/>
<path d="M56.5163 36.6962C56.5163 37.4099 56.0898 37.9809 55.6632 38.2664C55.2367 38.5519 54.8101 38.8373 54.3836 38.9801C51.8244 40.4075 49.4073 41.6922 46.8481 43.1197C46.5637 43.2624 46.2794 43.2624 45.995 42.9769C44.2888 41.1213 42.4405 39.2656 40.5922 37.4099C40.3078 37.1244 40.3078 36.9817 40.5922 36.6962C42.7249 34.555 44.8576 32.5566 46.8481 30.4155C47.1324 30.13 47.2746 30.13 47.559 30.2727C49.976 31.7002 52.5353 33.1276 54.9523 34.4123C56.5163 35.2436 56.5163 35.6061 56.5163 36.6962Z" fill="#FFD200"/>
</g>
<defs>
<clipPath id="clip0_11845_144460">
<rect width="212" height="71" fill="white"/>
</clipPath>
</defs>
</svg>
