<svg width="12" height="14" viewBox="0 0 12 14" fill="none" xmlns="http://www.w3.org/2000/svg">
<path fill-rule="evenodd" clip-rule="evenodd" d="M0.292893 7.29289C-0.0976311 7.68342 -0.0976311 8.31658 0.292893 8.70711L5.29289 13.7071C5.68342 14.0976 6.31658 14.0976 6.70711 13.7071L11.7071 8.70711C12.0976 8.31658 12.0976 7.68342 11.7071 7.29289C11.3166 6.90237 10.6834 6.90237 10.2929 7.29289L6 11.5858L1.70711 7.29289C1.31658 6.90237 0.683417 6.90237 0.292893 7.29289Z" fill="#2B2D3A"/>
<path fill-rule="evenodd" clip-rule="evenodd" d="M6 0C5.44772 0 5 0.447715 5 1V13C5 13.5523 5.44772 14 6 14C6.55228 14 7 13.5523 7 13V1C7 0.447715 6.55228 0 6 0Z" fill="#2B2D3A"/>
</svg>
