<svg width="24" height="20" viewBox="0 0 24 20" fill="none" xmlns="http://www.w3.org/2000/svg">
<path fill-rule="evenodd" clip-rule="evenodd" d="M12.4869 19.5118C13.1377 20.1627 14.193 20.1627 14.8439 19.5118L23.1772 11.1785C23.8281 10.5276 23.8281 9.47236 23.1772 8.82149L14.8439 0.488155C14.193 -0.162718 13.1377 -0.162718 12.4869 0.488155C11.836 1.13903 11.836 2.19431 12.4869 2.84518L19.6417 10L12.4869 17.1548C11.836 17.8057 11.836 18.861 12.4869 19.5118Z" fill="#2B2D3A"/>
<path fill-rule="evenodd" clip-rule="evenodd" d="M0.332031 10C0.332031 10.9205 1.07822 11.6667 1.9987 11.6667L21.9987 11.6667C22.9192 11.6667 23.6654 10.9205 23.6654 10C23.6654 9.07953 22.9192 8.33333 21.9987 8.33333L1.9987 8.33333C1.07822 8.33333 0.332031 9.07953 0.332031 10Z" fill="#2B2D3A"/>
</svg>
