<svg width="24" height="24" viewBox="0 0 24 24" fill="none" xmlns="http://www.w3.org/2000/svg">
<path fill-rule="evenodd" clip-rule="evenodd" d="M6.29289 11.7071C5.90237 11.3166 5.90237 10.6834 6.29289 10.2929L11.2929 5.29289C11.6834 4.90237 12.3166 4.90237 12.7071 5.29289L17.7071 10.2929C18.0976 10.6834 18.0976 11.3166 17.7071 11.7071C17.3166 12.0976 16.6834 12.0976 16.2929 11.7071L12 7.41421L7.70711 11.7071C7.31658 12.0976 6.68342 12.0976 6.29289 11.7071Z" fill="#2B2D3A"/>
<path fill-rule="evenodd" clip-rule="evenodd" d="M12 19C11.4477 19 11 18.5523 11 18V6C11 5.44771 11.4477 5 12 5C12.5523 5 13 5.44771 13 6V18C13 18.5523 12.5523 19 12 19Z" fill="#2B2D3A"/>
</svg>
