<svg width="24" height="20" viewBox="0 0 24 20" fill="none" xmlns="http://www.w3.org/2000/svg">
<path fill-rule="evenodd" clip-rule="evenodd" d="M12.4888 19.5118C13.1397 20.1627 14.195 20.1627 14.8458 19.5118L23.1792 11.1785C23.83 10.5276 23.83 9.47236 23.1792 8.82149L14.8458 0.488155C14.195 -0.162718 13.1397 -0.162718 12.4888 0.488155C11.8379 1.13903 11.8379 2.19431 12.4888 2.84518L19.6436 10L12.4888 17.1548C11.8379 17.8057 11.8379 18.861 12.4888 19.5118Z" fill="white"/>
<path fill-rule="evenodd" clip-rule="evenodd" d="M0.333984 10C0.333984 10.9205 1.08018 11.6667 2.00065 11.6667L22.0007 11.6667C22.9211 11.6667 23.6673 10.9205 23.6673 10C23.6673 9.07953 22.9211 8.33333 22.0007 8.33333L2.00065 8.33333C1.08018 8.33333 0.333984 9.07953 0.333984 10Z" fill="white"/>
</svg>
