<svg width="24" height="20" viewBox="0 0 24 20" fill="none" xmlns="http://www.w3.org/2000/svg">
<path fill-rule="evenodd" clip-rule="evenodd" d="M11.5112 19.5118C10.8603 20.1627 9.80504 20.1627 9.15417 19.5118L0.820835 11.1785C0.169962 10.5276 0.169962 9.47236 0.820835 8.82149L9.15417 0.488155C9.80504 -0.162718 10.8603 -0.162718 11.5112 0.488155C12.1621 1.13903 12.1621 2.19431 11.5112 2.84518L4.35637 10L11.5112 17.1548C12.1621 17.8057 12.1621 18.861 11.5112 19.5118Z" fill="white"/>
<path fill-rule="evenodd" clip-rule="evenodd" d="M23.666 10C23.666 10.9205 22.9198 11.6667 21.9993 11.6667L1.99935 11.6667C1.07887 11.6667 0.33268 10.9205 0.33268 10C0.33268 9.07953 1.07887 8.33333 1.99935 8.33333L21.9993 8.33333C22.9198 8.33333 23.666 9.07953 23.666 10Z" fill="white"/>
</svg>
