<svg width="24" height="24" viewBox="0 0 24 24" fill="none" xmlns="http://www.w3.org/2000/svg">
<path fill-rule="evenodd" clip-rule="evenodd" d="M15 6C15 5.44772 14.5523 5 14 5H4C3.44771 5 3 5.44772 3 6C3 6.55228 3.44771 7 4 7H14C14.5523 7 15 6.55228 15 6Z" fill="#2B2D3A"/>
<path fill-rule="evenodd" clip-rule="evenodd" d="M21 12C21 11.4477 20.5523 11 20 11H4C3.44772 11 3 11.4477 3 12C3 12.5523 3.44772 13 4 13H20C20.5523 13 21 12.5523 21 12Z" fill="#2B2D3A"/>
<path fill-rule="evenodd" clip-rule="evenodd" d="M11 18C11 17.4477 10.5523 17 10 17H4C3.44772 17 3 17.4477 3 18C3 18.5523 3.44772 19 4 19H10C10.5523 19 11 18.5523 11 18Z" fill="#2B2D3A"/>
</svg>
