<?xml version="1.0" encoding="UTF-8" standalone="no"?>
<svg
   xmlns:dc="http://purl.org/dc/elements/1.1/"
   xmlns:cc="http://creativecommons.org/ns#"
   xmlns:rdf="http://www.w3.org/1999/02/22-rdf-syntax-ns#"
   xmlns:svg="http://www.w3.org/2000/svg"
   xmlns="http://www.w3.org/2000/svg"
   xmlns:sodipodi="http://sodipodi.sourceforge.net/DTD/sodipodi-0.dtd"
   xmlns:inkscape="http://www.inkscape.org/namespaces/inkscape"
   width="24"
   height="24"
   viewBox="0 0 24 24"
   fill="none"
   version="1.1"
   id="svg6"
   sodipodi:docname="bell-dot.svg"
   inkscape:version="0.92.4 (5da689c313, 2019-01-14)">
  <metadata
     id="metadata12">
    <rdf:RDF>
      <cc:Work
         rdf:about="">
        <dc:format>image/svg+xml</dc:format>
        <dc:type
           rdf:resource="http://purl.org/dc/dcmitype/StillImage" />
      </cc:Work>
    </rdf:RDF>
  </metadata>
  <defs
     id="defs10" />
  <sodipodi:namedview
     pagecolor="#ffffff"
     bordercolor="#666666"
     borderopacity="1"
     objecttolerance="10"
     gridtolerance="10"
     guidetolerance="10"
     inkscape:pageopacity="0"
     inkscape:pageshadow="2"
     inkscape:window-width="1920"
     inkscape:window-height="1017"
     id="namedview8"
     showgrid="false"
     inkscape:zoom="9.8333333"
     inkscape:cx="12"
     inkscape:cy="12"
     inkscape:window-x="-8"
     inkscape:window-y="-8"
     inkscape:window-maximized="1"
     inkscape:current-layer="svg6" />
  <path
     style="color:#000000;font-style:normal;font-variant:normal;font-weight:normal;font-stretch:normal;font-size:medium;line-height:normal;font-family:sans-serif;font-variant-ligatures:normal;font-variant-position:normal;font-variant-caps:normal;font-variant-numeric:normal;font-variant-alternates:normal;font-feature-settings:normal;text-indent:0;text-align:start;text-decoration:none;text-decoration-line:none;text-decoration-style:solid;text-decoration-color:#000000;letter-spacing:normal;word-spacing:normal;text-transform:none;writing-mode:lr-tb;direction:ltr;text-orientation:mixed;dominant-baseline:auto;baseline-shift:baseline;text-anchor:start;white-space:normal;shape-padding:0;clip-rule:nonzero;display:inline;overflow:visible;visibility:visible;opacity:1;isolation:auto;mix-blend-mode:normal;color-interpolation:sRGB;color-interpolation-filters:linearRGB;solid-color:#000000;solid-opacity:1;vector-effect:none;fill:#2b2d3a;fill-opacity:1;fill-rule:nonzero;stroke:none;stroke-width:2;stroke-linecap:round;stroke-linejoin:round;stroke-miterlimit:4;stroke-dasharray:none;stroke-dashoffset:0;stroke-opacity:1;color-rendering:auto;image-rendering:auto;shape-rendering:auto;text-rendering:auto;enable-background:accumulate"
     d="M 12,1 C 10.143868,1 8.3632652,1.7382973 7.0507812,3.0507812 5.7382973,4.3632652 5,6.1438683 5,8 5,11.357143 4.2876465,13.428052 3.6230469,14.646484 2.9584473,15.864917 2.4453125,16.167969 2.4453125,16.167969 A 1.0001,1.0001 0 0 0 3,18 h 18 a 1.0001,1.0001 0 0 0 0.554688,-1.832031 c 0,0 -0.331615,-0.195084 -0.863282,-0.998047 -0.531667,-0.802963 -1.174345,-2.15468 -1.49414,-4.316406 A 1.0001,1.0001 0 1 0 17.21875,11.146484 C 17.554158,13.413747 18.235036,14.945356 18.888672,16 H 5.0527344 C 5.2045926,15.779588 5.2283214,15.876007 5.3769531,15.603516 6.2123535,14.071948 7,11.642857 7,8 7,6.6735317 7.5268877,5.4027998 8.4648438,4.4648438 9.4027998,3.5268877 10.673532,3 12,3 a 1.0001,1.0001 0 1 0 0,-2 z m -1.777344,18.988281 a 1.0001,1.0001 0 0 0 -0.8183591,1.513672 c 0.2637176,0.454681 0.6421611,0.831495 1.0976561,1.09375 0.455302,0.262294 0.972419,0.400391 1.498047,0.400391 0.525628,0 1.042745,-0.138097 1.498047,-0.400391 0.455495,-0.262255 0.833939,-0.639069 1.097656,-1.09375 A 1.0002937,1.0002937 0 1 0 12.865234,20.498047 C 12.777352,20.649566 12.651705,20.775936 12.5,20.863281 a 1.0001,1.0001 0 0 0 -0.002,0 C 12.346149,20.950788 12.175172,20.996094 12,20.996094 c -0.175172,0 -0.346149,-0.04531 -0.498047,-0.132813 a 1.0001,1.0001 0 0 0 -0.002,0 c -0.151705,-0.08734 -0.277352,-0.213715 -0.365234,-0.365234 a 1.0001,1.0001 0 0 0 -0.91211,-0.509766 z"
     id="path2"
     inkscape:connector-curvature="0" />
  <path
     style="fill:#4fba5d"
     d="m 19,0 c 2.216,0 4,1.784 4,4 0,2.216 -1.784,4 -4,4 -2.216,0 -4,-1.784 -4,-4 0,-2.216 1.784,-4 4,-4 z"
     id="rect4" />
</svg>
