<svg width="24" height="24" viewBox="0 0 24 24" fill="none" xmlns="http://www.w3.org/2000/svg">
<path fill-rule="evenodd" clip-rule="evenodd" d="M16.4468 2.55324C16.0925 2.19901 15.6121 2 15.1111 2H12C11.4477 2 11 2.44772 11 3C11 3.55228 11.4477 4 12 4H15V10H9V7C9 6.44772 8.55228 6 8 6C7.44771 6 7 6.44772 7 7V10.1111C7 10.6121 7.19901 11.0925 7.55324 11.4468C7.90748 11.801 8.38792 12 8.88889 12H15.1111C15.6121 12 16.0925 11.801 16.4468 11.4468C16.801 11.0925 17 10.6121 17 10.1111V3.88889C17 3.38792 16.801 2.90748 16.4468 2.55324Z" fill="#2B2D3A"/>
<path fill-rule="evenodd" clip-rule="evenodd" d="M3 7C3 6.44772 3.44772 6 4 6H8C8.55228 6 9 6.44772 9 7C9 7.55228 8.55228 8 8 8H4C3.44772 8 3 7.55228 3 7Z" fill="#2B2D3A"/>
<path fill-rule="evenodd" clip-rule="evenodd" d="M1 3C1 2.44772 1.44772 2 2 2L8 2C8.55228 2 9 2.44772 9 3C9 3.55229 8.55228 4 8 4L2 4C1.44772 4 1 3.55228 1 3Z" fill="#2B2D3A"/>
<path fill-rule="evenodd" clip-rule="evenodd" d="M6 15C4.34315 15 3 16.3431 3 18C3 19.6569 4.34315 21 6 21C7.65685 21 9 19.6569 9 18C9 16.3431 7.65685 15 6 15ZM1 18C1 15.2386 3.23858 13 6 13C8.76142 13 11 15.2386 11 18C11 20.7614 8.76142 23 6 23C3.23858 23 1 20.7614 1 18Z" fill="#2B2D3A"/>
<path fill-rule="evenodd" clip-rule="evenodd" d="M18 15C16.3431 15 15 16.3431 15 18C15 19.6569 16.3431 21 18 21C19.6569 21 21 19.6569 21 18C21 16.3431 19.6569 15 18 15ZM13 18C13 15.2386 15.2386 13 18 13C20.7614 13 23 15.2386 23 18C23 20.7614 20.7614 23 18 23C15.2386 23 13 20.7614 13 18Z" fill="#2B2D3A"/>
</svg>
