<svg width="24" height="24" viewBox="0 0 24 24" fill="none" xmlns="http://www.w3.org/2000/svg">
<rect width="24" height="24" fill="white"/>
<path d="M19 1H5V23L11.7407 18.907L17.4444 21.9767H18.4815L19 1Z" fill="#4FBA5D"/>
<path d="M18.3472 0H5.65197C4.81862 0 4.14062 0.678 4.14062 1.51134V23.0932C4.14062 23.4221 4.31866 23.7249 4.60581 23.8852C4.74334 23.9619 4.89541 24 5.04742 24C5.21308 24 5.37813 23.955 5.52409 23.8649L12.0014 19.8659L18.4778 23.8359C18.7577 24.0079 19.1086 24.0148 19.3948 23.854C19.6811 23.6938 19.8585 23.3913 19.8585 23.063V1.51134C19.8585 0.678 19.1806 0 18.3472 0ZM18.0449 21.4431L12.4738 18.0278C12.1818 17.8489 11.8143 17.8498 11.5232 18.0293L5.95422 21.4676V1.81359H18.0449V21.4431Z" fill="#4FBA5D"/>
</svg>
