<svg width="24" height="24" viewBox="0 0 24 24" fill="none" xmlns="http://www.w3.org/2000/svg">
<path d="M18.3477 0H5.65246C4.81911 0 4.14111 0.678 4.14111 1.51134V23.0932C4.14111 23.4221 4.31914 23.7249 4.6063 23.8852C4.74383 23.9619 4.89589 24 5.04791 24C5.21357 24 5.37861 23.955 5.52458 23.8649L12.0019 19.8659L18.4783 23.8359C18.7581 24.0079 19.1091 24.0148 19.3953 23.854C19.6816 23.6938 19.859 23.3913 19.859 23.063V1.51134C19.859 0.678 19.1811 0 18.3477 0ZM18.0454 21.4431L12.4743 18.0278C12.1823 17.8489 11.8148 17.8498 11.5237 18.0293L5.95471 21.4676V1.81359H18.0454V21.4431Z" fill="#2B2D3A"/>
</svg>