<svg width="24" height="24" viewBox="0 0 24 24" fill="none" xmlns="http://www.w3.org/2000/svg">
<path fill-rule="evenodd" clip-rule="evenodd" d="M7 21C7 19.8954 7.89543 19 9 19C10.1046 19 11 19.8954 11 21C11 22.1046 10.1046 23 9 23C7.89543 23 7 22.1046 7 21Z" fill="#2B2D3A"/>
<path fill-rule="evenodd" clip-rule="evenodd" d="M18 21C18 19.8954 18.8954 19 20 19C21.1046 19 22 19.8954 22 21C22 22.1046 21.1046 23 20 23C18.8954 23 18 22.1046 18 21Z" fill="#2B2D3A"/>
<path fill-rule="evenodd" clip-rule="evenodd" d="M0 1C0 0.447715 0.447715 0 1 0H5C5.47663 0 5.88701 0.336385 5.98055 0.803743L6.82043 5H13.5C14.0523 5 14.5 5.44772 14.5 6C14.5 6.55228 14.0523 7 13.5 7H7.22073L8.66084 14.1952C8.70656 14.4254 8.83179 14.6322 9.01461 14.7793C9.19743 14.9265 9.42619 15.0047 9.66084 15.0002L9.68 15H19.4L19.4192 15.0002C19.6538 15.0047 19.8826 14.9265 20.0654 14.7793C20.2474 14.6328 20.3723 14.4273 20.4185 14.1984L21.2177 10.0077C21.3212 9.46516 21.8448 9.10924 22.3873 9.2127C22.9298 9.31616 23.2858 9.83982 23.1823 10.3823L22.3809 14.5848C22.2437 15.2754 21.868 15.8958 21.3195 16.3373C20.7738 16.7766 20.0916 17.011 19.3914 17H9.68864C8.98837 17.011 8.3062 16.7766 7.76048 16.3373C7.21225 15.8959 6.83664 15.2759 6.69933 14.5857L5.02879 6.2392C5.02201 6.21159 5.01638 6.18353 5.01195 6.15508L4.18032 2H1C0.447715 2 0 1.55228 0 1Z" fill="#2B2D3A"/>
<path d="M16 4C16 1.79086 17.7909 0 20 0C22.2091 0 24 1.79086 24 4C24 6.20914 22.2091 8 20 8C17.7909 8 16 6.20914 16 4Z" fill="#4FBA5D"/>
</svg>
