<svg width="24" height="24" viewBox="0 0 24 24" fill="none" xmlns="http://www.w3.org/2000/svg">
<path d="M3.00008 22C2.83691 22.0087 2.6741 21.9772 2.52589 21.9084C2.37769 21.8396 2.2486 21.7355 2.14993 21.6053C2.05126 21.475 1.98601 21.3226 1.95988 21.1613C1.93376 21 1.94756 20.8347 2.00008 20.68L3.77008 15.37C3.24737 14.1475 2.98513 12.8295 3.00008 11.5C3.00534 8.98552 4.00518 6.57524 5.78131 4.79536C7.55745 3.01547 9.96562 2.01056 12.4801 2H13.0001C15.3404 2.11276 17.5559 3.08913 19.2182 4.74037C20.8805 6.39161 21.8717 8.60047 22.0001 10.94V11.5C22.0016 12.9751 21.6592 14.4303 21.0001 15.75C20.2107 17.3282 18.9973 18.6553 17.4959 19.5826C15.9946 20.5099 14.2647 21.0007 12.5001 21C11.1735 20.9991 9.86191 20.7197 8.65008 20.18L3.32008 22C3.2139 22.0144 3.10626 22.0144 3.00008 22ZM12.4801 4C11.3237 4.00025 10.1834 4.27078 9.15008 4.79C7.37052 5.67852 6.01679 7.23755 5.38668 9.12415C4.75656 11.0107 4.90167 13.0704 5.79008 14.85C5.85063 14.968 5.88712 15.0968 5.89742 15.229C5.90772 15.3612 5.89163 15.4941 5.85008 15.62L4.58008 19.42L8.38008 18.15C8.506 18.1085 8.63892 18.0924 8.77111 18.1027C8.9033 18.113 9.03212 18.1495 9.15008 18.21C10.1834 18.7292 11.3237 18.9998 12.4801 19C13.4667 19.0026 14.4441 18.8106 15.3563 18.4348C16.2686 18.0591 17.0978 17.5071 17.7963 16.8104C18.4949 16.1137 19.0491 15.286 19.4273 14.3748C19.8054 13.4635 20.0001 12.4866 20.0001 11.5V11C19.883 9.17168 19.0999 7.44965 17.799 6.15973C16.498 4.8698 14.7693 4.10144 12.9401 4H12.4801Z" fill="#2B2D3A"/>
</svg>
