<svg width="24" height="24" viewBox="0 0 24 24" fill="none" xmlns="http://www.w3.org/2000/svg">
<path fill-rule="evenodd" clip-rule="evenodd" d="M4.29289 9.70711C3.90237 9.31658 3.90237 8.68342 4.29289 8.29289L8.29289 4.29289C8.68342 3.90237 9.31658 3.90237 9.70711 4.29289C10.0976 4.68342 10.0976 5.31658 9.70711 5.70711L6.41421 9L9.70711 12.2929C10.0976 12.6834 10.0976 13.3166 9.70711 13.7071C9.31658 14.0976 8.68342 14.0976 8.29289 13.7071L4.29289 9.70711Z" fill="#2B2D3A"/>
<path fill-rule="evenodd" clip-rule="evenodd" d="M4 9C4 8.44772 4.44772 8 5 8H19C19.5523 8 20 8.44772 20 9C20 9.55228 19.5523 10 19 10H5C4.44772 10 4 9.55228 4 9Z" fill="#2B2D3A"/>
<path fill-rule="evenodd" clip-rule="evenodd" d="M13 13C13 12.4477 13.4477 12 14 12L19 12C19.5523 12 20 12.4477 20 13C20 13.5523 19.5523 14 19 14L14 14C13.4477 14 13 13.5523 13 13Z" fill="#2B2D3A"/>
<path fill-rule="evenodd" clip-rule="evenodd" d="M13 17C13 16.4477 13.4477 16 14 16L19 16C19.5523 16 20 16.4477 20 17C20 17.5523 19.5523 18 19 18L14 18C13.4477 18 13 17.5523 13 17Z" fill="#2B2D3A"/>
</svg>
