<svg width="12" height="12" viewBox="0 0 12 12" fill="none" xmlns="http://www.w3.org/2000/svg">
  <path fill-rule="evenodd" clip-rule="evenodd" d="M9.49813 1.83335C9.32073 1.83335 9.1506 1.90382 9.02516 2.02926L2.46096 8.59346L2.14565 9.85471L3.4069 9.5394L9.9711 2.9752C10.0965 2.84976 10.167 2.67963 10.167 2.50223C10.167 2.32483 10.0965 2.1547 9.9711 2.02926C9.84566 1.90382 9.67553 1.83335 9.49813 1.83335ZM7.84665 0.850752C8.28465 0.412752 8.87871 0.166687 9.49813 0.166687C10.1176 0.166687 10.7116 0.412752 11.1496 0.850752C11.5876 1.28875 11.8337 1.88281 11.8337 2.50223C11.8337 3.12166 11.5876 3.71571 11.1496 4.15371L4.42219 10.8811C4.3154 10.9879 4.18158 11.0637 4.03505 11.1003L1.20246 11.8085C0.918477 11.8795 0.618071 11.7963 0.411087 11.5893C0.204104 11.3823 0.120896 11.0819 0.191891 10.7979L0.90004 7.96531C0.936672 7.81878 1.01244 7.68497 1.11924 7.57817L7.84665 0.850752Z" fill="#2B2D3A"/>
</svg>
