<svg width="24" height="24" viewBox="0 0 24 24" fill="none" xmlns="http://www.w3.org/2000/svg">
<path fill-rule="evenodd" clip-rule="evenodd" d="M2.87868 2.87868C3.44129 2.31607 4.20435 2 5 2H10C10.5523 2 11 2.44772 11 3C11 3.55228 10.5523 4 10 4H5C4.73478 4 4.48043 4.10536 4.29289 4.29289C4.10536 4.48043 4 4.73478 4 5V19C4 19.2652 4.10536 19.5196 4.29289 19.7071C4.48043 19.8946 4.73478 20 5 20H19C19.2652 20 19.5196 19.8946 19.7071 19.7071C19.8946 19.5196 20 19.2652 20 19V14C20 13.4477 20.4477 13 21 13C21.5523 13 22 13.4477 22 14V19C22 19.7957 21.6839 20.5587 21.1213 21.1213C20.5587 21.6839 19.7957 22 19 22H5C4.20435 22 3.44129 21.6839 2.87868 21.1213C2.31607 20.5587 2 19.7957 2 19V5C2 4.20435 2.31607 3.44129 2.87868 2.87868Z" fill="#25282B"/>
<path fill-rule="evenodd" clip-rule="evenodd" d="M21 9C21.5523 9 22 8.55228 22 8V3C22 2.44772 21.5523 2 21 2H16C15.4477 2 15 2.44772 15 3C15 3.55228 15.4477 4 16 4H20V8C20 8.55228 20.4477 9 21 9Z" fill="#25282B"/>
<path fill-rule="evenodd" clip-rule="evenodd" d="M9.29289 14.7071C9.68342 15.0976 10.3166 15.0976 10.7071 14.7071L21.7071 3.70711C22.0976 3.31658 22.0976 2.68342 21.7071 2.29289C21.3166 1.90237 20.6834 1.90237 20.2929 2.29289L9.29289 13.2929C8.90237 13.6834 8.90237 14.3166 9.29289 14.7071Z" fill="#25282B"/>
</svg>
