<svg width="42" height="28" viewBox="0 0 42 28" fill="none" xmlns="http://www.w3.org/2000/svg">
<path d="M4.28688 7.24C3.64688 7.24 3.04688 7.08667 2.48688 6.78C1.92688 6.46 1.48021 6.03333 1.14688 5.5C0.826875 4.95333 0.666875 4.35333 0.666875 3.7C0.666875 3.08667 0.820208 2.50667 1.12688 1.96C1.44688 1.41333 1.88021 0.973333 2.42688 0.64C2.98688 0.306666 3.60688 0.14 4.28688 0.14C4.92688 0.14 5.52021 0.3 6.06688 0.619999C6.62688 0.926666 7.07354 1.35333 7.40688 1.9C7.74021 2.43333 7.90688 3.03333 7.90688 3.7C7.90688 4.34 7.74021 4.93333 7.40688 5.48C7.08688 6.01333 6.64688 6.44 6.08688 6.76C5.54021 7.08 4.94021 7.24 4.28688 7.24ZM14.7752 7.24C14.1352 7.24 13.5352 7.08667 12.9752 6.78C12.4152 6.46 11.9685 6.03333 11.6352 5.5C11.3152 4.95333 11.1552 4.35333 11.1552 3.7C11.1552 3.08667 11.3085 2.50667 11.6152 1.96C11.9352 1.41333 12.3685 0.973333 12.9152 0.64C13.4752 0.306666 14.0952 0.14 14.7752 0.14C15.4152 0.14 16.0085 0.3 16.5552 0.619999C17.1152 0.926666 17.5618 1.35333 17.8952 1.9C18.2285 2.43333 18.3952 3.03333 18.3952 3.7C18.3952 4.34 18.2285 4.93333 17.8952 5.48C17.5752 6.01333 17.1352 6.44 16.5752 6.76C16.0285 7.08 15.4285 7.24 14.7752 7.24ZM25.2634 7.24C24.6234 7.24 24.0234 7.08667 23.4634 6.78C22.9034 6.46 22.4568 6.03333 22.1234 5.5C21.8034 4.95333 21.6434 4.35333 21.6434 3.7C21.6434 3.08667 21.7968 2.50667 22.1034 1.96C22.4234 1.41333 22.8568 0.973333 23.4034 0.64C23.9634 0.306666 24.5834 0.14 25.2634 0.14C25.9034 0.14 26.4968 0.3 27.0434 0.619999C27.6034 0.926666 28.0501 1.35333 28.3834 1.9C28.7168 2.43333 28.8834 3.03333 28.8834 3.7C28.8834 4.34 28.7168 4.93333 28.3834 5.48C28.0634 6.01333 27.6234 6.44 27.0634 6.76C26.5168 7.08 25.9168 7.24 25.2634 7.24ZM35.7517 7.24C35.1117 7.24 34.5117 7.08667 33.9517 6.78C33.3917 6.46 32.9451 6.03333 32.6117 5.5C32.2917 4.95333 32.1317 4.35333 32.1317 3.7C32.1317 3.08667 32.2851 2.50667 32.5917 1.96C32.9117 1.41333 33.3451 0.973333 33.8917 0.64C34.4517 0.306666 35.0717 0.14 35.7517 0.14C36.3917 0.14 36.9851 0.3 37.5317 0.619999C38.0917 0.926666 38.5384 1.35333 38.8717 1.9C39.2051 2.43333 39.3717 3.03333 39.3717 3.7C39.3717 4.34 39.2051 4.93333 38.8717 5.48C38.5517 6.01333 38.1117 6.44 37.5517 6.76C37.0051 7.08 36.4051 7.24 35.7517 7.24Z" fill="#2B2D3A"/>
</svg>
