<svg width="20" height="20" viewBox="0 0 20 20" fill="none" xmlns="http://www.w3.org/2000/svg">
<path d="M4.05372 2.61775L5.22961 1.44186C5.25794 1.4134 5.2777 1.37756 5.28667 1.33841C5.29563 1.29927 5.29343 1.2584 5.28031 1.22044C5.26719 1.18249 5.24369 1.14898 5.21247 1.12372C5.18125 1.09847 5.14358 1.08248 5.10372 1.07758L0.812648 0.571326C0.676041 0.555254 0.558184 0.670433 0.574255 0.809718L1.08051 5.10079C1.10193 5.27758 1.3189 5.35257 1.44479 5.22668L2.61533 4.05615L6.19658 7.63472C6.27961 7.71775 6.41622 7.71775 6.49925 7.63472L7.63497 6.50168C7.71801 6.41865 7.71801 6.28204 7.63497 6.199L4.05372 2.61775ZM13.501 7.63472C13.5841 7.71775 13.7207 7.71775 13.8037 7.63472L17.385 4.05615L18.5555 5.22668C18.584 5.25501 18.6198 5.27477 18.659 5.28374C18.6981 5.2927 18.739 5.2905 18.7769 5.27738C18.8149 5.26427 18.8484 5.24076 18.8736 5.20954C18.8989 5.17832 18.9149 5.14065 18.9198 5.10079L19.426 0.812397C19.4421 0.67579 19.3269 0.557933 19.1876 0.574004L14.8966 1.08025C14.7198 1.10168 14.6448 1.31865 14.7707 1.44454L15.9466 2.62043L12.3653 6.19633C12.3254 6.2366 12.3031 6.29099 12.3031 6.34766C12.3031 6.40434 12.3254 6.45873 12.3653 6.499L13.501 7.63472ZM18.9198 14.899C18.8984 14.7222 18.6814 14.6472 18.5555 14.7731L17.385 15.9436L13.8037 12.3651C13.7634 12.3252 13.7091 12.3028 13.6524 12.3028C13.5957 12.3028 13.5413 12.3252 13.501 12.3651L12.3653 13.4981C12.3254 13.5384 12.3031 13.5928 12.3031 13.6494C12.3031 13.7061 12.3254 13.7605 12.3653 13.8008L15.9466 17.382L14.7707 18.5579C14.7424 18.5864 14.7226 18.6222 14.7136 18.6614C14.7047 18.7005 14.7069 18.7414 14.72 18.7793C14.7331 18.8173 14.7566 18.8508 14.7878 18.8761C14.819 18.9013 14.8567 18.9173 14.8966 18.9222L19.1876 19.4285C19.3243 19.4445 19.4421 19.3294 19.426 19.1901L18.9198 14.899ZM6.49925 12.3651C6.45898 12.3252 6.40459 12.3028 6.34792 12.3028C6.29124 12.3028 6.23685 12.3252 6.19658 12.3651L2.61533 15.9436L1.44479 14.7731C1.41633 14.7448 1.38048 14.725 1.34134 14.7161C1.3022 14.7071 1.26133 14.7093 1.22337 14.7224C1.18542 14.7355 1.15191 14.759 1.12665 14.7902C1.1014 14.8215 1.08541 14.8591 1.08051 14.899L0.574255 19.1874C0.558184 19.324 0.673362 19.4419 0.812648 19.4258L5.10372 18.9195C5.28051 18.8981 5.3555 18.6811 5.22961 18.5553L4.05372 17.382L7.63497 13.8035C7.71801 13.7204 7.71801 13.5838 7.63497 13.5008L6.49925 12.3651Z" fill="#2B2D3A"/>
</svg>
