<svg width="24" height="24" viewBox="0 0 24 24" fill="none" xmlns="http://www.w3.org/2000/svg">
<path fill-rule="evenodd" clip-rule="evenodd" d="M3 9.00003C3 8.44774 3.44772 8.00003 4 8.00003H20C20.5523 8.00003 21 8.44774 21 9.00003C21 9.55231 20.5523 10 20 10H4C3.44772 10 3 9.55231 3 9.00003Z" fill="#2B2D3A"/>
<path fill-rule="evenodd" clip-rule="evenodd" d="M3 15C3 14.4477 3.44772 14 4 14H20C20.5523 14 21 14.4477 21 15C21 15.5523 20.5523 16 20 16H4C3.44772 16 3 15.5523 3 15Z" fill="#2B2D3A"/>
<path fill-rule="evenodd" clip-rule="evenodd" d="M10.1104 2.00614C10.6593 2.06713 11.0549 2.56155 10.9939 3.11046L8.99388 21.1105C8.93289 21.6594 8.43848 22.0549 7.88957 21.9939C7.34066 21.9329 6.94513 21.4385 7.00612 20.8896L9.00612 2.8896C9.06711 2.34069 9.56152 1.94515 10.1104 2.00614Z" fill="#2B2D3A"/>
<path fill-rule="evenodd" clip-rule="evenodd" d="M16.1104 2.00614C16.6593 2.06713 17.0549 2.56155 16.9939 3.11046L14.9939 21.1105C14.9329 21.6594 14.4385 22.0549 13.8896 21.9939C13.3407 21.9329 12.9451 21.4385 13.0061 20.8896L15.0061 2.8896C15.0671 2.34069 15.5615 1.94515 16.1104 2.00614Z" fill="#2B2D3A"/>
</svg>
