<svg width="24" height="24" viewBox="0 0 24 24" fill="none" xmlns="http://www.w3.org/2000/svg">
<path d="M23.0091 5.88214C22.65 5.05082 22.1323 4.29747 21.485 3.66429C20.8371 3.02921 20.0733 2.52453 19.235 2.17768C18.3657 1.81659 17.4334 1.63176 16.4921 1.63393C15.1716 1.63393 13.8832 1.99554 12.7635 2.67857C12.4957 2.84197 12.2412 3.02143 12.0001 3.21697C11.7591 3.02143 11.5046 2.84197 11.2367 2.67857C10.1171 1.99554 8.82871 1.63393 7.50817 1.63393C6.55728 1.63393 5.63585 1.81607 4.76532 2.17768C3.92425 2.52589 3.16621 3.02679 2.51532 3.66429C1.86709 4.29676 1.34928 5.05028 0.991211 5.88214C0.61889 6.74732 0.428711 7.66607 0.428711 8.61161C0.428711 9.50357 0.610854 10.433 0.972461 11.3786C1.27514 12.1688 1.70907 12.9884 2.26353 13.8161C3.1421 15.1259 4.35014 16.492 5.85014 17.8768C8.33585 20.1723 10.7975 21.758 10.9019 21.8223L11.5367 22.2295C11.818 22.4089 12.1796 22.4089 12.4609 22.2295L13.0957 21.8223C13.2001 21.7554 15.6591 20.1723 18.1475 17.8768C19.6475 16.492 20.8555 15.1259 21.7341 13.8161C22.2885 12.9884 22.7251 12.1688 23.0251 11.3786C23.3867 10.433 23.5689 9.50357 23.5689 8.61161C23.5716 7.66607 23.3814 6.74732 23.0091 5.88214ZM12.0001 20.1107C12.0001 20.1107 2.46443 14.0009 2.46443 8.61161C2.46443 5.88214 4.72246 3.66964 7.50817 3.66964C9.46621 3.66964 11.1644 4.7625 12.0001 6.35893C12.8359 4.7625 14.5341 3.66964 16.4921 3.66964C19.2778 3.66964 21.5359 5.88214 21.5359 8.61161C21.5359 14.0009 12.0001 20.1107 12.0001 20.1107Z" fill="#2B2D3A"/>
</svg>
