<svg width="20" height="20" viewBox="0 0 20 20" fill="none" xmlns="http://www.w3.org/2000/svg">
<path fill-rule="evenodd" clip-rule="evenodd" d="M0.87868 0.87868C1.44129 0.316071 2.20435 2.38419e-07 3 2.38419e-07H8C8.55228 2.38419e-07 9 0.447715 9 1C9 1.55228 8.55228 2 8 2H3C2.73478 2 2.48043 2.10536 2.29289 2.29289C2.10536 2.48043 2 2.73478 2 3V17C2 17.2652 2.10536 17.5196 2.29289 17.7071C2.48043 17.8946 2.73478 18 3 18H17C17.2652 18 17.5196 17.8946 17.7071 17.7071C17.8946 17.5196 18 17.2652 18 17V12C18 11.4477 18.4477 11 19 11C19.5523 11 20 11.4477 20 12V17C20 17.7957 19.6839 18.5587 19.1213 19.1213C18.5587 19.6839 17.7957 20 17 20H3C2.20435 20 1.44129 19.6839 0.87868 19.1213C0.31607 18.5587 0 17.7957 0 17V3C0 2.20435 0.31607 1.44129 0.87868 0.87868Z" fill="#2CC84D"/>
<path fill-rule="evenodd" clip-rule="evenodd" d="M19 7C19.5523 7 20 6.55228 20 6V1C20 0.447716 19.5523 2.38419e-07 19 2.38419e-07H14C13.4477 2.38419e-07 13 0.447716 13 1C13 1.55228 13.4477 2 14 2H18V6C18 6.55228 18.4477 7 19 7Z" fill="#2CC84D"/>
<path fill-rule="evenodd" clip-rule="evenodd" d="M7.29289 12.7071C7.68342 13.0976 8.31658 13.0976 8.70711 12.7071L19.7071 1.70711C20.0976 1.31658 20.0976 0.683418 19.7071 0.292894C19.3166 -0.0976312 18.6834 -0.0976312 18.2929 0.292894L7.29289 11.2929C6.90237 11.6834 6.90237 12.3166 7.29289 12.7071Z" fill="#2CC84D"/>
</svg>
