<svg width="25" height="24" viewBox="0 0 25 24" fill="none" xmlns="http://www.w3.org/2000/svg">
<path d="M22.0791 9.5C22.357 8.82945 22.5 9.25316 22.5 8.52732C22.5 7.80149 22.357 7.08276 22.0791 6.41221C21.8013 5.74166 21.3941 5.13242 20.8807 4.6193C20.3676 4.10593 19.7583 3.6987 19.0878 3.42085C18.4172 3.14301 17.6985 3 16.9727 3C16.2468 3 15.5281 3.14301 14.8576 3.42085C14.187 3.6987 13.5778 4.10593 13.0646 4.6193L11.9997 5.68421L10.9348 4.6193C9.89834 3.58282 8.49258 3.00054 7.02679 3.00054C5.56099 3.00054 4.15523 3.58282 3.11876 4.6193C2.08229 5.65577 1.5 7.06153 1.5 8.52732C1.5 9.99312 2.08229 11.3989 3.11876 12.4354L11.9997 21.3163L15.5 18M22.5747 9.92531C22.2815 9.63196 21.9333 9.39925 21.5502 9.24049C21.167 9.08172 20.7563 9 20.3415 9C19.9268 9 19.5161 9.08172 19.1329 9.24049C18.7497 9.39925 18.4016 9.63196 18.1084 9.92531L17.4998 10.5338L16.8913 9.92531C16.2991 9.33304 15.4958 9.00031 14.6582 9.00031C13.8206 9.00031 13.0173 9.33304 12.425 9.92531C11.8327 10.5176 11.5 11.3209 11.5 12.1585C11.5 12.9961 11.8327 13.7994 12.425 14.3916L17.4998 19.4665L22.5747 14.3916C22.868 14.0984 23.1007 13.7503 23.2595 13.3671C23.4183 12.9839 23.5 12.5732 23.5 12.1585C23.5 11.7437 23.4183 11.333 23.2595 10.9498C23.1007 10.5667 22.868 10.2185 22.5747 9.92531Z" stroke="#2B2D3A" stroke-width="2" stroke-linecap="round" stroke-linejoin="round"/>
</svg>
