<svg width="24" height="24" viewBox="0 0 24 24" fill="none" xmlns="http://www.w3.org/2000/svg">
<path fill-rule="evenodd" clip-rule="evenodd" d="M21.1213 21.1213C20.5587 21.6839 19.7956 22 19 22H12C11.4477 22 11 21.5523 11 21C11 20.4477 11.4477 20 12 20H19C19.2652 20 19.5196 19.8946 19.7071 19.7071C19.8946 19.5196 20 19.2652 20 19V5C20 4.73478 19.8946 4.48043 19.7071 4.29289C19.5196 4.10536 19.2652 4 19 4H5C4.73479 4 4.48043 4.10536 4.29289 4.29289C4.10536 4.48043 4 4.73479 4 5V12C4 12.5523 3.55228 13 3 13C2.44772 13 2 12.5523 2 12V5C2 4.20435 2.31607 3.44129 2.87868 2.87868C3.44129 2.31607 4.20435 2 5 2H19C19.7957 2 20.5587 2.31607 21.1213 2.87868C21.6839 3.44129 22 4.20435 22 5V19C22 19.7956 21.6839 20.5587 21.1213 21.1213Z" fill="#25282B"/>
<path fill-rule="evenodd" clip-rule="evenodd" d="M14 16C14.5523 16 15 15.5523 15 15V10C15 9.44772 14.5523 9 14 9H9C8.44772 9 8 9.44772 8 10C8 10.5523 8.44772 11 9 11H13V15C13 15.5523 13.4477 16 14 16Z" fill="#25282B"/>
<path fill-rule="evenodd" clip-rule="evenodd" d="M2.29289 21.7071C2.68342 22.0976 3.31658 22.0976 3.70711 21.7071L14.7071 10.7071C15.0976 10.3166 15.0976 9.68342 14.7071 9.29289C14.3166 8.90237 13.6834 8.90237 13.2929 9.29289L2.29289 20.2929C1.90237 20.6834 1.90237 21.3166 2.29289 21.7071Z" fill="#25282B"/>
</svg>
