<svg width="20" height="20" viewBox="0 0 20 20" fill="none" xmlns="http://www.w3.org/2000/svg">
<path d="M14.5862 0H5.41382C2.42859 0 0 2.42859 0 5.41382V14.5863C0 17.5714 2.42859 20 5.41382 20H14.5863C17.5714 20 20 17.5714 20 14.5863V5.41382C20 2.42859 17.5714 0 14.5862 0V0ZM10 15.4686C6.98456 15.4686 4.5314 13.0154 4.5314 10C4.5314 6.98456 6.98456 4.5314 10 4.5314C13.0154 4.5314 15.4686 6.98456 15.4686 10C15.4686 13.0154 13.0154 15.4686 10 15.4686ZM15.5994 5.82108C14.7083 5.82108 13.9835 5.09628 13.9835 4.20517C13.9835 3.31406 14.7083 2.58911 15.5994 2.58911C16.4905 2.58911 17.2154 3.31406 17.2154 4.20517C17.2154 5.09628 16.4905 5.82108 15.5994 5.82108Z" fill="#2B2D3A"/>
<path d="M10.0002 5.70361C7.63144 5.70361 5.7041 7.6308 5.7041 9.99973C5.7041 12.3685 7.63144 14.2958 10.0002 14.2958C12.3691 14.2958 14.2963 12.3685 14.2963 9.99973C14.2963 7.6308 12.3691 5.70361 10.0002 5.70361Z" fill="#2B2D3A"/>
<path d="M15.5987 3.76172C15.3542 3.76172 15.1553 3.96069 15.1553 4.20514C15.1553 4.44958 15.3542 4.64856 15.5987 4.64856C15.8433 4.64856 16.0423 4.44974 16.0423 4.20514C16.0423 3.96054 15.8433 3.76172 15.5987 3.76172Z" fill="#2B2D3A"/>
</svg>
