<svg width="19" height="19" viewBox="0 0 19 19" fill="none" xmlns="http://www.w3.org/2000/svg">
<path d="M18.0059 18.9941H14.0059V12.2441C14.0059 11.1855 12.818 10.2999 11.7594 10.2999C10.7008 10.2999 10.0059 11.1855 10.0059 12.2441V18.9941H6.00587V6.99414H10.0059V8.99414C10.6682 7.92271 12.3623 7.23141 13.5309 7.23141C16.0024 7.23141 18.0059 9.27274 18.0059 11.7441V18.9941ZM4.00586 18.9941H0.00585938V6.99414H4.00586V18.9941ZM2.00587 0.994141C3.11044 0.994141 4.00587 1.88957 4.00587 2.99414C4.00587 4.09871 3.11044 4.99414 2.00587 4.99414C0.901299 4.99414 0.00586939 4.09871 0.00586939 2.99414C0.00586939 1.88957 0.901299 0.994141 2.00587 0.994141Z" fill="#2B2D3A"/>
</svg>
