<svg width="24" height="24" viewBox="0 0 24 24" fill="none" xmlns="http://www.w3.org/2000/svg">
<path fill-rule="evenodd" clip-rule="evenodd" d="M21.5525 1.1665C21.832 1.35175 22 1.66472 22 2V20C22 20.3353 21.832 20.6483 21.5525 20.8335C21.2731 21.0188 20.9194 21.0516 20.6105 20.9211L11.229 16.9542L2.77198 14.9737C2.31977 14.8678 2 14.4644 2 14V8C2 7.53556 2.31977 7.13225 2.77198 7.02635L11.229 5.04577L20.6105 1.07896C20.9194 0.948381 21.2731 0.981253 21.5525 1.1665ZM20 3.50856L11.9294 6.92105C11.8772 6.94313 11.8232 6.96073 11.768 6.97366L4 8.79287V13.2071L11.768 15.0263C11.8232 15.0393 11.8772 15.0569 11.9294 15.079L20 18.4915V3.50856Z" fill="#2B2D3A"/>
<path fill-rule="evenodd" clip-rule="evenodd" d="M7 6.46003C7.55228 6.46003 8 6.90774 8 7.46003V19.382L10 20.382V16.46C10 15.9077 10.4477 15.46 11 15.46C11.5523 15.46 12 15.9077 12 16.46V22C12 22.3466 11.8205 22.6685 11.5257 22.8507C11.2309 23.0329 10.8628 23.0494 10.5528 22.8945L6.55279 20.8945C6.214 20.7251 6 20.3788 6 20V7.46003C6 6.90774 6.44772 6.46003 7 6.46003Z" fill="#2B2D3A"/>
</svg>
