<!-- Generated by IcoMoon.io -->
<svg version="1.1" xmlns="http://www.w3.org/2000/svg" width="64" height="64" viewBox="0 0 64 64">
<title>mail-at</title>
<path fill="none" stroke-linejoin="round" stroke-linecap="round" stroke-miterlimit="4" stroke-width="5.3333" stroke="#000" d="M32 42.667c5.891 0 10.667-4.776 10.667-10.667s-4.776-10.667-10.667-10.667c-5.891 0-10.667 4.776-10.667 10.667s4.776 10.667 10.667 10.667z"></path>
<path fill="none" stroke-linejoin="round" stroke-linecap="round" stroke-miterlimit="4" stroke-width="5.3333" stroke="#000" d="M42.667 21.333v13.333c0 2.122 0.843 4.157 2.343 5.657s3.535 2.343 5.657 2.343c2.122 0 4.157-0.843 5.657-2.343s2.343-3.535 2.343-5.657v-2.667c-0-6.019-2.037-11.86-5.778-16.575s-8.967-8.025-14.829-9.393c-5.861-1.368-12.012-0.713-17.454 1.859s-9.853 6.908-12.518 12.305c-2.664 5.397-3.425 11.536-2.158 17.42s4.487 11.166 9.137 14.987c4.65 3.821 10.455 5.957 16.473 6.061s11.893-1.832 16.672-5.491"></path>
</svg>
