<svg width="24" height="25" viewBox="0 0 24 25" fill="none" xmlns="http://www.w3.org/2000/svg">
<path d="M19.8372 24.0036H19.547C16.1514 23.6276 12.8899 22.467 10.0207 20.6136C7.3589 18.9199 5.10108 16.6636 3.40628 14.0036C1.54678 11.1424 0.3849 7.88513 0.0140243 4.49361C-0.0275584 4.05456 0.0235782 3.61167 0.164124 3.19361C0.311254 2.77963 0.539138 2.39894 0.834571 2.07361C1.13091 1.75316 1.48807 1.49481 1.88527 1.31361C2.28703 1.14228 2.7193 1.05384 3.15612 1.05361H6.30822C7.06791 1.04837 7.80378 1.31836 8.3796 1.81361C8.96273 2.30559 9.341 2.99745 9.4403 3.75361C9.5711 4.68161 9.79917 5.59328 10.1208 6.47361C10.3333 7.03542 10.3784 7.6467 10.2508 8.23361C10.1323 8.82275 9.83949 9.36274 9.41028 9.78361L8.65978 10.5336C9.89252 12.467 11.5358 14.1057 13.473 15.3336L14.2235 14.5836C14.6522 14.1616 15.1926 13.8706 15.7811 13.7449C16.3696 13.6191 16.9817 13.6638 17.5457 13.8736C18.4238 14.2042 19.3371 14.4324 20.2675 14.5536C21.0394 14.6453 21.7496 15.0205 22.2601 15.6064C22.7705 16.1923 23.0447 16.9469 23.0294 17.7236V20.8536C23.0291 21.2901 22.9406 21.7221 22.7692 22.1236C22.5917 22.5257 22.3327 22.8866 22.0087 23.1836C21.6828 23.4737 21.3016 23.6948 20.8879 23.8336C20.5502 23.9505 20.1947 24.0081 19.8372 24.0036ZM6.32823 3.14361H3.15612C3.01135 3.14464 2.86832 3.17526 2.73584 3.23361C2.60136 3.28928 2.48066 3.3736 2.38215 3.48068C2.28364 3.58776 2.20969 3.71503 2.16546 3.85361C2.141 3.9959 2.141 4.14132 2.16546 4.28361C2.49536 7.35099 3.54443 10.2974 5.2275 12.8836C6.76488 15.299 8.81454 17.3472 11.2315 18.8836C13.828 20.538 16.7744 21.5651 19.8372 21.8836C19.9725 21.9119 20.1122 21.9119 20.2475 21.8836C20.3876 21.8363 20.5169 21.7615 20.6278 21.6636C20.7309 21.5624 20.8156 21.444 20.8779 21.3136C20.936 21.1779 20.9634 21.0311 20.958 20.8836V17.6936C20.9662 17.4358 20.8809 17.1836 20.7178 16.9836C20.5463 16.7905 20.3127 16.6632 20.0574 16.6236C18.9761 16.4848 17.9148 16.2196 16.8953 15.8336C16.7023 15.7789 16.4979 15.7789 16.3049 15.8336C16.1072 15.8725 15.9258 15.9701 15.7845 16.1136L14.4536 17.4336C14.2958 17.6037 14.0837 17.7136 13.8537 17.7446C13.6237 17.7756 13.3901 17.7258 13.1928 17.6036C10.403 16.024 8.09321 13.7191 6.50835 10.9336C6.38609 10.7365 6.3362 10.503 6.36723 10.2731C6.39827 10.0433 6.50829 9.83133 6.67846 9.67361L7.9293 8.30361C8.06755 8.16384 8.16152 7.98645 8.19948 7.79361C8.25885 7.60142 8.25885 7.3958 8.19948 7.20361C7.80087 6.17227 7.52219 5.09855 7.36892 4.00361C7.32429 3.76665 7.20088 3.5517 7.01869 3.39361C6.82567 3.23078 6.58083 3.14213 6.32823 3.14361ZM18.7865 10.4736C18.6484 10.4758 18.5113 10.4494 18.3838 10.3961C18.2564 10.3427 18.1414 10.2636 18.046 10.1636C17.9428 10.0699 17.8604 9.95564 17.804 9.82821C17.7476 9.70077 17.7184 9.56296 17.7184 9.42361C17.7184 9.28426 17.7476 9.14645 17.804 9.01902C17.8604 8.89158 17.9428 8.77734 18.046 8.68361L20.4476 6.28361H14.5837C14.3064 6.28361 14.0404 6.17351 13.8443 5.97754C13.6482 5.78156 13.538 5.51576 13.538 5.23861C13.538 4.96146 13.6482 4.69566 13.8443 4.49969C14.0404 4.30371 14.3064 4.19361 14.5837 4.19361H20.4476L18.026 1.79361C17.8296 1.5947 17.7204 1.32597 17.7222 1.04654C17.7241 0.767113 17.837 0.499873 18.036 0.303613C18.2351 0.107353 18.504 -0.0018516 18.7836 2.37609e-05C19.0632 0.00189912 19.3306 0.114701 19.527 0.313613L23.7198 4.49361C23.8013 4.58666 23.8687 4.6911 23.9199 4.80361C23.9723 4.93051 23.9995 5.06636 24 5.20361C23.9995 5.34411 23.9724 5.48324 23.9199 5.61361C23.8666 5.73035 23.7958 5.83826 23.7098 5.93361L19.527 10.1636C19.4317 10.2636 19.3167 10.3427 19.1892 10.3961C19.0618 10.4494 18.9247 10.4758 18.7865 10.4736Z" fill="#2B2D3A"/>
</svg>
