<svg width="24" height="24" viewBox="0 0 24 24" fill="none" xmlns="http://www.w3.org/2000/svg">
<path d="M21.1767 6.02967C20.6724 4.86685 19.9454 3.81401 19.0365 2.93057C18.1247 2.03914 17.0498 1.33162 15.8705 0.846638C14.6437 0.337709 13.3419 0.0805664 11.9999 0.0805664C10.658 0.0805664 9.35618 0.337709 8.1294 0.843959C6.94279 1.33414 5.8794 2.03592 4.96332 2.92789C4.05508 3.81183 3.3281 4.86455 2.82314 6.027C2.30082 7.23235 2.03564 8.51271 2.03564 9.83057C2.03564 11.7216 2.48832 13.6047 3.37761 15.4207C4.09279 16.8806 5.09189 18.3029 6.35082 19.6556C8.50172 21.9645 10.7571 23.3761 11.3973 23.7538C11.579 23.8611 11.7862 23.9175 11.9973 23.9172C12.2062 23.9172 12.4124 23.8636 12.5973 23.7538C13.2374 23.3761 15.4928 21.9645 17.6437 19.6556C18.9026 18.3056 19.9017 16.8806 20.6169 15.4207C21.5115 13.6074 21.9642 11.727 21.9642 9.83325C21.9642 8.51539 21.699 7.23503 21.1767 6.02967ZM11.9999 21.8627C10.2348 20.7404 3.96422 16.2966 3.96422 9.83325C3.96422 7.74664 4.79725 5.78592 6.31065 4.30735C7.8294 2.8261 9.84904 2.00914 11.9999 2.00914C14.1508 2.00914 16.1705 2.8261 17.6892 4.31003C19.2026 5.78592 20.0356 7.74664 20.0356 9.83325C20.0356 16.2966 13.7651 20.7404 11.9999 21.8627ZM11.9999 5.33057C9.39636 5.33057 7.28565 7.44128 7.28565 10.0449C7.28565 12.6484 9.39636 14.7591 11.9999 14.7591C14.6035 14.7591 16.7142 12.6484 16.7142 10.0449C16.7142 7.44128 14.6035 5.33057 11.9999 5.33057ZM14.1214 12.1663C13.8431 12.4453 13.5124 12.6666 13.1484 12.8174C12.7843 12.9682 12.394 13.0455 11.9999 13.0449C11.199 13.0449 10.4464 12.7315 9.8785 12.1663C9.59946 11.888 9.37818 11.5574 9.2274 11.1933C9.07662 10.8292 8.99932 10.4389 8.99993 10.0449C8.99993 9.24396 9.31332 8.49128 9.8785 7.92342C10.4464 7.35557 11.199 7.04485 11.9999 7.04485C12.8008 7.04485 13.5535 7.35557 14.1214 7.92342C14.6892 8.49128 14.9999 9.24396 14.9999 10.0449C14.9999 10.8457 14.6892 11.5984 14.1214 12.1663Z" fill="#2B2D3A"/>
</svg>
