<svg width="24" height="24" viewBox="0 0 24 24" fill="none" xmlns="http://www.w3.org/2000/svg">
<path d="M8 4C8.55228 4 9 3.55228 9 3C9 2.44772 8.55228 2 8 2V4ZM5 3V2V3ZM3 5H2H3ZM2 8C2 8.55228 2.44772 9 3 9C3.55228 9 4 8.55228 4 8H2ZM20 8C20 8.55228 20.4477 9 21 9C21.5523 9 22 8.55228 22 8H20ZM19 3V2V3ZM16 2C15.4477 2 15 2.44772 15 3C15 3.55228 15.4477 4 16 4V2ZM16 20C15.4477 20 15 20.4477 15 21C15 21.5523 15.4477 22 16 22V20ZM22 16C22 15.4477 21.5523 15 21 15C20.4477 15 20 15.4477 20 16H22ZM4 16C4 15.4477 3.55228 15 3 15C2.44772 15 2 15.4477 2 16H4ZM3 19H2H3ZM8 22C8.55228 22 9 21.5523 9 21C9 20.4477 8.55228 20 8 20V22ZM2 11C1.44772 11 1 11.4477 1 12C1 12.5523 1.44772 13 2 13V11ZM22 13C22.5523 13 23 12.5523 23 12C23 11.4477 22.5523 11 22 11V13ZM8 2H5V4H8V2ZM5 2C4.20435 2 3.44129 2.31607 2.87868 2.87868L4.29289 4.29289C4.48043 4.10536 4.73478 4 5 4V2ZM2.87868 2.87868C2.31607 3.44129 2 4.20435 2 5H4C4 4.73478 4.10536 4.48043 4.29289 4.29289L2.87868 2.87868ZM2 5V8H4V5H2ZM22 8V5H20V8H22ZM22 5C22 4.20435 21.6839 3.44129 21.1213 2.87868L19.7071 4.29289C19.8946 4.48043 20 4.73478 20 5H22ZM21.1213 2.87868C20.5587 2.31607 19.7957 2 19 2V4C19.2652 4 19.5196 4.10536 19.7071 4.29289L21.1213 2.87868ZM19 2H16V4H19V2ZM16 22H19V20H16V22ZM19 22C19.7957 22 20.5587 21.6839 21.1213 21.1213L19.7071 19.7071C19.5196 19.8946 19.2652 20 19 20V22ZM21.1213 21.1213C21.6839 20.5587 22 19.7957 22 19H20C20 19.2652 19.8946 19.5196 19.7071 19.7071L21.1213 21.1213ZM22 19V16H20V19H22ZM2 16V19H4V16H2ZM2 19C2 19.7957 2.31607 20.5587 2.87868 21.1213L4.29289 19.7071C4.10536 19.5196 4 19.2652 4 19H2ZM2.87868 21.1213C3.44129 21.6839 4.20435 22 5 22V20C4.73478 20 4.48043 19.8946 4.29289 19.7071L2.87868 21.1213ZM5 22H8V20H5V22ZM2 13H22V11H2V13Z" fill="#2B2D3A"/>
</svg>
