<svg width="24" height="24" viewBox="0 0 24 24" fill="none" xmlns="http://www.w3.org/2000/svg">
<path fill-rule="evenodd" clip-rule="evenodd" d="M18 3C16.8954 3 16 3.89543 16 5C16 6.10457 16.8954 7 18 7C19.1046 7 20 6.10457 20 5C20 3.89543 19.1046 3 18 3ZM14 5C14 2.79086 15.7909 1 18 1C20.2091 1 22 2.79086 22 5C22 7.20914 20.2091 9 18 9C15.7909 9 14 7.20914 14 5Z" fill="#2B2D3A"/>
<path fill-rule="evenodd" clip-rule="evenodd" d="M6 10C4.89543 10 4 10.8954 4 12C4 13.1046 4.89543 14 6 14C7.10457 14 8 13.1046 8 12C8 10.8954 7.10457 10 6 10ZM2 12C2 9.79087 3.79086 8.00001 6 8.00001C8.20914 8.00001 10 9.79087 10 12C10 14.2091 8.20914 16 6 16C3.79086 16 2 14.2091 2 12Z" fill="#2B2D3A"/>
<path fill-rule="evenodd" clip-rule="evenodd" d="M18 17C16.8954 17 16 17.8954 16 19C16 20.1046 16.8954 21 18 21C19.1046 21 20 20.1046 20 19C20 17.8954 19.1046 17 18 17ZM14 19C14 16.7909 15.7909 15 18 15C20.2091 15 22 16.7909 22 19C22 21.2092 20.2091 23 18 23C15.7909 23 14 21.2092 14 19Z" fill="#2B2D3A"/>
<path fill-rule="evenodd" clip-rule="evenodd" d="M7.72595 13.0065C8.00401 12.5293 8.61626 12.3679 9.09344 12.646L15.9234 16.626C16.4006 16.9041 16.562 17.5163 16.284 17.9935C16.0059 18.4707 15.3937 18.6321 14.9165 18.354L8.08648 14.374C7.6093 14.0959 7.44789 13.4837 7.72595 13.0065Z" fill="#2B2D3A"/>
<path fill-rule="evenodd" clip-rule="evenodd" d="M16.2736 6.00599C16.552 6.48299 16.391 7.09534 15.914 7.3737L9.09399 11.3537C8.61699 11.6321 8.00464 11.471 7.72627 10.994C7.4479 10.517 7.60893 9.9047 8.08593 9.62633L14.9059 5.64633C15.3829 5.36796 15.9953 5.52899 16.2736 6.00599Z" fill="#2B2D3A"/>
</svg>
