<svg width="24" height="24" viewBox="0 0 24 24" fill="none" xmlns="http://www.w3.org/2000/svg">
<path fill-rule="evenodd" clip-rule="evenodd" d="M5 4C4.44772 4 4 4.44772 4 5V19C4 19.5523 4.44772 20 5 20H19C19.5523 20 20 19.5523 20 19V5C20 4.44772 19.5523 4 19 4H5ZM2 5C2 3.34315 3.34315 2 5 2H19C20.6569 2 22 3.34315 22 5V19C22 20.6569 20.6569 22 19 22H5C3.34315 22 2 20.6569 2 19V5Z" fill="#2B2D3A"/>
<path fill-rule="evenodd" clip-rule="evenodd" d="M9 9C9.55228 9 10 9.44772 10 10C10 10.5304 10.2107 11.0391 10.5858 11.4142C10.9609 11.7893 11.4696 12 12 12C12.5304 12 13.0391 11.7893 13.4142 11.4142C13.7893 11.0391 14 10.5304 14 10C14 9.44772 14.4477 9 15 9C15.5523 9 16 9.44772 16 10C16 11.0609 15.5786 12.0783 14.8284 12.8284C14.0783 13.5786 13.0609 14 12 14C10.9391 14 9.92172 13.5786 9.17157 12.8284C8.42143 12.0783 8 11.0609 8 10C8 9.44772 8.44772 9 9 9Z" fill="#2B2D3A"/>
<path fill-rule="evenodd" clip-rule="evenodd" d="M15 9C15.5523 9 16 9.44772 16 10C16 10.5304 16.2107 11.0391 16.5858 11.4142C16.9609 11.7893 17.4696 12 18 12C18.5304 12 19.0391 11.7893 19.4142 11.4142C19.7893 11.0391 20 10.5304 20 10C20 9.44772 20.4477 9 21 9C21.5523 9 22 9.44772 22 10C22 11.0609 21.5786 12.0783 20.8284 12.8284C20.0783 13.5786 19.0609 14 18 14C16.9391 14 15.9217 13.5786 15.1716 12.8284C14.4214 12.0783 14 11.0609 14 10C14 9.44772 14.4477 9 15 9Z" fill="#2B2D3A"/>
<path fill-rule="evenodd" clip-rule="evenodd" d="M3 9C3.55228 9 4 9.44772 4 10C4 10.5304 4.21071 11.0391 4.58579 11.4142C4.96086 11.7893 5.46957 12 6 12C6.53043 12 7.03914 11.7893 7.41421 11.4142C7.78929 11.0391 8 10.5304 8 10C8 9.44772 8.44772 9 9 9C9.55228 9 10 9.44772 10 10C10 11.0609 9.57857 12.0783 8.82843 12.8284C8.07828 13.5786 7.06087 14 6 14C4.93913 14 3.92172 13.5786 3.17157 12.8284C2.42143 12.0783 2 11.0609 2 10C2 9.44772 2.44772 9 3 9Z" fill="#2B2D3A"/>
<path fill-rule="evenodd" clip-rule="evenodd" d="M9 17C9 16.4477 9.44772 16 10 16H14C14.5523 16 15 16.4477 15 17V21C15 21.5523 14.5523 22 14 22H10C9.44772 22 9 21.5523 9 21V17ZM11 18V20H13V18H11Z" fill="#2B2D3A"/>
<path fill-rule="evenodd" clip-rule="evenodd" d="M2 7C2 6.44772 2.44772 6 3 6H21C21.5523 6 22 6.44772 22 7C22 7.55228 21.5523 8 21 8H3C2.44772 8 2 7.55228 2 7Z" fill="#2B2D3A"/>
</svg>
