<svg width="20" height="20" viewBox="0 0 20 20" fill="none" xmlns="http://www.w3.org/2000/svg">
<path d="M12 7V3C12 2.20435 11.6839 1.44129 11.1213 0.87868C10.5587 0.316071 9.79565 0 9 0L5 9V20H16.28C16.7623 20.0055 17.2304 19.8364 17.5979 19.524C17.9654 19.2116 18.2077 18.7769 18.28 18.3L19.66 9.3C19.7035 9.01336 19.6842 8.72068 19.6033 8.44225C19.5225 8.16382 19.3821 7.90629 19.1919 7.68751C19.0016 7.46873 18.7661 7.29393 18.5016 7.17522C18.2371 7.0565 17.9499 6.99672 17.66 7H12ZM5 20H2C1.46957 20 0.960859 19.7893 0.585786 19.4142C0.210714 19.0391 0 18.5304 0 18V11C0 10.4696 0.210714 9.96086 0.585786 9.58579C0.960859 9.21071 1.46957 9 2 9H5" fill="#4FBA5D"/>
</svg>
