<svg width="20" height="20" viewBox="0 0 20 20" fill="none" xmlns="http://www.w3.org/2000/svg">
<path d="M12 13V17C12 17.7956 11.6839 18.5587 11.1213 19.1213C10.5587 19.6839 9.79565 20 9 20L5 11V0H16.28C16.7623 -0.00545311 17.2304 0.163595 17.5979 0.475994C17.9654 0.788393 18.2077 1.22309 18.28 1.7L19.66 10.7C19.7035 10.9866 19.6842 11.2793 19.6033 11.5577C19.5225 11.8362 19.3821 12.0937 19.1919 12.3125C19.0016 12.5313 18.7661 12.7061 18.5016 12.8248C18.2371 12.9435 17.9499 13.0033 17.66 13H12ZM5 0H2C1.46957 0 0.960859 0.210714 0.585786 0.585787C0.210714 0.960859 0 1.46957 0 2V9C0 9.53043 0.210714 10.0391 0.585786 10.4142C0.960859 10.7893 1.46957 11 2 11H5" fill="#E2D3C5"/>
</svg>
