<svg width="21" height="21" viewBox="0 0 21 21" fill="none" xmlns="http://www.w3.org/2000/svg">
<g clip-path="url(#clip0)">
<path d="M4.81534 15.0087C5.12147 15.0087 5.38369 14.8235 5.60132 14.4524C7.59239 10.9217 8.62813 9.08396 8.70898 8.93836L6.72604 5.48044C6.51637 5.11769 6.2503 4.93628 5.92807 4.93628H3.03801C2.85231 4.93628 2.7237 4.99674 2.65103 5.11765C2.56227 5.23857 2.56634 5.38779 2.66306 5.56487L4.60973 8.93836C4.61765 8.94695 4.61765 8.95061 4.60973 8.95061L1.55051 14.3679C1.47014 14.5214 1.47014 14.6663 1.55051 14.8029C1.63091 14.9404 1.75612 15.0087 1.92528 15.0087H4.81534Z" fill="#2B2D3A"/>
<path d="M18.0794 0.994141H15.1653C14.851 0.994141 14.5929 1.17551 14.3916 1.5383C10.2562 8.87399 8.11585 12.6711 7.9707 12.9286L12.0697 20.45C12.2631 20.8128 12.5291 20.9941 12.8677 20.9941H15.7575C15.9348 20.9941 16.0638 20.9337 16.1445 20.8128C16.2248 20.6753 16.221 20.5261 16.1324 20.3651L12.0699 12.9286V12.9169L18.4544 1.62295C18.5429 1.45383 18.5429 1.30505 18.4544 1.17574C18.3817 1.0546 18.2567 0.994141 18.0794 0.994141Z" fill="#2B2D3A"/>
</g>
<defs>
<clipPath id="clip0">
<rect width="20" height="20" fill="white" transform="translate(0.00585938 0.994141)"/>
</clipPath>
</defs>
</svg>
